<?xml version="1.0" encoding="UTF-8"?><svg id="Layer_2" xmlns="http://www.w3.org/2000/svg" viewBox="0 0 50.35 54.68"><g id="Layer_1-2"><g id="layer1"><path id="path4544" d="M11.86,54.28c-3.53-.77-6.18-2.83-7.1-5.54-.64-1.89-.55-4.95,.27-9.09,.4-1.99,.72-4.36,.72-5.27,0-3.03-1.39-4.67-4.16-4.9l-1.59-.13v-3.9l1.51-.2c2.2-.3,3.05-.84,3.73-2.37,.5-1.13,.56-1.69,.41-3.65-.1-1.27-.44-3.54-.75-5.05-.81-3.82-.77-6.92,.1-8.78C6.27,2.65,9.42,.63,13.09,.2L14.66,.01V4.11h-1.06c-1.44,0-3.46,1.03-3.98,2.03-.5,.96-.53,2.33-.13,4.73,.64,3.78,.85,7.41,.55,9.31-.35,2.17-1.61,4.72-3,6.07l-.96,.93,1.32,1.62c1.62,1.99,2.25,3.38,2.64,5.82,.31,1.93,.07,5.94-.55,9.14-.86,4.47,.13,6.24,3.8,6.77l1.37,.2v1.99c0,2.28,.14,2.2-2.8,1.56h0Z" style="fill:#fff;"/><path id="path4546" d="M35.69,52.7v-1.98l1.67-.35c1.84-.38,3.3-1.52,3.63-2.83,.1-.41-.09-2.58-.43-4.81-1.12-7.28-.5-11.03,2.33-14.1l1.21-1.31-.91-1.03c-3.24-3.69-3.8-6.97-2.57-14.97,.62-4.03,.62-4.07,.07-5.03-.65-1.13-2.68-2.26-4.05-2.26h-.95V2.01c0-2.29-.05-2.26,2.65-1.69,3.23,.69,5.55,2.33,6.75,4.78,.69,1.41,.79,1.96,.77,4.08-.01,1.35-.29,3.82-.62,5.48-1.22,6.16-1.11,7.8,.62,9.4,.81,.74,1.34,.96,2.75,1.12l1.75,.2v3.95h-1.37c-1.75,0-3.2,.74-3.94,2.01-.78,1.33-.73,4.24,.14,8.48,.74,3.6,.86,6.89,.32,8.74-.57,1.95-3.11,4.32-5.5,5.12-1.03,.34-2.42,.71-3.09,.81l-1.22,.19v-1.98Z" style="fill:#fff;"/><path id="path4548" d="M18.99,49.45c-.83-1.06-.71-2.88,.31-4.67,.76-1.32,3.92-5.66,6.2-8.51l.92-1.15-1.47-4.26c-1.65-4.78-1.64-4.87,.53-5.19l1.2-.18,1.34,2.73c.74,1.5,1.44,2.73,1.57,2.73s1.45-1.43,2.93-3.18c2.57-3.04,2.74-3.17,3.61-3.01,.53,.1,.99,.04,1.1-.14,.26-.42,1,.2,1,.84,0,.26-.37,.92-.82,1.47-1.85,2.25-5.79,7.56-5.79,7.8,0,.14,.79,2,1.77,4.12l1.77,3.86-.54,.8c-.3,.44-.54,.92-.54,1.06,0,.14-.23,.39-.49,.56-.68,.43-1.18-.09-3.25-3.38-.95-1.51-1.82-2.74-1.93-2.75-.26,0-3.09,4.18-5.28,7.81-1.93,3.2-1.58,2.79-2.66,3.1-.78,.22-.97,.16-1.47-.46h0Z" style="fill:#e52629;"/><path id="path4550" d="M19.19,29.41c-1.75-3.14-4.9-7.68-6.18-8.91-.65-.63-1.17-1.28-1.17-1.46,0-.49,1.32-.99,2.6-.99,1.38,0,2.85,1.2,4.16,3.42,.47,.8,.94,1.46,1.04,1.47,.1,0,.66-1.35,1.25-3,1.26-3.54,4.58-10.41,5.89-12.18,1.12-1.52,2.79-2.34,4.81-2.34,2.64-.01,2.64,.11,.17,2.69-3.78,3.94-5.51,7.18-9.17,17.14-1.02,2.77-1.95,5.28-2.07,5.58-.19,.46-.41,.23-1.32-1.4Z" style="fill:#55af31;"/></g></g></svg>