<?xml version="1.0" encoding="UTF-8"?><svg id="Layer_2" xmlns="http://www.w3.org/2000/svg" viewBox="0 0 108.05 34.12"><g id="Layer_1-2"><g><polygon points="58.19 .93 58.19 23.1 66.34 14.96 70.45 19.07 55.39 34.12 40.15 18.88 44.26 14.77 52.38 22.89 52.38 .93 58.19 .93" style="fill:#fff;"/><polygon points="5.81 33 5.81 15.82 16.33 26.34 26.92 15.75 26.92 32.82 32.74 32.82 32.74 1.71 16.33 18.12 0 1.79 0 33 5.81 33" style="fill:#fff;"/><polygon points="103.94 0 108.05 4.11 95.74 16.43 107.67 28.36 103.56 32.47 91.63 20.54 79.69 32.47 75.58 28.36 87.51 16.43 75.2 4.11 79.31 0 91.63 12.31 103.94 0" style="fill:#f8ac08;"/></g></g></svg>