<?xml version="1.0" encoding="UTF-8"?><svg id="Layer_2" xmlns="http://www.w3.org/2000/svg" viewBox="0 0 75.63 19.7"><g id="Layer_1-2"><g><path d="M8.26,18.12c-.89,1.05-2.16,1.57-3.8,1.57-1.47,0-2.57-.43-3.33-1.29-.75-.86-1.13-2.1-1.13-3.72V5.93H3.03V14.65c0,1.71,.71,2.57,2.14,2.57s2.47-.53,2.98-1.59V5.93h3.03v13.51h-2.86l-.07-1.32Z" style="fill:#2e8fff;"/><path d="M17.1,5.93l.09,1.56c1-1.21,2.31-1.81,3.93-1.81,2.81,0,4.25,1.61,4.3,4.83v8.93h-3.03V10.69c0-.86-.19-1.49-.56-1.9-.37-.41-.98-.62-1.82-.62-1.22,0-2.13,.55-2.74,1.66v9.62h-3.03V5.93h2.86Z" style="fill:#2e8fff;"/><path d="M28.51,2.42c0-.47,.15-.85,.44-1.16,.3-.31,.72-.46,1.27-.46s.97,.16,1.27,.46,.45,.69,.45,1.16-.15,.84-.45,1.14c-.3,.3-.72,.46-1.27,.46s-.97-.15-1.27-.46c-.29-.3-.44-.68-.44-1.14Zm3.22,17.02h-3.03V5.93h3.03v13.51Z" style="fill:#2e8fff;"/><path d="M36.11,19.44V8.18h-2.06v-2.25h2.06v-1.24c0-1.5,.42-2.66,1.25-3.47s2-1.22,3.5-1.22c.53,0,1.1,.07,1.7,.23l-.07,2.37c-.33-.07-.72-.1-1.16-.1-1.45,0-2.17,.75-2.17,2.24v1.2h2.75v2.25h-2.75v11.26h-3.03Z" style="fill:#fff;"/><path d="M44.11,2.42c0-.47,.15-.85,.44-1.16,.3-.31,.72-.46,1.27-.46s.97,.16,1.27,.46,.45,.69,.45,1.16-.15,.84-.45,1.14c-.3,.3-.72,.46-1.27,.46s-.97-.15-1.27-.46c-.29-.3-.44-.68-.44-1.14Zm3.22,17.02h-3.03V5.93h3.03v13.51Z" style="fill:#fff;"/><path d="M56.59,19.7c-1.92,0-3.48-.61-4.68-1.82-1.19-1.21-1.79-2.82-1.79-4.84v-.38c0-1.35,.26-2.55,.78-3.62,.52-1.06,1.25-1.89,2.19-2.48s1.99-.89,3.15-.89c1.84,0,3.26,.59,4.27,1.76,1,1.17,1.51,2.84,1.51,4.98v1.22h-8.83c.09,1.12,.46,2,1.12,2.65,.65,.65,1.48,.97,2.47,.97,1.39,0,2.52-.56,3.4-1.69l1.64,1.56c-.54,.81-1.26,1.43-2.17,1.88s-1.92,.67-3.04,.67Zm-.36-11.58c-.83,0-1.51,.29-2.02,.87-.51,.58-.84,1.39-.98,2.44h5.78v-.23c-.07-1.02-.34-1.78-.81-2.3-.47-.52-1.13-.78-1.97-.78Z" style="fill:#fff;"/><path d="M63.79,12.59c0-2.08,.48-3.75,1.45-5.01,.97-1.26,2.26-1.89,3.88-1.89,1.43,0,2.59,.5,3.47,1.5V.26h3.03V19.44h-2.75l-.15-1.4c-.91,1.1-2.12,1.65-3.63,1.65s-2.86-.64-3.84-1.91c-.98-1.27-1.47-3.01-1.47-5.19Zm3.03,.26c0,1.37,.26,2.45,.79,3.22,.53,.77,1.28,1.15,2.25,1.15,1.24,0,2.15-.55,2.72-1.66v-5.77c-.56-1.08-1.46-1.62-2.7-1.62-.98,0-1.74,.39-2.27,1.17-.53,.78-.8,1.95-.8,3.52Z" style="fill:#fff;"/></g></g></svg>