<?xml version="1.0" encoding="UTF-8"?>
<svg id="uuid-ea28649f-f191-4827-90aa-71b1e97cd0a7" data-name="Layer 2" xmlns="http://www.w3.org/2000/svg" viewBox="0 0 28 7.58">
  <defs>
    <style>
      .uuid-803de25e-b5ce-466f-9341-9ddf09dc128b {
        fill: #fbc02d;
      }
    </style>
  </defs>
  <g id="uuid-3710034d-091f-4b9a-aa39-6424461a115d" data-name="Layer 1">
    <g>
      <path class="uuid-803de25e-b5ce-466f-9341-9ddf09dc128b" d="M0,0C.76,0,1.51,0,2.26,0l.05,.04c.92,.92,1.84,1.84,2.76,2.76,.89-.91,1.8-1.79,2.7-2.7,.05-.05,.11-.11,.19-.1h1.82c.12,0,.24,0,.35,.02-.7,.67-1.38,1.37-2.07,2.05L3.54,6.59c-.33,.32-.65,.66-.99,.98-.75,.02-1.51,0-2.27,0,1.22-1.21,2.43-2.43,3.66-3.64C2.63,2.63,1.32,1.31,0,0Z"/>
      <path class="uuid-803de25e-b5ce-466f-9341-9ddf09dc128b" d="M10.7,0h1.84c0,2.52,0,5.04,0,7.57-.61,0-1.22,.01-1.83,0V2.57c-1.6,1.61-3.21,3.2-4.81,4.8-.09,.08-.17,.22-.3,.19-.82,0-1.65,0-2.47,0C5.65,5.05,8.18,2.53,10.7,0Z"/>
      <path class="uuid-803de25e-b5ce-466f-9341-9ddf09dc128b" d="M12.96,0C13.43,0,13.9,0,14.37,0c.84,.85,1.69,1.69,2.54,2.53,.85-.84,1.69-1.69,2.54-2.53h1.4c0,2.52,0,5.05,0,7.57-.47,0-.94,0-1.41,0,0-1.59,0-3.18,0-4.77-.84,.84-1.68,1.7-2.53,2.54-.86-.83-1.69-1.69-2.53-2.54,0,1.59,0,3.19,0,4.78-.47,0-.94,0-1.41,0,0-2.53,0-5.05,0-7.57Z"/>
      <path class="uuid-803de25e-b5ce-466f-9341-9ddf09dc128b" d="M21.26,0C21.73,0,22.2,0,22.68,0c0,2.06,0,4.11,0,6.17h3.78c.06,0,.14-.01,.19,.05,.45,.45,.91,.9,1.35,1.35-2.25,0-4.49,0-6.74,0,0-2.52,0-5.04,0-7.56Z"/>
    </g>
  </g>
</svg>