<?xml version="1.0" encoding="UTF-8"?>
<svg id="uuid-cadeb53c-58e2-4db9-8018-c532b8920e39" data-name="Layer 2" xmlns="http://www.w3.org/2000/svg" viewBox="0 0 930.37 80.84">
  <defs>
    <style>
      .uuid-9fa3daf6-f486-49c4-bce9-90863889f9bd {
        fill: #654998;
      }
    </style>
  </defs>
  <g id="uuid-c0b2329a-bcb1-4ab6-9e1e-e25ab823e7df" data-name="Layer 1">
    <g>
      <g>
        <g>
          <path class="uuid-9fa3daf6-f486-49c4-bce9-90863889f9bd" d="M242.34,63.76c1.4-.23-.39-.79-1.89-1.3l-1.48,1.13,3.38,.17Z"/>
          <path class="uuid-9fa3daf6-f486-49c4-bce9-90863889f9bd" d="M234.8,62.81c-1.31,.3-2.62,.61-3.94,.86,.94-.08,1.88-.19,2.82-.31,3,.94-.54,1.32-1.74,1.42,5.07,.19,1.98-1.34,2.86-1.98Z"/>
          <path class="uuid-9fa3daf6-f486-49c4-bce9-90863889f9bd" d="M227.21,62.93c-2.42-.47-1.87,.46-.88,.88,.22-.33,1.86-.47,.88-.88Z"/>
          <path class="uuid-9fa3daf6-f486-49c4-bce9-90863889f9bd" d="M92.91,12.51c.67-.29,1.41-.71,1.45-.45,.48-.67,.5-.94-1.45,.45Z"/>
          <path class="uuid-9fa3daf6-f486-49c4-bce9-90863889f9bd" d="M94.36,12.06c-.1,.13-.2,.26-.32,.42,.12-.11,.22-.2,.34-.34,.02-.05-.02-.06-.02-.09Z"/>
          <path class="uuid-9fa3daf6-f486-49c4-bce9-90863889f9bd" d="M135.53,19.84c2.36,1.24,3.2,2.57,5.25,4.13l.33,1.74c2.27,1.69,1.5,.22,3.36,1.24,1.41,2.26,5.88,5.62,6.79,6.49,.33,.94-1.26-.24-1.76-.32,2.76,2.04,3.23,1.16,6.45,3.94l-.13,.26c4.34,2.77,9.06,6.15,14.11,9.32,2.52,1.6,5.14,3.1,7.76,4.51,2.65,1.36,5.32,2.64,7.98,3.65-.67-.38-.4-.49-.57-.81,5.44,2.46,11.43,4.81,17.34,6.29,5.89,1.51,11.64,2.23,16.39,1.92-3.11-.5-7.18-1.72-11.22-3.05-4.04-1.31-8.07-2.59-11.4-2.93-1.95-1.51-5.74-1.99-6.21-3.37-4.06-2.11-7.05-3.29-10.02-4.51-2.96-1.24-5.92-2.48-9.59-4.99-.93-.89-.14-.95-.15-1.55,1.99,1.22,4.02,2.35,6.07,3.44-1.13-.86-2.24-1.74-3.33-2.65,1.75,.66,5.35,3.28,6.27,2.72-2.87-1.05-6.21-3.12-9.36-5.29-3.16-2.16-6.13-4.41-8.58-5.61,1.76,1.79,4.37,3.51,6.69,5.32,.84,1.05,2.35,2.4,1.96,2.73-7.82-3.76-12.81-9.01-19.44-14.59-1.67-1.41-3.74-3.5-3.66-4.09,1.15,.85,.65-.18,1.66,.45-2.5-1.8-1.46,1.07-4.52-2.11l1.59-.85c-2.51,.11-3.7-3.95-6.75-5.2-.39-1.25,1.43-.21,3.24,1.38-1.83-2.06-2.67-1.48-4.29-2.89,.84,.06,1.68,.14,2.51,.23-2.65-.48-2.99-2.89-3.79-4.08-.34,.2-.04,1.79-2.31,.02-.91-.86-.18-.8-.3-1.14-.34,.21-1.55,.14-3.18-.75-.06-.6,1.46-.02,1.83-.35-1.26-.75-2.34-1.22-3.12-2.05-2.53-.68-.15,.69-1.78,.56-1.71-.86-1.7-1.26-1.33-1.68,.36-.41,1.09-.79,.52-1.54,1.65,.16,3.43,.74,4.99,1.33,1.54,.63,2.85,1.29,3.67,1.61-1.78-1.03-3.64-1.96-5.6-2.71,.3-.18-.59-.84-1.16-1.34-.6-.46-.84-.85,.9-.45-2.93-1.56-6.84-2.4-10.59-2.18-3.76,.23-7.21,1.37-9.95,2.65,.88-.1,1.96-.34,1.9,.06-2.81,1.31-2.69,.6-3.46,.44-.99,.62-1.29,1.16-1.48,1.68-.18,.52-.25,1.03-.68,1.65-1.09,.32-1.91,.66-2.62,.94-.69,.3-1.24,.58-1.79,.84-1.1,.5-2.09,.98-4.03,1.56l.75,.68c-1.32,.45-1.84,1.05-2.37,1.67-.51,.64-1.01,1.32-2.33,1.96-.26-.07,.46-.94,1.02-1.66-1.83,1.81-2.38,.79-4.08,2.66l.84-2.11c-1.55,1.28-3.54,3.44-3.37,2.06-.97,1.56-2.64,3.27-4.4,5.03-1.7,1.7-3.52,3.43-4.87,5.05l-.36-.82c-.91,2.24-6,5.12-6.66,7.25l-.47-.07c-.87,1.18-1.73,2.4-2.63,3.56-1.6,1.11-1.86-.32-1.76,.06-3.22,2.74-5.91,4.67-8.4,5.73,.07,1.33-3.54,3.96-6.65,5.5-3.83,1.57-7.92,2.75-11.63,2.27-1.85-.23-3.57-.94-5.18-2.03-1.61-1.11-3.11-2.57-4.62-4.15-1.52-1.57-3.08-3.27-4.98-4.73-1.88-1.46-4.28-2.58-6.72-2.71-1.21-.09-2.4,.04-3.51,.3-1.12,.24-2.16,.64-3.17,1.07-1.99,.9-3.77,2.02-5.43,3.22-2.09,1.31-4.05,4.3-6,6.6,1.52-1.02,2.26-1.68,2.99-2.35,.73-.68,1.44-1.36,2.94-2.33,2.42-1.15,3.88-.61,6.03-.75-.44-.17-.9-.3-1.37-.44,.68-.55,1.18-.81,1.57-.96,.38-.16,.65-.18,.89-.2,.49-.05,.85-.11,1.98-.81l.16,1.56c.31-.46,1.01-.6,1.64-.46,.64,.11,1.16,.5,1.42,.76,.27-.28,.58-.58,.92-.84,1.32,1.14,2.02,2.18,1.81,3.26l.51-.87c.03,.24,.39,.64,.87,1.17,.48,.55,1.09,1.23,1.63,1.9,1.06,1.36,1.84,2.59,.25,2.07,.63,.37,1.42,.51,2.47,1.77l-.53,.87c.95,.79,2.03,1.65,2.97,2.39,.95,.74,1.73,1.36,1.95,1.82-1.46-.65-2.1-.65-2.79-.62,2.41,1.95,4.33,2.6,5.42,2.72,1.1,.15,1.53-.21,1.89-.51,.36-.33,.67-.66,1.51-.81,.83-.13,2.2-.06,4.63-.1l-.1,.64c.85-.23,1.64-.53,2.4-.86l1.3,.21,1.3,.14c1.4-1.43,4.3-2.3,7.33-3.54,3.02-1.23,6.17-2.73,7.95-4.58,1.54-1.2,4.43-1.57,7.34-3.91l-.78-.65c1.51-.47,4.54-2.29,7.61-4.05,3.06-1.77,6.15-3.48,7.96-3.53,1.59-2.43-.35,.04-.83-.59,3.41-4.37,4.69-3.48,7.2-4.98,1.04-1.27,.51-.92-.17-.48-.7,.47-1.57,1.05-1.15,.17,1.09-.74,1.71-1.28,2.18-1.79,.47-.51,.76-.98,1.07-1.48,.64-.96,1.38-2.09,3.89-3.72,.81,.06-.95,1.25-1.17,1.95,2.52-3.51,9.09-7.82,14.1-10.45,3.06-1.13,6.78-2.21,10.08-1.94,3.29,.18,6.38,1.69,9.15,3.93l.3-.23c1.97,2.31,5.2,3.82,7.92,6.83l-1.11-1.68Z"/>
          <path class="uuid-9fa3daf6-f486-49c4-bce9-90863889f9bd" d="M181.48,45.31l-.17-1.06c-1.21-.5-2.44-.98-3.64-1.53,.98,1.43,2.01,1.33,3.8,2.59Z"/>
          <path class="uuid-9fa3daf6-f486-49c4-bce9-90863889f9bd" d="M179.46,47.11c.66,.25,1.35,.46,2.02,.69-1-.52-1.98-1.07-2.96-1.63l.94,.95Z"/>
          <path class="uuid-9fa3daf6-f486-49c4-bce9-90863889f9bd" d="M141.24,14.08l.3,.44c2.07,1.52,4.09,3.09,6.1,4.66-2.1-1.73-4.22-3.45-6.4-5.11Z"/>
          <path class="uuid-9fa3daf6-f486-49c4-bce9-90863889f9bd" d="M92.62,11.66c.45-.91,1.6-1.55,2.21-2.34-.94,.83-1.83,1.7-2.72,2.57l.51-.22Z"/>
          <path class="uuid-9fa3daf6-f486-49c4-bce9-90863889f9bd" d="M64.41,31.2c-.09,1.99-2.04,1.55,.16,1.6,1.46-1.45-.31-.84-.16-1.6Z"/>
          <path class="uuid-9fa3daf6-f486-49c4-bce9-90863889f9bd" d="M59.58,37.47c.98-.62,1.38-1.19,1.77-1.74-1.64,.33-1.23,1.01-1.77,1.74Z"/>
        </g>
        <polygon class="uuid-9fa3daf6-f486-49c4-bce9-90863889f9bd" points="253.47 64.47 237.53 70.33 241.48 64.04 237.98 57.49 253.47 64.47"/>
      </g>
      <g>
        <g>
          <path class="uuid-9fa3daf6-f486-49c4-bce9-90863889f9bd" d="M700.26,63.65c-1.3,.24,.36,.79,1.73,1.31l1.39-1.13-3.12-.18Z"/>
          <path class="uuid-9fa3daf6-f486-49c4-bce9-90863889f9bd" d="M707.2,64.68c1.23-.3,2.45-.47,3.7-.71l-2.64,.19c-2.74-1.01,.57-1.32,1.69-1.33-2.36-.25-2.84,.14-2.83,.56,0,.44,.49,.98,.07,1.3Z"/>
          <path class="uuid-9fa3daf6-f486-49c4-bce9-90863889f9bd" d="M714.24,64.9c2.21,.56,1.78-.39,.89-.84-.23,.32-1.78,.39-.89,.84Z"/>
          <path class="uuid-9fa3daf6-f486-49c4-bce9-90863889f9bd" d="M830.86,22.37c-.58,.25-1.21,.62-1.28,.38-.37,.62-.34,.86,1.28-.38Z"/>
          <path class="uuid-9fa3daf6-f486-49c4-bce9-90863889f9bd" d="M829.58,22.75c.07-.12,.15-.24,.25-.39-.09,.1-.18,.18-.28,.31-.01,.05,.02,.05,.03,.08Z"/>
          <path class="uuid-9fa3daf6-f486-49c4-bce9-90863889f9bd" d="M792.69,51.41c-.98,2.27-2.09,3.14-3.36,4.98l-1.59,.27c-1.33,2.02-.05,1.36-.85,3.01-.5,.28-1.04,.73-1.58,1.25-.57,.48-1.14,1.03-1.68,1.57-1.05,1.13-2.05,2.01-2.45,2.32-.83,.06,.25-1.06,.32-1.48-1.83,1.94-1.09,2.64-3.83,4.47l-.19-.21c-2.9,2.65-6.88,4.58-11.32,5.24-2.21,.36-4.56,.35-6.92,.26-2.38-.17-4.78-.46-7.17-.83,.62,.2,.41,.38,.6,.64-4.99-.98-10.41-2.78-15.72-4.23-5.31-1.47-10.56-2.56-15-2.53,5.74,1.27,14.47,6.18,20.63,6.31,1.84,1.39,5.34,1.37,5.92,2.59,3.97,1.34,6.96,1.63,9.83,1.54,2.88-.11,5.64-.39,9.37-.94,1.1,0,.67,.59,1.07,1.02l-1.52,.38c-.51,.11-1.03,.17-1.55,.26-1.04,.2-2.09,.28-3.15,.35l1.94,.2,1.96,.05c-1.65,.72-5.82,.28-6.36,1.11,2.9-.32,6.59-.46,10.1-1.32,3.51-.81,6.7-2.42,8.51-4.12-1.03,.48-2.21,.95-3.39,1.56-1.24,.44-2.49,1.06-3.82,1.3-.61-.02-1.36,.06-1.96,0-.6-.07-1.04-.18-1.03-.44,3.51-1.35,6.47-2.71,9.38-4.36,2.91-1.62,5.7-3.68,8.37-6.42,1.36-1.34,3.2-3.2,3.78-3.1-.76,1.04,.2,.62-.36,1.55,.81-1.15,.53-1.51,.41-1.92-.06-.21-.08-.43,.1-.76,.18-.33,.54-.79,1.21-1.52l.95,1.52c-.16-1.21,.69-2.08,1.73-3.02,1.01-.96,2.16-2.05,2.62-3.5,1.18-.41,.33,1.34-1,3.14,1.78-1.83,1.14-2.59,2.37-4.19v2.4c.22-2.53,2.54-2.96,3.66-3.66-.2-.33-1.77-.06-.1-2.21,.84-.83,.78-.13,1.11-.23-.2-.33-.16-1.51,.87-2.98,.59,.02-.11,1.4,.22,1.79,.77-1.11,1.35-2.06,2.26-2.61,1.09-2.17-.66-.29-.22-1.79,2.47-2.75,1.58,.71,3.22,.24-1.09,2.62-3,5.63-3.56,7.06l2.81-4.52c.27,.59,2.92-2.28,1.71,.28,3.53-3.93,6.82-9.3,9.69-13.35-.61,.4-1.29,1.01-1.47,.67,1.41-2.18,1.77-1.49,2.42-1.61,.93-1.7,.07-2.17,.32-3.54,1.63-1.19,2.47-1.92,3.31-2.56,.82-.66,1.63-1.23,3.25-1.88l-.82-.59c2.24-1.02,1.55-2.32,3.87-3.52,.24,.08-.34,.89-.78,1.56,1.49-1.69,2.09-.66,3.56-2.24l-.68,1.89c.66-.52,1.43-1.21,2.02-1.62,.59-.41,1.02-.47,.93,.14,.44-.63,1.06-1.26,1.78-1.88,.71-.65,1.59-1.16,2.47-1.75,.87-.6,1.83-1.07,2.73-1.59,.45-.26,.89-.52,1.32-.78,.44-.23,.86-.47,1.25-.71l.1,.88c.33-.41,.9-.78,1.59-1.12,.68-.36,1.51-.57,2.31-.85,1.6-.58,3.22-.94,3.89-1.76l.35,.27c1.13-.72,2.34-1.22,3.55-1.83,1.74-.19,1.32,1.19,1.42,.81,.94-.14,1.83-.27,2.67-.39,.84-.12,1.65-.22,2.42-.22,1.54-.02,2.9-.02,4.13,.24,.31-.56,1.49-.89,3.01-1.08,.38-.05,.78-.09,1.19-.12,.41,0,.84,0,1.27,0,.86,.01,1.73,.04,2.55,.08,15.63,2.31,32.16,7.12,46.51,11.72,2.07,.86,5.41,.95,8.23,1.59-3.05-1.65-3.58-1.26-6.68-2.63-2.21-1.31-2.65-2.71-4.42-4.24l.67,1.32c-3.5-.58-2.02-1.39-4.92-1.5l.67-1.42c-1.2,.41-3.24-1.05-4.04-1.78l-1.22,.7c-1.84-1.34-3.13-2.01-3.45-3.15l-.12,1c-.29-.43-2.31-1.07-3.88-1.7-1.56-.65-2.74-1.18-1.21-1.63-.69,.03-1.4,.36-2.72-.14l.07-1.01c-2.03-.34-4.27-.77-4.72-1.42,1.14,.04,1.62-.3,2.09-.61-4.23-1.16-4.88-.47-5.39,.27-.52,.77-.9,1.46-4.65,.79l.21-.61-2.03,.29c-.62-.39-1.23-.82-1.86-1.17-.78,.44-1.82,.55-3.03,.48-1.21-.08-2.58-.34-4.04-.54-1.45-.2-2.95-.53-4.41-.59-1.46-.07-2.84-.05-4.01,.2-.92,.08-1.98-.14-3.27-.39-.65-.12-1.35-.26-2.11-.3-.76-.03-1.59,0-2.47,.12l.33,.96c-1.46-.4-4.87-.38-8.33-.16-1.75,.11-3.49,.22-5.01,.31-1.53,.07-2.86,0-3.71-.25-2.38,1.77,.36,.08,.57,.84-1.19,.75-2.13,1.23-2.92,1.54-.79,.32-1.41,.53-2,.62-1.16,.22-2.19,.04-3.59,.52-2.74,2.12,2.46-.96,1.2,.6-2.42,.97-3.23,1.71-4.04,2.65-.81,.95-1.81,1.85-4.47,3.5-.83-.07,1.07-1.28,1.38-1.97-.75,.87-1.74,1.8-2.88,2.77-1.07,1.03-2.35,2.07-3.6,3.21-1.24,1.14-2.57,2.31-3.76,3.54-1.24,1.2-2.39,2.45-3.42,3.65-2.69,2.45-5.77,5.72-8.74,9.16-2.99,3.43-5.96,7-8.71,10.01l.2,.33c-1.36,1.08-2.4,2.49-3.43,3.97-.51,.74-1.03,1.51-1.57,2.26-.53,.7-1.1,1.4-1.74,2.06l1.51-1.1Z"/>
          <path class="uuid-9fa3daf6-f486-49c4-bce9-90863889f9bd" d="M758.14,79.93c.19,.3,.38,.62,.58,.91,1.34-.11,2.65-.14,3.98-.37-.8-.33-1.39-.37-2.06-.39-.67-.02-1.44,.07-2.5-.15Z"/>
          <path class="uuid-9fa3daf6-f486-49c4-bce9-90863889f9bd" d="M759.21,77.46c-.65,.08-1.3,.1-1.96,.15l1.56,.18,1.56,.08-1.16-.42Z"/>
          <path class="uuid-9fa3daf6-f486-49c4-bce9-90863889f9bd" d="M798.86,56.66l-.4,.3c-.64,1-1.24,2.04-1.91,3.03l-2.05,2.95,2.26-3.1,2.1-3.18Z"/>
          <path class="uuid-9fa3daf6-f486-49c4-bce9-90863889f9bd" d="M831.22,23.18c-.29,.84-1.27,1.36-1.64,2.13,.66-.81,1.38-1.54,2.07-2.32l-.43,.19Z"/>
          <path class="uuid-9fa3daf6-f486-49c4-bce9-90863889f9bd" d="M858.21,14.58c.42-.86,.98-.92,1.22-.91,.23,0,.15,.04-.68-.57-1.7,.55-.11,.89-.53,1.47Z"/>
          <path class="uuid-9fa3daf6-f486-49c4-bce9-90863889f9bd" d="M864.64,11.81c-1.05,0-1.62,.21-2.17,.49,1.4,.6,1.41-.15,2.17-.49Z"/>
        </g>
        <polygon class="uuid-9fa3daf6-f486-49c4-bce9-90863889f9bd" points="689.12 63.42 704.81 56.94 701.11 63.38 704.87 69.78 689.12 63.42"/>
      </g>
    </g>
  </g>
</svg>