<?xml version="1.0" encoding="UTF-8"?>
<svg id="uuid-671eddf6-9eb1-456f-873a-1929dd25005f" data-name="Layer 2" xmlns="http://www.w3.org/2000/svg" viewBox="0 0 433.22 230.9">
  <defs>
    <style>
      .uuid-c0c0ac6f-5972-40cf-8afc-aa607cd94375 {
        fill: #654998;
      }
    </style>
  </defs>
  <g id="uuid-c96726dc-d782-4d33-baf1-1fb028c54e26" data-name="Layer 1">
    <g>
      <g>
        <path class="uuid-c0c0ac6f-5972-40cf-8afc-aa607cd94375" d="M301.74,222.71c-1.51,2.31-1.1,2.08,.18,.68,1.28-1.42,3.46-4.09,5.13-6.82,.27-.95,.51-1.9,.75-2.85,.19-.97,.41-1.9,.55-2.86-1.64,4.23-3.96,8.17-6.61,11.84Z"/>
        <path class="uuid-c0c0ac6f-5972-40cf-8afc-aa607cd94375" d="M311.44,194.22c-.77-5.16-2.61-10.02-5.12-14.4,1.71,3.21,3.09,6.63,3.94,10.23,.38,3.05,.2,4.49,.07,4.84-.15,.35-.32-.36-.57-1.57-.27-1.21-.63-2.91-1.12-4.55-.24-.82-.48-1.63-.76-2.35-.25-.73-.49-1.39-.72-1.9,1.64,4.56,1.99,7.42,2.36,9.01,.27,1.6,.49,1.98,.7,1.83,.42-.28,.76-2.73,1.21-1.14Z"/>
        <path class="uuid-c0c0ac6f-5972-40cf-8afc-aa607cd94375" d="M298.79,167.24c-1.49-1.93-2.62-3.16-3.37-3.89-.75-.74-1.12-1-1.22-.93-.19,.14,.76,1.57,1.97,3.2,.72,.21,4.94,5,2.62,1.62Z"/>
        <path class="uuid-c0c0ac6f-5972-40cf-8afc-aa607cd94375" d="M411.6,71.76c-2.61,.98-5.67,2.14-5.34,1.75-1.38,.71-2.21,1.17-1.6,1.02,.6-.16,2.64-.9,6.94-2.77Z"/>
        <path class="uuid-c0c0ac6f-5972-40cf-8afc-aa607cd94375" d="M406.27,73.51c.53-.27,1.1-.57,1.78-.92-.57,.26-1.04,.49-1.69,.79-.16,.1-.05,.08-.09,.13Z"/>
        <path class="uuid-c0c0ac6f-5972-40cf-8afc-aa607cd94375" d="M213.03,105.43c-10.82,.91-16.91,.48-27.13,.38-1.89-.43-3.77-.85-5.64-1.32-5.52-.16-6.74-.07-7.6,.1-.86,.16-1.34,.43-5.37,.3-4.99-.8-12.75-1.77-19.8-2.93-7.06-1.12-13.39-2.45-15.7-3.03-3.09-1.23,4.14,.32,5.77,.33-6.31-1.2-9.27-1.63-12.6-2.24-3.32-.64-7.05-1.36-14.58-3.99l-.16-.35c-4.54-1.42-9.17-3.1-13.82-5.04-1.17-.47-2.32-1-3.49-1.51-.84-.38-1.68-.76-2.53-1.14-.44-.2-.88-.39-1.33-.59-.36-.16-.72-.34-1.1-.52-.75-.37-1.54-.79-2.3-1.32-.37-.27-.76-.56-1.03-.95-.14-.19-.23-.43-.15-.64,.08-.21,.27-.33,.45-.42,.77-.32,1.65-.34,2.53-.36,.89,0,1.82,.05,2.78,.13,.52,.05,.8,.07,1.82,.2l1.81,.25,2.08,.3c2.77,.42,5.56,.89,8.34,1.39,5.56,1.02,11.12,2.17,16.64,3.42,11.04,2.49,21.9,5.32,32.35,8.23-2.8-.9-2.03-.89-3.06-1.41,22.03,6.32,45.38,14.5,67.01,23.64,21.65,9.1,41.49,19.25,56.87,28.95-10.07-7.23-24.31-16.11-39.37-23.64-15.02-7.59-30.73-13.95-42.92-17.55-4.26-2-9.9-3.95-14.9-5.63-5-1.68-9.36-3.1-11.06-4.2-17.17-5.76-29.59-8.75-41.86-11.33-6.15-1.26-12.27-2.42-18.99-3.53-3.36-.56-6.87-1.11-10.62-1.61-.87-.11-1.74-.23-2.64-.34-.74-.09-1.49-.17-2.25-.26-1.47-.16-2.98-.3-4.56-.4-1.91-.22-2.68-.4-3.17-.65-.49-.24-.66-.53-1.69-.81,3.93-.05,7.92,.3,12.17,.8,4.47,.54,9.08,1.25,13.59,2.04-5.47-1.2-11-2.28-16.53-3.09,3.61,.19,9.85,1.11,15.37,2.08,5.53,.95,10.39,1.89,11.48,1.65-5.97-1.03-12.81-2.27-20.09-3.32-3.55-.51-7.64-1.03-11.55-1.32-1.97-.15-3.92-.23-5.85-.22-1.92,.02-3.82,.1-5.67,.45-.92,.19-1.85,.41-2.66,.91-.4,.25-.76,.59-.96,1.03-.16,.46-.11,.96,.05,1.4,.34,.89,1,1.6,1.66,2.26,.66,.66,1.4,1.25,2.13,1.82,2.98,2.24,6.33,4.02,9.47,5.7,3.19,1.63,6.17,3.06,9.05,4.27,2.86,1.23,5.59,2.25,8.07,3.11-2.26-1-4.66-2.06-7.13-3.21-2.49-1.17-4.98-2.36-7.36-3.6-1.19-.61-2.39-1.24-3.59-1.91-1.2-.65-2.41-1.33-3.59-2.05-1.19-.71-2.34-1.48-3.44-2.29-1.09-.82-2.16-1.7-2.93-2.8-.22-.45-.47-1.02-.29-1.64,.18-.64,.86-1.08,1.54-1.31,1.4-.48,2.89-.53,4.16-.55,2.58,.02,4.38,.32,4.55,.59-1.51,.07-2.95,.21-4.31,.56-.66,.2-1.35,.42-1.84,.95-.26,.25-.38,.64-.32,1.03,.05,.39,.28,.74,.5,1.06,1,1.26,2.34,2.12,3.58,2.95,1.26,.81,2.52,1.51,3.76,2.18,1.24,.65,2.45,1.29,3.65,1.88l.89,.45,1.08,.52,2.23,1.06c3.45,1.63,6.95,3.12,10.48,4.55,14.14,5.64,29.05,9.81,45.88,12.44,8.43,1.39,19.96,2.66,21.32,3.23-5.61-.37-1.43,.45-6.05,.2,6.06,.45,6.4-.02,7.41-.28,1.01-.31,2.67-.36,11.39,.24l-2.34,1.58c3.54-.68,8.88-.35,14.94-.07,6.05,.29,12.82,.5,19.05-.22,4.52,.52-3.76,1.31-13.4,1.32,5.47,.17,8.45-.09,11.15-.35,2.7-.29,5.11-.59,9.47-.78-2.73,.62-5.47,1.21-8.22,1.77,9.25-1.65,16.68-.49,22-.43,.3-.2-.8-.49-.51-.82,.29-.34,1.96-.7,7.77-1.19,5.01-.28,2.49,.32,3.68,.41,.6-.43,4.72-1.46,12.36-2.46,1.46,.32-4.99,1.35-5.44,1.9,5.78-.69,10.47-1.41,14.71-1.61,10.13-1.9-.76-.59,5.39-2.04,15.65-2.15,1.82,1.44,7.74,1.53-5.83,1.32-12.56,2.56-18.63,3.55-6.07,.99-11.48,1.74-14.65,2.25,7.61-.91,15.2-2.01,22.75-3.24-1.3,.8,15.52-1.4,3.6,1.02,11.38-1.46,23.85-3.78,36.07-6.57,12.23-2.79,24.21-6.06,34.74-9.2-3.05,.64-6.95,1.54-6.41,1.03,10.87-3.28,9.83-2.31,12.19-2.53,7.97-2.71,6.78-3.42,11.49-5.61,8.39-2.15,13.09-3.66,17.51-5.03,4.41-1.39,8.52-2.63,15.65-4.69l-1.2-.6c5.03-1.49,7.76-2.78,10.55-4.14,2.79-1.38,5.65-2.81,10.91-4.93,.66-.07-3.17,2-6.28,3.58,4.54-2.15,6.72-2.96,8.88-3.77,2.15-.86,4.29-1.59,8.59-4.36-2.13,1.72-4.3,3.28-6.5,4.79,1.78-.9,3.74-1.95,5.65-3.07,1.92-1.15,3.73-2.28,5.38-3.64,.2-.15,.42-.36,.62-.54,.1-.09,.2-.19,.3-.28,.11-.11,.22-.23,.32-.34,.1-.11,.21-.22,.31-.33,.11-.14,.23-.29,.34-.43,.11-.15,.21-.29,.31-.43,.13-.2,.25-.42,.35-.63l.15-.31,.07-.15,.08-.24c.11-.33,.19-.66,.25-.98,.06-.26,.08-.78,.04-1.21-.04-.44-.11-.86-.26-1.25-.15-.39-.34-.77-.55-1.1-.11-.17-.22-.32-.33-.47-.1-.12-.18-.2-.27-.3-.35-.36-.75-.68-1.05-.88-.44-.28-.8-.45-1-.57-.22-.12-.21-.14-.15-.17,.07-.02,.37,.04,.81,.2,.11,.04,.24,.09,.37,.15,.07,.03,.14,.06,.21,.1,.11,.07,.22,.13,.33,.2,.23,.15,.47,.33,.71,.53,.12,.1,.24,.21,.36,.33,.13,.13,.3,.35,.44,.54-.91-1.28-1.99-1.8-2.59-2.05-.18-.07-.37-.15-.54-.21l-.38-.1c-.25-.06-.52-.12-.77-.17-.38-.04-.82-.1-1.17-.11-.33,0-.68-.01-1,0-1.25,.04-2.32,.19-3.43,.35-2.17,.34-4.32,.8-6.53,1.31-1.1,.24-2.25,.55-3.33,.78-1.09,.23-2.2,.47-3.32,.71-2.25,.47-4.56,.95-6.89,1.44-.58,.12-1.17,.25-1.76,.35l-1.78,.26-3.56,.53c-2.38,.34-4.74,.73-7.08,1.03-2.34,.23-4.65,.46-6.88,.68-2.24,.22-4.39,.53-6.46,.61l1.05-.88c-2.12,.31-5.15,.52-8.61,.68-1.73,.12-3.57,.07-5.46,.02-1.89-.05-3.83-.09-5.76-.14-7.72-.34-15.27-1.01-19.04-.93l-1.21-.5-4.28-.24-4.27-.42-4.28-.42c-1.43-.14-2.86-.27-4.28-.48-7.61-1.67-4.75-2.4-5.44-2.17-16.72-3.33-29.63-7.16-40.04-10.78-1.49,.12-6.58-1.02-13-2.88-6.42-1.81-14.17-4.28-21.04-6.47-16.42-5.63-33.24-11.23-50.4-16.08-17.15-4.86-34.63-8.95-52.16-11.9C119.6,2.88,102.05,1.08,84.85,.32c-17.21-.71-34.03-.17-50.15,.92-4.82,.37-10.54,1.09-16.53,1.92C12.2,4.2,5.95,5.33,0,6.25c14.69-1.26,16-2.2,30.48-3.13,2.72-.1,5.02-.2,7.08-.08,2.06,.1,3.88,.23,5.65,.39,3.54,.33,6.89,.62,11.56,.94-1.58-.36-3.17-.58-4.76-.86,3.66-.36,6.13-.35,7.95-.36,1.82,0,2.99,.07,4.06,.12,1.07,.06,2.05,.11,3.48,.08,.72-.01,1.55-.04,2.56-.1,1.02-.07,2.22-.14,3.67-.18l-.52,1.54c2.04-.32,5.62-.21,9.21,.05,1.79,.13,3.59,.3,5.19,.47,1.6,.23,3.02,.46,4.06,.64l3.86-.79c2.29,.32,4.38,.62,6.27,.88,1.89,.26,3.56,.62,5.05,.9,2.96,.6,5.11,1.15,6.45,1.79l-.78-1.08c.84,.28,3.47,.56,6.75,1.09,3.27,.52,7.2,1.14,10.69,1.69,6.95,1.24,12.06,2.49,6.55,2.33,2.65,.28,5.16,.12,10.88,1.39l.67,1.15c4.14,.76,8.54,1.51,12.15,2.35,3.61,.85,6.47,1.63,7.59,2.18-4.49-.83-6.08-.77-7.64-.69,4.32,1.05,7.68,1.82,10.32,2.37,2.64,.58,4.55,.99,5.97,1.21,2.85,.45,3.74,.26,4.52,.03,.77-.23,1.43-.51,3.81-.2,2.36,.35,6.46,1.23,14.08,3.46l-.54,.51,7.91,1.7c2.62,1.06,5.22,2.19,7.83,3.3,5.8,.67,16.4,4.19,27.89,8.2,11.49,3.99,23.91,8.4,33.34,10.66,3.65,1.05,7.82,2.51,12.8,4.28,5.02,1.63,10.86,3.6,17.97,5.16l-.69-1.18c5.54,1.96,19.04,5.27,32.72,7.55,1.71,.29,3.42,.57,5.12,.85,1.69,.3,3.39,.44,5.04,.68,1.66,.22,3.28,.43,4.86,.63,1.58,.22,3.11,.43,4.58,.54,5.88,.55,10.75,1.21,13.56,1.61,11.24-1.06-1.19-.17-.95-.96,21.82-1.65,23.37-1.06,34.91-1.92,6.6-1.53,4.04-1.13,.72-.61-3.34,.43-7.47,.77-3.93-.07,1.28-.14,2.48-.23,3.58-.41,1.09-.19,2.11-.37,3.05-.54,1.89-.35,3.5-.67,4.93-.99,1.43-.31,2.69-.62,3.88-.92,1.18-.3,2.17-.62,3.26-.91,1.07-.3,2.17-.58,3.37-.84,1.18-.25,2.55-.49,3.76-.56,.14,0,.28-.01,.42-.02,.1,0,.2,0,.3,0,.03,0,.02,0,.04,0h0s.08-.4,.08-.4l.1-.47,.05-.37c.08-.5,.22-.99,.41-1.48,.13-.42,.21-.72,.44-1.06,.14-.19,.12-.24,.2-.34,.06-.09,.15-.17,.25-.24,0-.02,.03-.04,.06-.06,.01,0,.05-.02,.05-.02-.03,.01-.06,.02-.08,.02-.06,0-.07,0-.16-.01-.14,0-.27-.02-.39-.07-.06-.02-.12-.05-.17-.08-.06-.03-.19-.07-.28-.1-.2-.08-.39-.18-.57-.29-.09-.06-.17-.12-.26-.18-.09-.07-.25-.15-.37-.22-.25-.16-.49-.33-.73-.51-.24-.19-.44-.37-.68-.59l-.39-.31h-.01s0,.02-.05,.06l-.15,.13c-.45,.4-1.33,1.02-2.32,1.62-1.01,.61-2.17,1.25-3.47,1.91-1.16,.3,.16-.49,1.87-1.57,.84-.54,1.79-1.16,2.48-1.72,.34-.27,.63-.53,.81-.72,.11-.11,.12-.16,.18-.23,.03-.04,.04-.06,.02-.06h-.01s0-.01,0-.01l.12,.11,.25,.22-.37-.33h0s.01,0,0,.02l-.1,.12c-.04,.07-.2,.21-.31,.32-.27,.25-.61,.53-1,.83-.78,.59-1.72,1.22-2.73,1.84-2.05,1.26-4.41,2.54-6.96,3.81-5.12,2.55-11.01,5.08-17.22,7.53-12.44,4.91-26.21,9.44-38.49,13.27-14.18,3.96-31.86,8.44-50.32,12.14-18.46,3.72-37.69,6.6-54.74,8.1l-.59,.43c-14.22,.69-29.52,2.72-46.1,2.48,2.7,.15,5.4,.27,8.11,.36Z"/>
        <path class="uuid-c0c0ac6f-5972-40cf-8afc-aa607cd94375" d="M123.96,79.49l-2.51-1.46c-5.25-1.03-10.51-1.97-15.8-2.78,6.25,1.92,9.65,2.02,18.31,4.24Z"/>
        <path class="uuid-c0c0ac6f-5972-40cf-8afc-aa607cd94375" d="M120.03,81.2c2.73,.5,5.46,1.02,8.19,1.57-4.36-1.07-8.74-2.09-13.14-3.02l4.95,1.46Z"/>
        <path class="uuid-c0c0ac6f-5972-40cf-8afc-aa607cd94375" d="M211.22,113.58l-2.07-.09c-10.13,.45-20.29,.53-30.45,.15,10.85,.47,21.7,.41,32.52-.06Z"/>
        <path class="uuid-c0c0ac6f-5972-40cf-8afc-aa607cd94375" d="M410.91,73.01c-3.05,1.84-7.8,3.62-11.09,5.24,4.38-1.89,8.74-3.86,13.06-5.97l-1.97,.73Z"/>
        <path class="uuid-c0c0ac6f-5972-40cf-8afc-aa607cd94375" d="M318.22,50.49c-5.44,.43-10.23-2.12-3.68,.64,8.17,1.42,1.25-.62,3.68-.64Z"/>
        <path class="uuid-c0c0ac6f-5972-40cf-8afc-aa607cd94375" d="M287.32,45.21c4.63,1.36,7.28,1.79,9.88,2.27-5.95-2.32-6.37-1.57-9.88-2.27Z"/>
      </g>
      <polygon class="uuid-c0c0ac6f-5972-40cf-8afc-aa607cd94375" points="294.11 230.9 299.42 214.77 301.89 221.78 309.2 223.11 294.11 230.9"/>
    </g>
  </g>
</svg>