<?xml version="1.0" encoding="UTF-8"?>
<svg id="uuid-b7b6ed33-d4fb-4de9-bad6-23cdfdc58b1f" data-name="Layer 2" xmlns="http://www.w3.org/2000/svg" viewBox="0 0 930.37 90.37">
  <defs>
    <style>
      .uuid-e3f643c0-d8a8-48fa-b9e9-0ca6eaa7b4fe {
        fill: #654998;
      }
    </style>
  </defs>
  <g id="uuid-b7e71af4-3657-44bf-9c48-98c04dbddeab" data-name="Layer 1">
    <g>
      <g>
        <g>
          <path class="uuid-e3f643c0-d8a8-48fa-b9e9-0ca6eaa7b4fe" d="M242.34,63.76c1.4-.23-.39-.79-1.89-1.3l-1.48,1.13,3.38,.17Z"/>
          <path class="uuid-e3f643c0-d8a8-48fa-b9e9-0ca6eaa7b4fe" d="M234.8,62.81c-1.31,.3-2.62,.61-3.94,.86,.94-.08,1.88-.19,2.82-.31,3,.94-.54,1.32-1.74,1.42,5.07,.19,1.98-1.34,2.86-1.98Z"/>
          <path class="uuid-e3f643c0-d8a8-48fa-b9e9-0ca6eaa7b4fe" d="M227.21,62.93c-2.42-.47-1.87,.46-.88,.88,.22-.33,1.86-.47,.88-.88Z"/>
          <path class="uuid-e3f643c0-d8a8-48fa-b9e9-0ca6eaa7b4fe" d="M92.91,12.51c.67-.29,1.41-.71,1.45-.45,.48-.67,.5-.94-1.45,.45Z"/>
          <path class="uuid-e3f643c0-d8a8-48fa-b9e9-0ca6eaa7b4fe" d="M94.36,12.06c-.1,.13-.2,.26-.32,.42,.12-.11,.22-.2,.34-.34,.02-.05-.02-.06-.02-.09Z"/>
          <path class="uuid-e3f643c0-d8a8-48fa-b9e9-0ca6eaa7b4fe" d="M135.53,19.84c2.36,1.24,3.2,2.57,5.25,4.13l.33,1.74c2.27,1.69,1.5,.22,3.36,1.24,1.41,2.26,5.88,5.62,6.79,6.49,.33,.94-1.26-.24-1.76-.32,2.76,2.04,3.23,1.16,6.45,3.94l-.13,.26c4.34,2.77,9.06,6.15,14.11,9.32,2.52,1.6,5.14,3.1,7.76,4.51,2.65,1.36,5.32,2.64,7.98,3.65-.67-.38-.4-.49-.57-.81,5.44,2.46,11.43,4.81,17.34,6.29,5.89,1.51,11.64,2.23,16.39,1.92-3.11-.5-7.18-1.72-11.22-3.05-4.04-1.31-8.07-2.59-11.4-2.93-1.95-1.51-5.74-1.99-6.21-3.37-4.06-2.11-7.05-3.29-10.02-4.51-2.96-1.24-5.92-2.48-9.59-4.99-.93-.89-.14-.95-.15-1.55,1.99,1.22,4.02,2.35,6.07,3.44-1.13-.86-2.24-1.74-3.33-2.65,1.75,.66,5.35,3.28,6.27,2.72-2.87-1.05-6.21-3.12-9.36-5.29-3.16-2.16-6.13-4.41-8.58-5.61,1.76,1.79,4.37,3.51,6.69,5.32,.84,1.05,2.35,2.4,1.96,2.73-7.82-3.76-12.81-9.01-19.44-14.59-1.67-1.41-3.74-3.5-3.66-4.09,1.15,.85,.65-.18,1.66,.45-2.5-1.8-1.46,1.07-4.52-2.11l1.59-.85c-2.51,.11-3.7-3.95-6.75-5.2-.39-1.25,1.43-.21,3.24,1.38-1.83-2.06-2.67-1.48-4.29-2.89,.84,.06,1.68,.14,2.51,.23-2.65-.48-2.99-2.89-3.79-4.08-.34,.2-.04,1.79-2.31,.02-.91-.86-.18-.8-.3-1.14-.34,.21-1.55,.14-3.18-.75-.06-.6,1.46-.02,1.83-.35-1.26-.75-2.34-1.22-3.12-2.05-2.53-.68-.15,.69-1.78,.56-1.71-.86-1.7-1.26-1.33-1.68,.36-.41,1.09-.79,.52-1.54,1.65,.16,3.43,.74,4.99,1.33,1.54,.63,2.85,1.29,3.67,1.61-1.78-1.03-3.64-1.96-5.6-2.71,.3-.18-.59-.84-1.16-1.34-.6-.46-.84-.85,.9-.45-2.93-1.56-6.84-2.4-10.59-2.18-3.76,.23-7.21,1.37-9.95,2.65,.88-.1,1.96-.34,1.9,.06-2.81,1.31-2.69,.6-3.46,.44-.99,.62-1.29,1.16-1.48,1.68-.18,.52-.25,1.03-.68,1.65-1.09,.32-1.91,.66-2.62,.94-.69,.3-1.24,.58-1.79,.84-1.1,.5-2.09,.98-4.03,1.56l.75,.68c-1.32,.45-1.84,1.05-2.37,1.67-.51,.64-1.01,1.32-2.33,1.96-.26-.07,.46-.94,1.02-1.66-1.83,1.81-2.38,.79-4.08,2.66l.84-2.11c-1.55,1.28-3.54,3.44-3.37,2.06-.97,1.56-2.64,3.27-4.4,5.03-1.7,1.7-3.52,3.43-4.87,5.05l-.36-.82c-.91,2.24-6,5.12-6.66,7.25l-.47-.07c-.87,1.18-1.73,2.4-2.63,3.56-1.6,1.11-1.86-.32-1.76,.06-3.22,2.74-5.91,4.67-8.4,5.73,.07,1.33-3.54,3.96-6.65,5.5-3.83,1.57-7.92,2.75-11.63,2.27-1.85-.23-3.57-.94-5.18-2.03-1.61-1.11-3.11-2.57-4.62-4.15-1.52-1.57-3.08-3.27-4.98-4.73-1.88-1.46-4.28-2.58-6.72-2.71-1.21-.09-2.4,.04-3.51,.3-1.12,.24-2.16,.64-3.17,1.07-1.99,.9-3.77,2.02-5.43,3.22-2.09,1.31-4.05,4.3-6,6.6,1.52-1.02,2.26-1.68,2.99-2.35,.73-.68,1.44-1.36,2.94-2.33,2.42-1.15,3.88-.61,6.03-.75-.44-.17-.9-.3-1.37-.44,.68-.55,1.18-.81,1.57-.96,.38-.16,.65-.18,.89-.2,.49-.05,.85-.11,1.98-.81l.16,1.56c.31-.46,1.01-.6,1.64-.46,.64,.11,1.16,.5,1.42,.76,.27-.28,.58-.58,.92-.84,1.32,1.14,2.02,2.18,1.81,3.26l.51-.87c.03,.24,.39,.64,.87,1.17,.48,.55,1.09,1.23,1.63,1.9,1.06,1.36,1.84,2.59,.25,2.07,.63,.37,1.42,.51,2.47,1.77l-.53,.87c.95,.79,2.03,1.65,2.97,2.39,.95,.74,1.73,1.36,1.95,1.82-1.46-.65-2.1-.65-2.79-.62,2.41,1.95,4.33,2.6,5.42,2.72,1.1,.15,1.53-.21,1.89-.51,.36-.33,.67-.66,1.51-.81,.83-.13,2.2-.06,4.63-.1l-.1,.64c.85-.23,1.64-.53,2.4-.86l1.3,.21,1.3,.14c1.4-1.43,4.3-2.3,7.33-3.54,3.02-1.23,6.17-2.73,7.95-4.58,1.54-1.2,4.43-1.57,7.34-3.91l-.78-.65c1.51-.47,4.54-2.29,7.61-4.05,3.06-1.77,6.15-3.48,7.96-3.53,1.59-2.43-.35,.04-.83-.59,3.41-4.37,4.69-3.48,7.2-4.98,1.04-1.27,.51-.92-.17-.48-.7,.47-1.57,1.05-1.15,.17,1.09-.74,1.71-1.28,2.18-1.79,.47-.51,.76-.98,1.07-1.48,.64-.96,1.38-2.09,3.89-3.72,.81,.06-.95,1.25-1.17,1.95,2.52-3.51,9.09-7.82,14.1-10.45,3.06-1.13,6.78-2.21,10.08-1.94,3.29,.18,6.38,1.69,9.15,3.93l.3-.23c1.97,2.31,5.2,3.82,7.92,6.83l-1.11-1.68Z"/>
          <path class="uuid-e3f643c0-d8a8-48fa-b9e9-0ca6eaa7b4fe" d="M181.48,45.31l-.17-1.06c-1.21-.5-2.44-.98-3.64-1.53,.98,1.43,2.01,1.33,3.8,2.59Z"/>
          <path class="uuid-e3f643c0-d8a8-48fa-b9e9-0ca6eaa7b4fe" d="M179.46,47.11c.66,.25,1.35,.46,2.02,.69-1-.52-1.98-1.07-2.96-1.63l.94,.95Z"/>
          <path class="uuid-e3f643c0-d8a8-48fa-b9e9-0ca6eaa7b4fe" d="M141.24,14.08l.3,.44c2.07,1.52,4.09,3.09,6.1,4.66-2.1-1.73-4.22-3.45-6.4-5.11Z"/>
          <path class="uuid-e3f643c0-d8a8-48fa-b9e9-0ca6eaa7b4fe" d="M92.62,11.66c.45-.91,1.6-1.55,2.21-2.34-.94,.83-1.83,1.7-2.72,2.57l.51-.22Z"/>
          <path class="uuid-e3f643c0-d8a8-48fa-b9e9-0ca6eaa7b4fe" d="M64.41,31.2c-.09,1.99-2.04,1.55,.16,1.6,1.46-1.45-.31-.84-.16-1.6Z"/>
          <path class="uuid-e3f643c0-d8a8-48fa-b9e9-0ca6eaa7b4fe" d="M59.58,37.47c.98-.62,1.38-1.19,1.77-1.74-1.64,.33-1.23,1.01-1.77,1.74Z"/>
        </g>
        <polygon class="uuid-e3f643c0-d8a8-48fa-b9e9-0ca6eaa7b4fe" points="253.47 64.47 237.53 70.33 241.48 64.04 237.98 57.49 253.47 64.47"/>
      </g>
      <g>
        <g>
          <path class="uuid-e3f643c0-d8a8-48fa-b9e9-0ca6eaa7b4fe" d="M700.24,63.89c-1.33,.17,.34,.8,1.7,1.4l1.48-1.05-3.17-.35Z"/>
          <path class="uuid-e3f643c0-d8a8-48fa-b9e9-0ca6eaa7b4fe" d="M707.24,65.38c1.26-.16,2.53-.23,3.83-.35l-2.7-.06c-1.33-.67-1.19-.93-.53-1.11,.65-.14,1.79-.08,2.37-.05-2.4-.49-2.92-.16-2.94,.27-.02,.44,.42,1.02-.03,1.3Z"/>
          <path class="uuid-e3f643c0-d8a8-48fa-b9e9-0ca6eaa7b4fe" d="M714.35,66.36c2.16,.88,1.84-.11,1-.72-.26,.26-1.86,.18-1,.72Z"/>
          <path class="uuid-e3f643c0-d8a8-48fa-b9e9-0ca6eaa7b4fe" d="M828.43,27.63c-.6,.25-1.25,.64-1.31,.39-.39,.64-.39,.88,1.31-.39Z"/>
          <path class="uuid-e3f643c0-d8a8-48fa-b9e9-0ca6eaa7b4fe" d="M827.12,28.02c.08-.12,.16-.25,.26-.4-.1,.11-.19,.19-.29,.32-.01,.05,.02,.05,.03,.08Z"/>
          <path class="uuid-e3f643c0-d8a8-48fa-b9e9-0ca6eaa7b4fe" d="M788.52,56.5c-1.04,2.48-2.23,3.45-3.47,5.58l-1.64,.49c-1.29,2.3,.02,1.42-.68,3.22-.96,.71-2.05,2.13-3.07,3.36-.49,.64-.95,1.25-1.34,1.75-.39,.49-.72,.85-.9,1.03-.85,.19,.15-1.1,.17-1.55-.84,1.12-1.05,1.82-1.36,2.57-.3,.77-.73,1.48-2.01,2.65l-.23-.17c-1.28,1.64-2.84,3.09-4.56,4.36-1.74,1.14-3.63,2.16-5.62,2.61-1.99,.46-4.07,.54-6.25,.25-2.18-.26-4.45-.96-6.7-1.71,.57,.32,.33,.45,.48,.74-4.7-1.84-9.71-4.85-14.73-7.45-5.02-2.61-10.12-4.76-14.62-5.49,2.79,1.13,6.18,3.33,9.57,5.48,3.39,2.15,6.84,4.23,9.89,4.97,1.55,1.78,5.03,2.49,5.37,3.8,3.7,2.14,6.7,2.86,9.56,3.06,2.88,.16,5.59-.09,9.18-1.01,1.09-.07,.73,.55,1.18,.92-1.97,.69-4.04,1.3-6.19,1.36,1.31,.2,2.63,.15,3.97,.12-.41,.18-.99,.3-1.63,.43-.32,.05-.66,.14-1,.16-.34,.02-.69,.04-1.03,.06-1.35,.14-2.55,.07-2.87,.52,.76-.06,1.56-.03,2.4-.15,.84-.09,1.71-.1,2.59-.3,.44-.07,.89-.14,1.34-.22,.45-.07,.89-.23,1.33-.34l1.34-.36,1.29-.51c.43-.17,.85-.34,1.28-.51,.4-.22,.8-.43,1.19-.65,.78-.42,1.54-.85,2.19-1.37,.66-.51,1.31-.97,1.84-1.49,.52-.54,.99-1.06,1.37-1.57-.99,.62-1.99,1.45-3.14,2.16-1.09,.8-2.34,1.44-3.58,2.02-1.24,.16-3.02,.53-3.04,0,3.29-1.78,5.99-3.7,8.64-5.94,2.61-2.24,5.22-4.67,7.57-7.88,1.24-1.54,2.9-3.69,3.51-3.64-.67,1.15,.26,.61-.22,1.61,1.41-2.53-1.23-1.27,1.41-4.47l1.06,1.45c-.47-2.41,3.28-3.94,4.19-6.98,1.19-.46,.34,1.37-.98,3.25,1.78-1.93,1.11-2.71,2.37-4.37v2.46c.2-2.61,2.57-3.05,3.7-3.77-.2-.33-1.79-.05-.06-2.24,.86-.85,.79-.14,1.12-.24-.2-.34-.12-1.53,.96-3.02,.59,.03-.15,1.42,.17,1.81,.81-1.12,1.42-2.08,2.35-2.63,1.19-2.18-.66-.3-.15-1.81,2.59-2.75,1.56,.75,3.23,.3-1.2,2.63-3.2,5.65-3.79,7.08l2.94-4.53c.26,.6,3.01-2.25,1.71,.32,3.67-3.89,7.25-9.18,10.38-13.17-.65,.37-1.35,.98-1.51,.63,1.54-2.16,1.88-1.44,2.54-1.54,1.05-1.66,.18-2.22,.53-3.57,3.45-2.23,3.56-2.95,6.88-4.31l-.8-.61c2.38-.9,1.67-2.34,4.11-3.46,.25,.09-.42,.85-.87,1.56,1.6-1.68,2.18-.6,3.72-2.24l-.75,1.93c.69-.53,1.49-1.27,2.12-1.66,.64-.39,1.06-.49,.96,.15,1.83-2.71,6.7-4.97,9.85-7.14l.13,.88c.68-.84,2.33-1.56,3.96-2.23,1.66-.59,3.27-1.21,3.9-2.07l.38,.26,3.5-2.16c1.78-.29,1.47,1.11,1.53,.73,1.89-.49,3.57-.97,5.14-1.11,.78-.1,1.52-.17,2.22-.21,.35-.02,.69-.04,1.03-.04,.34,.02,.66,.04,.98,.08,.26-.59,1.43-1.03,2.96-1.37,.76-.19,1.61-.29,2.49-.34,.87-.07,1.76-.11,2.6-.15,8.05,.46,16.34,1.64,24.46,3.36,8.12,1.71,16.05,3.91,23.41,6.18,2.11,.87,5.52,.97,8.41,1.62-3.13-1.67-3.67-1.28-6.85-2.67-2.28-1.31-2.76-2.7-4.61-4.23l.72,1.32c-3.59-.55-2.09-1.39-5.07-1.45l.64-1.43c-1.21,.43-3.35-.99-4.2-1.71l-1.21,.73c-1.93-1.32-3.3-1.9-3.68-3.05l-.07,1.01c-.32-.42-2.42-1-4.06-1.58-1.64-.57-2.88-1.05-1.34-1.57-.7,.06-1.41,.42-2.8-.02v-1.01c-1.05-.12-2.15-.26-3.06-.47-.92-.16-1.63-.38-1.88-.71,1.17-.03,1.64-.38,2.11-.74-4.44-.89-5.05-.18-5.52,.59-.48,.78-.81,1.52-4.7,1.12l.17-.62-2.05,.43c-.66-.35-1.33-.71-2.01-1.01-.76,.5-1.82,.69-3.06,.72-.62,.01-1.29-.02-1.99-.07-.7-.03-1.44-.07-2.18-.11-1.5-.07-3.06-.25-4.55-.18-1.49,.07-2.9,.23-4.06,.6-.93,.12-2.03,.05-3.36-.07-1.33-.11-2.9-.22-4.65,.25l.42,.92c-.75-.1-1.99-.08-3.48-.02-1.47,.14-3.19,.37-4.94,.56-1.73,.26-3.46,.55-4.99,.66-1.52,.16-2.82,.24-3.7-.02-2.31,1.82,.36,.07,.61,.81-2.34,1.51-3.64,2.13-4.82,2.33-1.17,.22-2.16,.11-3.55,.6-2.7,2.14,2.43-.98,1.21,.59-2.41,.99-3.2,1.74-4.01,2.67-.41,.46-.85,.94-1.54,1.49-.68,.55-1.63,1.15-2.97,1.97-.82-.07,1.06-1.3,1.42-1.94-1.54,1.7-4.04,3.63-6.65,5.84-2.63,2.18-5.37,4.62-7.59,6.96-2.82,2.39-6.15,5.56-9.34,8.99-3.21,3.41-6.42,7.01-9.29,10.11l.19,.34c-2.84,2.24-4.38,5.79-7.08,8.78l1.58-1.27Z"/>
          <path class="uuid-e3f643c0-d8a8-48fa-b9e9-0ca6eaa7b4fe" d="M755.9,89.38l.55,.97c.71,.04,1.44,0,2.14-.01,.71,.01,1.42-.08,2.12-.18-.43-.17-.79-.26-1.15-.31-.35-.07-.68-.11-1.04-.13-.71-.05-1.53,.02-2.62-.34Z"/>
          <path class="uuid-e3f643c0-d8a8-48fa-b9e9-0ca6eaa7b4fe" d="M757.19,87.03l-2-.03c1.05,.2,2.09,.45,3.15,.5-.39-.16-.78-.3-1.15-.48Z"/>
          <polygon class="uuid-e3f643c0-d8a8-48fa-b9e9-0ca6eaa7b4fe" points="794.76 61.67 794.37 61.99 790.68 68.24 794.76 61.67"/>
          <path class="uuid-e3f643c0-d8a8-48fa-b9e9-0ca6eaa7b4fe" d="M828.76,28.46c-.33,.85-1.32,1.42-1.76,2.17,.73-.78,1.45-1.58,2.21-2.34-.15,.06-.31,.11-.45,.18Z"/>
          <path class="uuid-e3f643c0-d8a8-48fa-b9e9-0ca6eaa7b4fe" d="M856.83,18.37c.78-1.7,2.25-.44,.44-1.48-1.74,.61-.05,.88-.44,1.48Z"/>
          <path class="uuid-e3f643c0-d8a8-48fa-b9e9-0ca6eaa7b4fe" d="M863.21,15c-1.07,.1-1.63,.4-2.17,.7,1.5,.48,1.42-.29,2.17-.7Z"/>
        </g>
        <polygon class="uuid-e3f643c0-d8a8-48fa-b9e9-0ca6eaa7b4fe" points="689.12 63.42 704.97 57.32 701.11 63.67 704.71 70.16 689.12 63.42"/>
      </g>
    </g>
  </g>
</svg>