<?xml version="1.0" encoding="UTF-8"?>
<svg id="uuid-86427215-f092-4bc8-beda-0ec738beb1b9" data-name="Layer 2" xmlns="http://www.w3.org/2000/svg" viewBox="0 0 378.95 210.16">
  <defs>
    <style>
      .uuid-fcbb0574-42a3-4421-847e-c608beab643e {
        fill: #654998;
      }
    </style>
  </defs>
  <g id="uuid-5d5e0b4e-37e5-4b6c-90ce-856ff1ace1cd" data-name="Layer 1">
    <g>
      <g>
        <path class="uuid-fcbb0574-42a3-4421-847e-c608beab643e" d="M368.01,204.31c3.01,.21-.79-.92-4.02-1.91l-3.22,.66,7.24,1.25Z"/>
        <path class="uuid-fcbb0574-42a3-4421-847e-c608beab643e" d="M351.86,200.91c-2.8-.13-5.6-.29-8.4-.46l6,.64c6.41,1.96-1.14,1.17-3.66,.85,10.78,1.92,4.2-.69,6.06-1.04Z"/>
        <path class="uuid-fcbb0574-42a3-4421-847e-c608beab643e" d="M335.67,198.4c-5.17-1.33-3.92-.17-1.79,.61,.43-.26,3.91,.16,1.79-.61Z"/>
        <path class="uuid-fcbb0574-42a3-4421-847e-c608beab643e" d="M72.79,134.56c1.34,.61,2.95,1.25,2.65,1.4,1.64,.27,2.02,.18-2.65-1.4Z"/>
        <path class="uuid-fcbb0574-42a3-4421-847e-c608beab643e" d="M75.44,135.96c-.31-.06-.65-.12-1.05-.19,.32,.08,.59,.15,.96,.24,.1,0,.06-.04,.09-.06Z"/>
        <path class="uuid-fcbb0574-42a3-4421-847e-c608beab643e" d="M182.67,142.25c1.37-.89,2.6-1.64,3.77-2.32,1.14-.74,2.2-1.4,3.27-2.05,1.08-.62,2.09-1.34,3.17-2.09,1.07-.76,2.23-1.52,3.39-2.55l3.38-1.33c2.45-2.36,2.84-3.04,3.07-3.55,.11-.26,.17-.49,.41-.87,.19-.38,.52-.91,1.2-1.79,.54-.43,1.13-.95,1.76-1.52l.21-.19,.04-.03,.08-.06c.05-.04,.11-.08,.16-.13,.21-.17,.37-.41,.54-.7,.33-.56,.71-1.42,.81-1.56-.08,.48-.24,1.02-.37,1.45-.13,.43-.23,.78-.3,1.12,.16-.52,.47-1.57,.85-2.71,.06-.17,.12-.34,.18-.53,.03-.1,.06-.16,.08-.16,.04-.01,.03,.2,.02,.69l-.21,.6c.12,.12,.26,.51,.48,1.07,.12,.32,.25,.64,.38,.96l.06,.13,.1,.3,.3,.9c.25,.77,.53,1.55,.82,2.31,2.31,6.14,5.7,11.99,9.76,17.26,8.16,10.58,18.83,18.85,29.41,24.96-1.38-.93-.9-.9-1.33-1.42,10.92,6.87,23.42,12.74,35.66,17.16,12.24,4.44,24.2,7.48,34.11,8.96-6.59-1.68-15.28-4.65-23.88-7.87-8.62-3.2-17.13-6.69-23.81-8.84-4.35-2.8-11.85-5.62-13.17-7.63-8.46-5.15-14.31-8.94-19.9-13.05-2.78-2.07-5.48-4.25-8.23-6.88-2.75-2.64-5.57-5.73-8.33-9.78-1.39-2.44-.21-1.58-.23-2.52,2.85,4.22,6.18,8.07,9.79,11.58-2.03-2.31-3.93-4.72-5.67-7.24,1.38,1.44,3.56,4.05,5.72,6.19,2.15,2.15,4.23,3.85,4.94,3.88-5.17-3.96-11.01-10.31-15.15-17.5-2.08-3.58-3.76-7.33-4.96-10.92-1.24-3.62-1.96-6.95-2.41-9.15,.11,2.67,.56,5.33,1.39,8.18,.86,3.03,2.11,6.14,3.48,9.04,.9,2.71,3.04,6.6,2.49,6.62-2.82-3.75-5.05-7.75-6.66-11.93-.2-.52-.39-1.05-.58-1.57l-.5-1.52-.34-1.13c-.09-.34-.18-.68-.26-1.02-.32-1.36-.53-2.72-.64-4.09-.11-1.37-.11-2.75,0-4.13,.06-.69,.14-1.38,.26-2.07,.06-.34,.12-.69,.2-1.03l.12-.51,.06-.25s.02-.08,.02-.13c-.03,0-.05,.06-.07,.09-1.28,2.61-2.83,5.26-4.56,7.86-.45,.64-.91,1.32-1.41,1.94-.52,.61-1.04,1.19-1.53,1.71-.12,.13-.25,.26-.36,.38-.19,.18-.38,.35-.56,.52-.36,.33-.7,.63-.99,.88-.59,.5-1.04,.81-1.26,.86,2.03-2.31,.13-.96,1.73-2.93-2.18,2.51-1.98,2.96-2.11,3.6-.05,.33-.21,.7-.84,1.39-.31,.35-.74,.78-1.32,1.33-.6,.54-1.31,1.24-2.33,1.97-.03-.71-.04-1.4-.1-2.11-.95,1.89-3.36,3.8-6.3,5.51-2.91,1.78-6.31,3.4-9.19,5.46-1.27,.28-.91-.21,.33-1.08,.62-.43,1.47-.96,2.45-1.54,.97-.61,2.06-1.29,3.18-2-1.34,.71-2.32,1.33-3.15,1.85-.84,.5-1.49,.95-2.11,1.39-.62,.44-1.19,.88-1.9,1.32-.72,.42-1.55,.86-2.66,1.36,1.19-1.09,2.39-2.11,3.49-3.28-.96,.93-2,1.55-3.03,2.06-1.03,.49-2.04,.89-3.03,1.12-1.99,.45-3.77,.63-5.2,.86-.21,.45,2.72,.63-3.39,2.6-2.7,.59-1.45-.16-2.13-.18-.24,.42-2.25,1.78-6.4,2.75-.86-.3,2.57-1.36,2.71-1.91-1.54,.38-2.93,.74-4.23,1.03-1.31,.24-2.52,.39-3.68,.41-1.35,.38-2.01,.57-2.27,.7-.26,.13-.14,.21,.06,.28,.39,.14,1.06,.24-.61,.76-4.31,.49-4.57,.04-4.18-.51,.4-.55,1.44-1.3-.18-1.61,1.56-.38,3.23-.8,4.91-1.17,1.66-.43,3.34-.85,4.92-1.26,3.14-.9,5.9-1.73,7.45-2.42-3.82,1.28-7.76,2.22-11.72,3.1,.61-.65-8.24,.25-2.02-1.24-5.95,.69-12.54,1.29-19.13,1.54-6.58,.27-13.15,.17-18.95-.22,1.62,.36,3.72,.68,3.35,1.01-6.05-.23-5.3-.92-6.47-1.48-4.47-.16-4.11,.85-6.96,1.14-2.27-.55-4.02-1.05-5.53-1.42-1.51-.36-2.74-.7-3.94-1.03-2.39-.64-4.58-1.37-8.22-2.94l.21,1.09c-5.15-2.3-6.38-1.07-11.91-3.57-.24-.32,2.01,.24,3.84,.56-2.59-.63-3.66-1.3-4.74-1.87-.54-.3-1.07-.59-1.78-.89-.7-.33-1.58-.67-2.82-1.05,1.41,.14,2.8,.33,4.21,.42-1.94-.66-4.31-1.53-5.93-2.18-1.6-.71-2.43-1.23-1.28-1.25-3.52-.82-8.05-2.77-12.64-5.05-4.59-2.3-9.14-5.1-12.97-7.37l.97-.36c-2.15-.89-5.59-3.34-8.68-6.04-1.6-1.3-3.03-2.72-4.39-3.85-1.3-1.18-2.43-2.16-3.35-2.66-.07-.24-.13-.48-.19-.73-2.25-2-4.47-4.09-6.45-6.4-1.1-1.74-1.17-2.48-1-2.82,.15-.33,.48-.22,.24-.27-2.42-3.7-3.96-7.33-4.98-10.66-1.08-3.33-1.35-6.44-1.39-9.2-.29-.33-.55-1.15-.77-2.32-.05-.29-.1-.61-.16-.94-.03-.33-.04-.69-.05-1.06-.03-.74-.04-1.55-.04-2.42,.18-3.43,1-7.61,2.31-11.15,1.74-4.2,4.01-8.22,6.63-12.05l2.1-2.8c.35-.46,.69-.94,1.06-1.4l1.14-1.34,2.29-2.68,2.44-2.57,1.22-1.29,1.29-1.23,2.58-2.45c.85-.83,1.78-1.58,2.67-2.37,.9-.78,1.78-1.58,2.72-2.31,3.64-3.06,7.54-5.74,11.53-8.23,2.05-1.13,4.06-2.36,6.2-3.3l1.58-.76,.79-.38,.81-.32c1.09-.43,2.17-.85,3.25-1.28,1.08-.45,2.21-.72,3.31-1.08,1.11-.32,2.2-.75,3.34-.97,2.25-.51,4.49-1.11,6.77-1.4,9.08-1.48,18.24-1.4,26.96-.52,2.61,.25,5.72,.55,9.05,.75,1.67,.07,3.35,.29,5.05,.47,1.69,.19,3.39,.4,5.04,.64-3.92-1.06-6.1-1.49-8.27-1.88-2.19-.28-4.36-.57-8.29-1.24-2.95-.53-4.94-1.18-6.85-1.84-1.92-.57-3.75-1.18-6.36-1.74l2.61,1.16c-2.06,.04-3.43,0-4.45,.02-1.02,0-1.67-.07-2.27-.13-.6-.06-1.15-.11-1.95-.09-.8,0-1.86,.16-3.47,.5l.2-1.58c-.57,.23-1.36,.39-2.27,.48-.9,.1-1.92,.11-2.94,.21-2.04,.15-4.14,.12-5.36,.12l-1.93,1.49c-1.31,.13-2.52,.21-3.61,.36-1.08,.18-2.05,.33-2.92,.44-.87,.11-1.63,.18-2.3,.19-.66,.04-1.21,.04-1.68-.05l.81,.76c-.52,.02-1.98,.48-3.8,1.1-1.8,.67-3.89,1.64-5.77,2.44-3.64,1.82-6.45,3.09-4.07,.83-.32,.23-.62,.48-.94,.74-.31,.28-.63,.58-1.01,.89-.75,.63-1.72,1.35-3.19,2.2l-.98-.54c-3.94,2.98-8.03,6.5-9.43,6.99,1.85-1.87,2.34-2.72,2.74-3.62-1.03,.8-1.94,1.51-2.73,2.16-.76,.67-1.42,1.27-1.99,1.81-1.13,1.08-1.92,1.88-2.42,2.58-1.02,1.36-1.08,1.98-1.08,2.56,.05,1.2,.08,1.95-5.92,8.63l-.35-.58c-.82,1.32-1.65,2.63-2.44,3.95l-3.54,3.41c-.93,3.37-4.51,8.64-7.02,15.27-.31,.83-.62,1.66-.94,2.5-.25,.87-.49,1.74-.74,2.61-.55,1.73-.79,3.53-1.09,5.27-.18,.87-.16,1.75-.24,2.6-.04,.86-.11,1.69-.1,2.51,.11,1.64,.15,3.19,.46,4.58,.18,1.1,.24,2.29,.34,3.6,.18,1.29,.28,2.71,.52,4.25,.15,.76,.31,1.55,.48,2.37,.09,.41,.18,.83,.28,1.26,.13,.42,.26,.84,.4,1.27,.28,.86,.59,1.76,.92,2.69,.39,.9,.83,1.82,1.3,2.76l.65-.93c.24,.82,.62,1.89,1.2,3.1,.56,1.22,1.21,2.65,2.08,4.1,1.61,3.01,3.92,6.22,6.3,9.37,4.86,6.21,10.53,11.58,12.36,14.39,5.58,3.05-.44-.53,.18-1.11,5.22,3.23,7.89,5.02,9.86,6.64,.99,.79,1.81,1.53,2.71,2.32,.9,.77,1.9,1.54,3.23,2.44,1.7,.81,2.26,.97,2.19,.86-.08-.12-.79-.53-1.57-1.05-1.58-1.01-3.5-2.26-1.56-1.61,2.4,1.57,4.19,2.49,5.67,3.15,1.47,.69,2.66,1.07,3.93,1.48,1.27,.4,2.59,.89,4.42,1.56,.91,.34,1.94,.76,3.13,1.28,1.2,.5,2.58,1.07,4.18,1.78,1.1,1.01-3.51-.92-4.98-1.16,4.76,1.41,11.38,3.78,18.71,5.88,7.32,2.13,15.34,3.99,22.57,5.01,4.09,.84,8.73,1.53,13.69,2.08,4.96,.51,10.25,.83,15.65,.89,5.4,.01,10.92-.19,16.32-.71,5.4-.56,10.69-1.31,15.63-2.35l.27-.43c2.08-.31,4.18-.79,6.29-1.37,2.1-.68,4.25-1.31,6.36-2.22,1.06-.44,2.14-.88,3.22-1.32,1.07-.5,2.14-1,3.23-1.5,.54-.25,1.09-.51,1.64-.76,.54-.28,1.09-.55,1.63-.83,1.09-.56,2.22-1.08,3.33-1.66-1.51,.65-3.05,1.22-4.56,1.83Z"/>
        <path class="uuid-fcbb0574-42a3-4421-847e-c608beab643e" d="M238.98,154.29l-.56-1.59c-2.24-1.7-4.41-3.49-6.49-5.4,1.9,2.94,3.59,3.77,7.05,6.99Z"/>
        <path class="uuid-fcbb0574-42a3-4421-847e-c608beab643e" d="M235.9,155.03c1.23,.9,2.47,1.78,3.74,2.62-1.92-1.52-3.79-3.1-5.6-4.75,.6,.72,1.24,1.42,1.86,2.13Z"/>
        <path class="uuid-fcbb0574-42a3-4421-847e-c608beab643e" d="M180.02,134.5l1.05-.4c4.7-2.78,9.11-6,13.11-9.64-4.29,3.85-9.07,7.2-14.15,10.04Z"/>
        <path class="uuid-fcbb0574-42a3-4421-847e-c608beab643e" d="M73.63,133.93c1.9,.13,4.34,1.16,6.28,1.36-1.22-.26-2.44-.56-3.64-.88-1.21-.32-2.43-.61-3.63-.95,.33,.17,.66,.32,.99,.47Z"/>
        <path class="uuid-fcbb0574-42a3-4421-847e-c608beab643e" d="M18.22,92.68c-1.39-.64-1.97-1.79-2.22-2.25-.24-.46-.11-.31,.14,1.53,2.44,3.32,1.01,0,2.08,.71Z"/>
        <path class="uuid-fcbb0574-42a3-4421-847e-c608beab643e" d="M10.12,79.84c.59,2.25,1.13,3.45,1.84,4.54-.28-1.54-.43-2.29-.77-2.84-.3-.55-.74-.91-1.07-1.71Z"/>
      </g>
      <polygon class="uuid-fcbb0574-42a3-4421-847e-c608beab643e" points="378.95 206.53 362.36 210.16 367.14 204.47 364.57 197.51 378.95 206.53"/>
    </g>
  </g>
</svg>