<svg viewBox="0 0 3140.87 1335.31" xmlns="http://www.w3.org/2000/svg">
  <path d="m596.58 151.75c9.55 11.86 14.42 27.85 24.16 59.85l212.76 698.93c-78.67-40.81-164.18-70.24-254.37-86.12l-138.53-468.14c-2.27-7.66-9.3-12.91-17.29-12.91s-15.06 5.28-17.31 12.97l-136.85 467.85c-90.61 15.81-176.51 45.29-255.52 86.25l213.81-698.99c9.77-31.94 14.65-47.91 24.2-59.74 8.43-10.45 19.4-18.56 31.85-23.57 14.11-5.67 30.81-5.67 64.21-5.67h152.71c33.44 0 50.16 0 64.29 5.68 12.47 5.02 23.44 13.15 31.87 23.61z" fill="#fff" fill-rule="evenodd" />
  <g fill="#ff6f1e">
    <path d="m620.21 944.37c-1.8-3.09-2.56-2.28-2.8.31-.25 2.56-.1 6.75-.18 10.62 2.55 1.69 5.04 3.5 7.53 5.4-1.21-5.53-2.73-10.98-4.55-16.33z" />
    <path d="m625.34 981.79c2.48 6.18 4.58 12.65 6.26 19.36-.74-4.81-1.62-9.54-2.77-14.18.72-3.9 1.4-5.78 2.19-6.27.78-.5 1.62.39 2.41 2 .8 1.6 1.53 3.93 2.1 6.25.58 2.32.94 4.63 1.22 6.18-.21-6.69-1.09-10.59-2.04-12.75-.94-2.16-2.02-2.58-3.08-2.33-2.12.53-4.39 3.64-6.3 1.74z" />
    <path d="m627.77 1019.83c-.37 1.53-.63 2.82-.78 3.91-.16 1.09-.25 1.96-.24 2.66.02 1.4.39 2.09.95 2.25 1.1.32 2.98-1.52 4.22-4.04-.79-.61-1.23-3.08-1.78-4.73-.6-1.66-1.26-2.51-2.38-.05z" />
    <path d="m255.89 1072.77c.03 1.12.18 2.34.2 3.35.03 1-.05 1.8-.58 2.06 1.01.65 1.71.81 1.85.06.14-.76-.33-2.39-1.47-5.47z" />
    <path d="m255.51 1078.18c-.38-.26-.81-.53-1.26-.93.28.4.51.74.89 1.13.19.02.24-.14.36-.2z" />
    <path d="m349.24 1154.86c.8 3.3 1.25 6.34 1.52 9.31.06.78.12 1.54.18 2.29.05.88.11 1.75.16 2.6.1 1.71.14 3.39.27 5.06.36 6.67.9 13.29 2.95 21.32-1.21 3.33-2.19 6.72-3.21 10.21.76 2.19 1.44 3.93 2.04 5.32.25.56.74 1.68 1.1 2.43.38.8.73 1.5 1.05 2.1 1.29 2.42 2.19 3.4 3.05 4.14.88.74 1.77 1.25 2.95 2.62.59.68 1.27 1.58 2.07 2.81.4.62.83 1.32 1.3 2.12.5.78 1.07 1.64 1.67 2.62.8 2.9 1.81 6.22 3.27 9.56.71 1.68 1.43 3.47 2.27 5.21.87 1.71 1.78 3.46 2.73 5.23.48.87.93 1.8 1.46 2.65.52.85 1.05 1.71 1.57 2.57.53.86 1.07 1.72 1.6 2.58.54.86 1.07 1.74 1.66 2.53l3.48 4.83c.57.82 1.17 1.57 1.78 2.31l1.8 2.22c2.35 3.02 4.81 5.54 7.07 8.05 1.14 1.22 2.29 2.29 3.37 3.37 1.09 1.05 2.11 2.14 3.12 3.02 2.01 1.8 3.78 3.47 5.29 4.78 1.51 1.28 2.73 2.34 3.57 3.14 2.12 3.55.52 3.25-2.06 1.95-2.59-1.2-6.07-3.76-7.5-4.06 2.47 2.04 4.61 3.73 6.55 4.94 1.93 1.25 3.6 2.33 5.15 3.04 1.54.76 2.92 1.38 4.23 1.94 1.31.48 2.56.94 3.85 1.41.64.24 1.28.49 1.93.76.66.24 1.34.49 2.04.77 1.41.54 2.92 1.31 4.64 2.08.86.4 1.77.84 2.74 1.35s2 1.07 3.12 1.62c2.23 1.19 4.76 2.54 7.67 4.1l.62 2c3.91 1.45 7.86 2.76 11.89 4.18 2.03.73 4.08 1.46 6.14 2.19 2.1.76 4.22 1.54 6.35 2.31 4.42 1.63 8.91 3.29 13.45 4.96 1.17.43 2.34.87 3.52 1.31l-.65-1.11c-.38-.73-.72-1.45-.95-2.15-.46-1.4-.57-2.73-.15-3.9.43-1.17 1.38-2.18 3.21-2.89 1.87-.69 4.49-1.12 9.02-.78.23 0 .55.04.88.08l.97.11 1.93.22.48.05c.15.01.32.03.54.08l1.22.21 2.43.42 1.21.21c.17.02.49.1.75.17l.82.2 3.27.78 3.26.77 1.63.38c.55.13 1.04.23 1.77.44-5.29-11.83-10.59-23.67-15.88-35.51l-5.49-12.61-2.73-6.28-1.36-3.14-.34-.78c-.12-.27-.15-.38-.22-.58l-.39-1.07-3.11-8.51-1.55-4.24-.39-1.06-.19-.53c-.03-.14-.04-.24-.06-.36l-.19-1.38-.77-5.52-.38-2.75v-2.31s.02-4.62.02-4.62v-1.15s.12-1.05.12-1.05l.23-2.09c.16-1.39.28-2.8.47-4.16l.87-3.86c.29-1.28.55-2.58.98-3.79l.02-.06v-.03s.06-.14.06-.14l.08-.19v-.02s.04-.1.04-.1l.07-.2.13-.4.26-.8c.36-1.06.77-2.09 1.16-3.13 1.69-4.1 3.76-8.05 6.38-11.9 2.63-3.84 5.67-7.64 9.17-11.37-2.51 1.89-2.63.57-4.26.64 8.59-8.79 20.29-17 32.8-25.5 12.51-8.49 25.81-17.56 37.92-27.94 6.05-5.21 11.77-10.76 17.03-16.54 2.58-2.95 5.12-5.85 7.41-8.92 2.39-2.97 4.48-6.14 6.55-9.19 8.12-12.44 13.36-25.37 16.13-37.32-1.68 3.73-3.93 7.54-6.32 11.56-1.3 1.95-2.65 3.95-4.05 5.97-.68 1.03-1.45 2.01-2.22 3s-1.55 2-2.34 3.01c-6.39 8.02-14.06 15.85-22.18 23.06-16.2 14.53-34.26 26.4-45.47 38.99-6.04 1.67-12.22 6.04-17.64 9.87-5.44 3.82-10.04 7.1-13.53 6.44-8.05 5.28-14.45 10.79-19.35 16.57-4.92 5.76-8.38 11.71-10.77 17.73-.32.74-.6 1.5-.85 2.26-.26.76-.52 1.51-.77 2.26-.43 1.54-.92 3.03-1.25 4.59l-.27 1.15c-.15.54-.26.99-.38 1.5-.19 1.02-.38 2.03-.57 3.06l-.29 1.55-.18 1.63c-.12 1.1-.25 2.21-.37 3.32-.08 1.15-.1 2.36-.16 3.56-.03 1.22-.15 2.38-.01 3.79.08 1.37.16 2.75.25 4.14l.06 1.06c.08.43.21.9.31 1.36.22.92.44 1.85.66 2.78.23.94.45 1.89.68 2.84l.35 1.44.18.74.32.95 2.61 7.83c.46 1.36.92 2.72 1.39 4.1.68 1.8 1.36 3.6 2.04 5.42 1.4 3.7 2.81 7.43 4.24 11.22-.37.16-.55.39-.84.58l-.8.59c-.54.39-1.11.76-1.69 1.13-.28.19-.61.35-.86.55l-.64.64c-.44.41-.88.83-1.33 1.25-1.48 1.76-2.75 3.58-3.56 5.52-1.28.7-2.28-.74-3.44-3-1.15-2.24-2.52-5.37-3.8-7.41-.4-3.82-.57-7.7-.47-11.64l.14-2.96.27-2.97c.02-.51.11-.99.2-1.48l.23-1.48c.16-.99.25-2 .42-3l-1.43-5.79-.66-2.78c-.17-.84-.28-1.59-.41-2.37l-.71-4.54c-.07-.39-.09-.71-.1-1.03l-.06-.97-.11-1.92c-.11 1.1-.29 2.09-.38 3.19-.04 1.15-.11 2.25-.21 3.31l-.15 1.56c-.01.57-.03 1.12-.06 1.66-.06 1.07-.16 2.07-.29 3-.57.96-1.02 1.98-1.43 3.04-.36 1.07-.66 2.18-.85 3.34-.33-1.14-.38-1.87-.5-2.78-.11-.88-.2-1.79-.29-2.71-.12-1.85-.21-3.77-.25-5.73-.08-5.35.4-11 .79-15.74.35-4.75.57-8.46-.71-10.1-.34 3.4-.61 7.22-.89 11.27-.24 4.06-.36 8.38-.37 12.84.01 7.01.48 14.32 1.61 21.58 1.16 7.26 2.95 14.47 5.48 21.56 1.26 3.55 2.69 7.08 4.28 10.63.41.89.82 1.78 1.23 2.66l.08.17.04.08s-.04 0-.06-.01l-.26-.07-.52-.14-1.04-.27c-.69-.17-1.37-.33-2.05-.49-.67-.17-1.33-.34-1.98-.5-1.32-.34-2.7-.92-3.96-1.39-1.28-.49-2.55-.9-3.73-1.37-1.19-.45-2.36-.82-3.46-1.21s-2.16-.73-3.18-1.01c5.62 4.16 12.06 7.59 18.96 10.52.87.36 1.74.72 2.61 1.08l.65.27.33.13c-.01-.07-.09-.19-.12-.29l-.58-1.22c-.39-.81-.77-1.63-1.12-2.45-.36-.82-.73-1.64-1.05-2.47-1.35-3.3-2.51-6.63-3.33-9.72-.18-1.4-.3-3.57.23-4.47.5-.93 1.71-.5 3.03 2.62.56 5.77 1.36 10.75 2.47 15.25 1.14 4.5 2.56 8.51 4.25 12.22.41.93.89 1.83 1.32 2.72 0 .02.06.08 0 .06l-.12-.04-.24-.09-.48-.18-.96-.36-1.93-.73c-1.3-.48-2.54-1.01-3.8-1.53-1.25-.53-2.54-1.04-3.76-1.61-4.99-2.19-9.79-4.62-14.54-7.19-4.73-2.56-9.33-5.38-13.91-8.5-4.57-3.12-9.03-6.63-13.46-10.4-4.43-3.75-8.73-7.96-13.01-12.47-1.05-1.15-2.15-2.26-3.19-3.46-1.05-1.2-2.1-2.41-3.16-3.62-2.06-2.53-4.18-5.05-6.21-7.81-.51-.68-1.04-1.38-1.58-2.1-.51-.75-1.02-1.52-1.54-2.29-1.04-1.56-2.11-3.14-3.05-4.85-1.99-3.33-3.73-6.88-5.19-10.15-1.35-3.36-2.5-6.37-3.04-8.86-.59-2.46-.81-4.23-.43-5.09 2.05 4.14 2.9 4.2 3.66 4.09.79-.14 1.45-.39 3.37 2.42-1.17-1.91-2.08-3.38-2.92-4.47s-1.6-1.79-2.28-2.28c-1.31-1-2.4-1.04-3.5-1.42-1.08-.38-2.29-1.11-3.63-3.64-.66-1.27-1.37-2.99-2.18-5.33-.3-.97-.59-2.05-.9-3.28s-.62-2.6-.87-4.14c3.01.44 6 .81 9.04 1.12-5.49-3.51-6.64-11.09-6.56-19.44.01-1.04.03-2.1.04-3.17.05-1.07.1-2.15.14-3.24.05-2.17.21-4.36.22-6.56 0-1.12 0-2.15-.03-3.18-.03-1.04-.11-2.06-.22-3.08-.23-2.05-.65-4.06-1.31-6.01 1.69-2.82 3.06-1.67 4.03 1.76.99 3.43 1.42 9.07 1.78 15.51.5-7.3-.24-10.97-1.32-14.42-1.05-3.42-2.26-6.46-2.34-11.86 2.54 3.33 5 6.8 7.45 10.29-3.5-5.9-3.27-11.06-2-15.73 1.28-4.65 3.58-8.89 4.32-12.43-.93-.29-2.59 1.29-4.18 1.08-1.65-.2-2.95-2.17-4.14-9.12-.18-3.06.25-3.94.89-4.28s1.45-.1 1.76-.95c-.49-.08-1.13-.4-1.87-.96-.76-.55-1.63-1.34-2.52-2.36-1.86-2.01-3.85-4.91-6.11-8.51.32-.65.86-.8 1.54-.63.34.08.72.24 1.12.45.38.22.78.5 1.2.8 1.7 1.15 3.37 2.82 4.67 2.63-1.47-3.41-3.3-6.25-4.95-8.87-1.63-2.66-3.29-4.97-4.59-7.65-2.87-1.91-4.51-2.36-5.3-2.38-.8 0-.83.54-.78 1.17.06.64.21 1.36-.13 1.79-.17.21-.46.35-.93.38-.48.04-1.11-.1-2.06-.25-1.74-1.38-3.2-2.34-4.22-3.26-1.07-.83-1.77-1.54-2.15-2.21-.77-1.33-.31-2.37.64-3.39.93-1 2.36-1.93 3.23-3.07.86-1.15 1.17-2.53-.47-4.55 4.53.68 9.48 2.31 14.12 4.9 4.63 2.57 8.87 6.12 12.27 9.95 3.42 3.81 6 7.81 7.96 11.32 1.05 1.76 1.8 3.4 2.62 4.88.72 1.48 1.37 2.79 1.97 3.91-1.96-5.53-4.55-11.14-8.11-16.44-3.53-5.29-8.15-10.27-13.46-14.07.92-.19.28-1.56-1.09-3.32-.34-.44-.72-.91-1.13-1.39-.42-.47-.88-.92-1.34-1.38-.93-.91-1.9-1.9-2.77-2.67-1.74-1.56-3.05-2.85-2.56-3.31.25-.23.94-.25 2.27.03.66.14 1.48.36 2.47.68.99.38 2.15.87 3.51 1.49-4.46-3.26-9.4-5.63-14.43-7.44-5.07-1.87-10.11-2.8-15.13-3.49-1.23-.11-2.47-.22-3.7-.34l-1.86-.14-1.81-.05c-1.21-.02-2.42-.04-3.63-.06-.58-.02-1.29.04-1.95.07l-2.01.12-4.01.3c-1.33.14-2.66.41-3.99.63l-3.97.74c-1.31.32-2.6.71-3.89 1.08-10.33 2.99-19.81 8.34-27.47 15.04l-1.45 1.24-.04.04s-.09.07.1-.08l.4-.3.19-.14s-.05.07-.05.07l-.11.13-.22.27-.87 1.08c-.3.35-.58.74-.84 1.14-.27.4-.54.8-.8 1.2-1.04 1.64-1.98 3.43-2.79 5.31-.18.4-.37.76-.5 1.16.18-.12.43-.23.67-.38.59-.32 1.13-.74 1.68-.79.54-.04.98.2 1.12 1.16-.87 1.52-1.4 2.83-1.91 3.63-.16.26-.31.5-.45.7-.13.21-.24.4-.35.56-.22.32-.41.53-.58.65-.35.24-.61.11-.84-.2-.39-.59-.66-1.9-1.02-2.53-.43 1.96-.55 3.99-.67 6.04-.13 2.06-.18 4.15-.15 6.34v6.85c-.02 1.13-.03 2.36-.05 3.78 0 1.21.02 2.58.03 4.18-.04.3-.07.59-.11.87-.02.14-.03.28-.05.42-.03.1.03.45-.2 0-.65-1.05-1.27-2.04-1.85-2.99-1.15-1.83-2.16-3.35-2.99-4.75-.84-1.33-1.6-2.55-2.32-3.7-.69-1.12-1.3-2.19-1.9-3.24-1.21-2.07-2.24-4.23-3.24-6.9-.52-1.32-.96-2.82-1.38-4.47s-.83-3.45-1.1-5.46c-.81 2.01-1.6 4.05-2.36 6.14-.66-3.13-1.39-4.85-2.18-6.14-.79-1.27-1.8-1.98-2.77-2.83-.98-.84-2.09-1.73-3.02-3.2-.91-1.46-1.8-3.44-2.13-6.21.36-.51 1.22.03 2.21.87 1.02.84 2.21 1.96 3.25 2.85-1.16-1.58-1.79-2.98-1.99-4.24-.22-1.26-.11-2.33.02-3.33.01-.13.03-.24.04-.38v-.54c-.01-.36-.03-.72-.05-1.09-.05-.74-.14-1.5-.32-2.33-.39-1.65-1.05-3.6-2.42-6.12l4.06 3.31 4.14 3.13c-.82-2.03-1.85-4.25-2.7-6.47-.43-1.11-.88-2.18-1.24-3.23-.35-1.05-.67-2.05-.92-2.96-.51-1.81-.68-3.29-.39-4.11s1.05-.98 2.48-.23c-1.19-1.63-2.34-3.48-3.34-5.55-1.05-2.05-1.94-4.3-2.81-6.69-1.67-4.78-3-10.13-4.03-15.65-1.04-5.53-1.78-11.23-2.41-16.72-.15-1.37-.3-2.72-.45-4.06-.07-.67-.14-1.33-.21-1.98l-.1-.97-.1-.59c-.29-1.49-.5-2.99-.92-4.52 1.42.59 2.84 1.12 4.26 1.6-1.29-1.43-1.89-3.53-2.1-5.86s-.05-4.85.17-7.32c.21-2.49.47-4.94.4-7.64-.05-2.69-.44-5.68-1.49-9.36.57.55 1.14 1.13 1.7 1.73-.41-3.39-.67-7.02-.82-10.9-.04-.97-.04-1.95-.06-2.95v-1.51s-.02-.76-.02-.76c0-.21-.02-.65.03-.52.12.05.25.12.39.2.13.09.28.18.49.25.52.82 1.03 1.68 1.49 2.54.49.85.95 1.69 1.36 2.52.83 1.66 1.48 3.24 1.98 4.56.99 2.63 1.42 4.26 1.06 2.96 1.46 1.5 3.04 2.94 4.68 4.22 3.28 2.62 6.79 4.96 10.01 7.18 1.6 1.12 3.16 2.18 4.57 3.25.16.13.38.28.61.44l.66.46c.43.31.86.63 1.28.93.41.32.81.63 1.21.94.63.42 1.26.84 1.88 1.25 3.01-1.75 10.16-.25 18.87 1.89 8.71 2.19 19.02 5.08 28.21 7.3 21.64 7.09 44.43 11.51 67.45 13.74 23.03 2.23 46.29 2.21 69.17.31 2.86-.25 5.71-.5 8.56-.75 2.84-.35 5.68-.7 8.51-1.05 5.67-.63 11.28-1.6 16.87-2.52 1.4-.24 2.79-.44 4.18-.72l4.15-.83c2.76-.56 5.52-1.12 8.27-1.68 2.74-.61 5.46-1.3 8.17-1.95 2.71-.68 5.42-1.26 8.09-2.07 5.34-1.53 10.66-2.96 15.84-4.76 2.6-.87 5.2-1.68 7.75-2.61 2.54-.96 5.08-1.91 7.6-2.87 1.26-.49 2.52-.93 3.76-1.45 1.23-.53 2.47-1.06 3.7-1.58 2.45-1.07 4.91-2.07 7.31-3.18 4.76-2.35 9.53-4.49 14.03-7.09 1.4-.66 2.82-1.44 4.26-2.31.73-.42 1.44-.91 2.15-1.44.71-.52 1.42-1.06 2.14-1.62 1.43-1.11 2.87-2.3 4.31-3.53s2.79-2.66 4.18-4.03c1.37-1.4 2.79-2.76 4.11-4.23 1.29-1.48 2.58-2.98 3.87-4.47l1.91-2.19c.59-.76 1.18-1.52 1.77-2.27 1.18-1.49 2.35-2.93 3.53-4.3-7.22 4.97-11.05 7.87-14.84 10.95-1.95 1.46-3.88 2.97-6.29 4.68-2.48 1.59-5.47 3.33-9.46 5.35-3.23 1.04-6.08 1.61-8.7 1.89-1.3.16-2.59.15-3.84.13-1.25-.03-2.46-.11-3.65-.21-2.4-.22-4.7-.44-7.21-.75-2.5-.3-5.13-.51-8.06-.47 2.3.91 4.63 1.82 7 2.71-1.95 1.19-3.62 2.11-5.06 2.82-1.44.72-2.66 1.23-3.73 1.54-2.14.66-3.6.79-4.94.92s-2.54.25-4.19.89c-1.64.65-3.77 1.67-6.94 3.77l-1.37-7.72c-.94 1.28-2.47 2.23-4.3 2.93-1.83.72-4.01 1.03-6.21 1.23-2.21.19-4.45.19-6.48.09s-3.86-.41-5.21-.67l-3.6 6.15c-1.46-.1-2.85-.2-4.18-.3-1.33-.14-2.6-.27-3.81-.39-2.41-.26-4.56-.54-6.47-.92-3.81-.71-6.69-2-8.66-4.23l1.67 4.79c-1.15-.65-4.41-.64-8.46-.41-4.05.19-8.93.41-13.25.51-2.16.07-4.19-.05-5.92-.21-1.73-.17-3.14-.43-4.09-.84-1.89-.8-1.86-2.16 1.34-4.42-3.16 1.24-6.03 4.08-13.2 3.56l-1.17-4.92c-10.15 1.61-21.63 2.08-24.44-.76 5.55-1.03 7.43-3.11 9.26-5.26-5.3-.24-9.42-.17-12.65.03-3.23.23-5.59.72-7.34 1.32-3.51 1.24-4.65 3.23-5.63 5.27-.99 2.04-1.83 4.11-4.85 5.49s-8.25 2.12-17.9.99l.86-3.12c-3.38.73-6.77 1.37-10.19 1.99-3.2-1.81-6.33-3.79-9.45-5.67-1.94 1.02-4.23 1.6-6.81 1.85-2.58.26-5.4.06-8.45-.32-6.05-.88-12.88-2.81-19.74-5.34-6.88-2.5-13.84-5.44-20.39-8.13-6.57-2.7-12.67-5.06-18.42-6.28-1.35-.6-2.7-1.32-4.08-2.15-1.4-.87-2.72-1.64-4.36-3-1.58-1.26-3.24-2.64-4.98-4.11-.88-.65-1.75-1.72-2.66-2.69-.91-1.01-1.84-2.03-2.79-3.08-.48-.53-.97-1.07-1.46-1.61l-.75-.82-.38-.41c-.12-.13-.26-.4-.39-.59-1.08-1.71-2.18-3.46-3.3-5.24-1.14-1.81-2.31-3.66-3.5-5.55-1.34-2.17-2.71-4.39-4.11-6.65-3.06-4.93-6.24-10.04-9.54-15.36-3.69-5.84-7.51-11.91-11.49-18.21-.32.54-.64 1.08-.97 1.63l-.49.85c-.16.26-.34.63-.46.79.71 2.12 1.5 4.06 2.24 6.17.75 2.08 1.5 4.21 2.24 6.39-.25-.01-.51 0-.77 0-.13 0-.28.05-.4.01-.12-.03-.24-.05-.37-.08-.5-.09-1.02-.14-1.56-.14-.55 0-1.12.05-1.71.14-.29.03-.61.14-.89.15-.26-.05-.53-.1-.8-.13-.54-.07-1.1-.12-1.67-.13-.29 0-.57 0-.87.01-.15.03-.28-.03-.4-.08l-.38-.13c-.51-.17-1.03-.32-1.57-.44-.26-.08-.55-.07-.78-.22-.23-.14-.46-.29-.69-.43-.46-.28-.93-.54-1.41-.79-.42-.37-.8-.81-1.21-1.19l-.6-.59s-.05-.1-.08-.02l-.1.21-.19.43-.39.87c-.53 1.17-1.06 2.35-1.6 3.55-2.07 4.75-4.22 9.66-6.37 14.57-2.14 4.93-4.31 9.85-6.52 14.74-2.27 4.8-4.29 9.94-6.32 14.75-3.92 9.79-7.29 19.05-10.64 24.24.22 3.46.4 5.96.59 7.75.2 1.8.37 2.86.51 3.39.28 1.06.47-.03.7-1.87.47-3.7 1.3-10.34 3.2-9.12.15 12.33.63 21.42.41 28.78-.02.92-.04 1.81-.06 2.68-.01.43-.02.85-.03 1.27 0 .46-.02.71-.04.99-.07 1.11-.14 2.12-.24 3.1-.21 1.96-.47 3.69-.81 5.33-1.29 6.52-3.6 11.35-4.03 19.69 1.23 4.7 1.91 6.09 2.2 5.73s.24-2.49.26-4.89c-.01-4.81.19-10.68 2.59-5.81-.12 7.3.6 12.38 1.66 16.38 1.03 4.01 2.45 6.95 3.91 10.06.75 1.55 1.52 3.15 2.29 4.94.81 1.78 1.62 3.77 2.43 6.1 1.73 4.65 3.37 10.7 5.63 19.4-.72 2.15-1.94.13-3.34-2.82-1.45-2.94-2.85-6.84-4.3-8.35 1.55 2.86 3.05 6.07 4.71 9.52 1.72 3.7 3.57 7.68 5.51 11.87 1.42 2.94 2.74 6 4.26 9.04 1.55 3.01 3.14 6.09 4.75 9.22 1.73 3 3.49 6.04 5.27 9.13l.67 1.16.72 1.1c.48.73.96 1.47 1.44 2.21.96 1.48 1.92 2.97 2.89 4.46 3.96 5.81 8.12 11.53 12.5 16.76l1.63 2.01c.54.68 1.09 1.34 1.65 1.94l3.36 3.74c2.23 2.5 4.49 4.98 6.76 7.45 2.26 2.47 4.51 4.93 6.85 7.41 1.16 1.23 2.31 2.46 3.46 3.68 1.17 1.23 2.34 2.46 3.5 3.68 1.19 1.23 2.37 2.46 3.55 3.68.59.61 1.17 1.21 1.76 1.82l.88.9.44.45.22.22c.06.06.18.2.16.15.15-.14.31-.3.46-.45l.23-.24.11-.13c.03-.05.17 0 .25 0 .33.22.66.44.99.67l.51.35.26.18.13.09.22.18c.62.52 1.25 1.04 1.88 1.57.32.27.64.54.97.81l.49.41.25.21.39.36c1.08.99 2.17 1.99 3.28 3 .56.51 1.12 1.03 1.68 1.55l.85.79 1.35 1.3c1.85 1.78 3.71 3.59 5.61 5.43.95.93 1.91 1.86 2.88 2.8 1.33 1.32 2.67 2.64 4.02 3.98.52-7 1.04-14.05 1.57-21.15.13-1.7.26-3.4.38-5.11.12-1.41.23-2.82.35-4.23.23-2.84.47-5.69.7-8.55.23-2.88.47-5.77.7-8.67.12-1.46.23-2.92.35-4.38.1-1.12.21-2.25.31-3.38.4-4.33.81-8.7 1.22-13.08l.3-3.32.08-.83c.02-.13.02-.3.05-.39l.1-.22.4-.87c.53-1.17 1.06-2.34 1.59-3.51.53-1.18 1.06-2.36 1.6-3.54l.8-1.79.2-.45.1-.22.05-.11c.06-.07-.1.04.3-.32l.82-.78c.19-.19.06-.05.11-.1h.01s.04-.03.04-.03l.09-.04c.95-.43 1.74-1.09 2.74-1.4 1.81-.95 3.84-1.33 5.77-1.76 1.02-.03 1.96-.32 2.98-.22.5.02.98-.07 1.49-.02.51.08 1.01.13 1.5.16l.37.02c.12 0 .23 0 .44.04l1.11.15c.72.11 1.51.14 2.12.31.64.15 1.32.25 1.91.4.55.18 1.09.34 1.63.48 1.98.7 3.11 1.51 3.48 2.1.28.52.2.98.08 1.46-.14.46 0 1.34.14 2.82l1.76-.46c-.42 1.96-.33 4.24-.04 7.07s.79 6.17 1.22 9.97c.88 7.63 1.45 16.9.39 27.79.88-3.59 1.76-6.95 2.62-10.26z" />
    <path d="m455.07 1198.5c-.92.33-1.79.7-2.69 1.07l-1.34.57-.67.29-.34.15-.17.07s-.07.07-.02-.11c0-.05-.04 0-.06-.02-.58 4.24-.78 9.14-.64 14.59.44-.33.8-.74 1.1-1.2.32-.46.58-.96.78-1.5.38-1.09.69-2.29.88-3.6.24-1.3.42-2.7.81-4.19.2-.75.41-1.53.72-2.35.22-.54.45-1.09.69-1.67.3-.68.58-1.39.97-2.09z" />
    <path d="m465.31 1207.53.5-2.68c.14-.87.34-1.73.54-2.59.21-.86.39-1.73.62-2.59l.73-2.57c-.6 1.29-1.26 2.55-1.78 3.88-.56 1.31-1.11 2.62-1.57 3.96l-.73 2.02-.64 2.07c-.46 1.37-.81 2.78-1.17 4.2 1.05-1.84 2.27-3.72 3.49-5.7z" />
    <path d="m389.71 1157.25-.65 2.63c.55 6.52 1.21 12.6 2.43 18.71 1.19 6.07 2.8 12.02 4.82 17.78-2.01-6.19-3.55-12.56-4.61-19.06-.53-3.25-.94-6.53-1.22-9.82-.31-3.3-.5-6.81-.76-10.23z" />
    <path d="m259.78 1070.94c1.32.23 2.02.96 2.7 1.75.64.79 1.28 1.62 2.19 1.65-1.57-1.25-3.13-2.87-4.79-4.8z" />
    <path d="m261.36 996.76c-1.2-3.31-1.66-4.78-1.84-5.43-.17-.65-.06-.5 0-.37.07.13.12.27-.1-.36-.22-.64-.7-1.98-1.91-5.13-.23.31.53 2.23 1.34 4.45.84 2.24 1.71 4.65 2.5 6.85z" />
    <path d="m262.96 984.97c-1.52-1.2-2.35-.51-2.81.46.95 2.66 1.13 2.61 1.47 1.98.31-.64.66-1.98 1.34-2.44z" />
  </g>
  <path d="m971.18 469.97c67.93 0 118.88-24.17 139.78-65.32 0 19.6 1.3 39.84 4.57 55.52h111.69c-5.22-22.86-7.83-54.22-7.83-95.37v-100.59c0-95.36-56.18-140.43-180.93-140.43-109.09 0-182.24 45.07-190.73 118.88h116.27c3.92-32.01 30.7-49.64 74.47-49.64s67.27 17.64 67.27 54.21v9.8l-118.22 10.45c-57.48 5.88-90.14 15.68-113 31.35-24.17 16.33-36.58 41.15-36.58 71.85 0 61.4 50.95 99.28 133.25 99.28zm43.11-67.93c-37.89 0-60.75-15.02-60.75-39.19s18.94-37.89 66.63-43.76l87.52-9.14v19.6c0 43.76-37.88 72.5-93.4 72.5z" fill="#fff" />
  <path d="m1462.8 469.97c113.66 0 171.79-42.46 171.79-111.04 0-56.83-32.66-88.18-111.69-98.63l-98.64-11.1c-28.08-3.92-39.84-11.11-39.84-26.78 0-18.94 18.94-27.43 62.05-27.43 59.44 0 100.59 13.72 133.91 40.5l52.9-52.91c-36.58-37.88-99.93-58.79-178.31-58.79-110.39 0-171.79 39.19-171.79 105.16 0 57.48 37.88 89.49 116.26 99.94l88.84 10.45c35.27 4.57 45.72 11.11 45.72 28.09 0 19.6-19.6 30.05-65.32 30.05-67.93 0-113.65-18.29-144.35-52.26l-60.09 49.64c39.84 49.64 107.77 75.12 198.56 75.12z" fill="#fff" />
  <path d="m1726.81 207.39v137.82c0 80.99 45.72 122.15 143.7 122.15 30.05 0 53.56-3.27 75.77-9.8v-84.91c-11.76 2.61-26.13 5.23-45.07 5.23-41.15 0-61.4-18.29-61.4-56.83v-113.65h107.12v-73.81h-107.12v-119.54l-113 41.8v77.73h-73.16v73.81z" fill="#fff" />
  <path d="m2109.16 133.58h-103.2v326.59h113v-122.14c0-35.27 7.84-67.28 29.4-87.53 16.98-15.68 41.15-24.17 75.11-24.17 12.41 0 22.21 1.3 33.31 2.61v-102.55c-7.18-1.31-12.41-1.31-21.55-1.31-64.67 0-108.43 37.23-126.07 97.98v-89.49z" fill="#fff" />
  <path d="m2480.08 469.97c119.54 0 203.8-63.36 203.8-173.74s-84.26-172.44-203.8-172.44-204.44 62.71-204.44 172.44 84.26 173.74 204.44 173.74zm0-75.12c-54.86 0-89.48-35.27-89.48-98.63s34.62-97.33 89.48-97.33 88.84 33.96 88.84 97.33-34.62 98.63-88.84 98.63z" fill="#fff" />
  <path d="m2915.43 582.83c1.74-5.22-.16-5.48-3.69-3.43-3.55 1.99-8.72 5.99-13.4 9.65l.38 1.89.32 1.86.61 3.74c.4 2.51.78 5.04 1.14 7.59l3.84-5.2c.64-.87 1.29-1.72 1.91-2.61l1.78-2.7 7.12-10.78z" fill="#ff6f1e" />
  <path d="m2877.02 625.99-2.94 7.28c-.48 1.24-1.03 2.41-1.58 3.6l-1.64 3.57-3.34 7.2-1.7 3.63-1.82 3.53c2.12-3.01 4.01-6.25 5.96-9.39 1.93-3.16 3.86-6.27 5.73-9.41 10.21-6.53 11.99-3.97 10.43 1.44-.39 1.35-.98 2.87-1.69 4.46-.36.79-.74 1.61-1.15 2.42-.43.79-.88 1.58-1.34 2.36-1.83 3.13-3.78 6.1-5.08 8.09 3.38-3.73 5.92-6.83 7.76-9.43 1.76-2.69 2.86-4.84 3.45-6.58 1.19-3.46.37-5.26-1.24-6.39-3.24-2.24-9.54-1.93-9.8-6.4z" fill="#ff6f1e" />
  <path d="m2840.31 671.44c-.96.71-1.82 1.38-2.6 2.02-.8.61-1.51 1.19-2.14 1.73-1.25 1.09-2.17 2.07-2.81 2.93-1.28 1.73-1.42 3-.82 3.85 1.19 1.7 5.37 1.68 9.37.19-.23-.83.1-2.09.59-3.49.46-1.42 1.09-2.97 1.5-4.3.82-2.67.76-4.51-3.08-2.93z" fill="#ff6f1e" />
  <path d="m1711.65 728.79c4.41 3.15 9.95 5.94 8.51 7.67 3.1-.18 5.06-.61 4.21-1.73-.43-.56-1.57-1.29-3.62-2.24-1.03-.48-2.28-1.01-3.8-1.61-1.5-.62-3.26-1.32-5.29-2.09z" fill="#ff6f1e" />
  <path d="m1720.16 736.46c-1.19.05-2.47.13-3.97.13 1.18.18 2.14.4 3.5.5.41-.17.28-.42.46-.63z" fill="#ff6f1e" />
  <path d="m2082.84 892.56c11.18-2.12 19.77-2.09 28.21-1.84 8.43.29 16.7 1.01 27.14.13l11.33 9.7c22.7-2.5 10.2-7.64 26.63-12.11 5.11 1.57 11.66 2.35 18.76 2.74 3.55.18 7.24.3 10.95.25s7.45-.17 11.11-.33c7.31-.32 14.27-.82 20.02-1.32 5.75-.47 10.27-.82 12.71-.76 6.87 4.17-8.29 6.1-11.56 8.78 6.62-.91 11.44-2.16 15.47-3.51 4.03-1.37 7.26-2.92 10.69-4.34 6.86-2.88 14.49-5.29 30.86-6.18l.67 2.5c9.71-2.06 19.73-4.16 30.01-5.97 5.14-.91 10.34-1.83 15.6-2.77 5.26-.92 10.57-1.74 15.93-2.63 10.72-1.85 21.63-3.42 32.67-5.27 5.52-.88 11.07-1.76 16.64-2.64 5.57-.93 11.16-1.86 16.77-2.79 22.43-3.84 45.1-7.88 67.36-12.95 2.78-.62 5.56-1.24 8.34-1.87 2.77-.64 5.53-1.34 8.28-2.02 5.5-1.37 10.98-2.75 16.41-4.18 10.84-3.06 21.53-6.05 31.91-9.61-5.87.85-4.85-1.39-7.48-2.7 22.2-5.79 45.14-12.36 67.97-19.81 22.84-7.41 45.5-16.09 67.05-25.85 43.11-19.37 81.57-44.39 106.66-72.24-2.56 1.67-5.27 3.36-8.11 5.05-1.43.83-2.86 1.73-4.37 2.52s-3.05 1.6-4.61 2.42c-3.13 1.62-6.36 3.24-9.68 4.88-.83.41-1.67.81-2.51 1.22-.85.38-1.71.77-2.57 1.16-1.73.77-3.47 1.54-5.23 2.32-3.53 1.55-7.1 3.13-10.75 4.68-3.68 1.47-7.4 2.96-11.16 4.46-7.47 3.1-15.22 5.82-22.86 8.81-30.69 11.7-61.45 22.53-82.8 37.7-9.78-.57-20.7 3.54-30.58 6.54-4.93 1.53-9.54 2.98-13.56 3.42-4.02.47-7.4.12-9.81-1.7-4.34.81-8.48 1.73-12.49 2.54-4.01.82-7.87 1.68-11.59 2.57-3.73.87-7.3 1.86-10.79 2.72-3.49.89-6.87 1.8-10.15 2.75-3.29.94-6.49 1.92-9.62 2.91-3.14.94-6.21 1.9-9.24 2.87-3.03.98-6.01 1.97-8.96 2.98-1.48.51-2.95 1.01-4.42 1.52-1.47.49-2.94.97-4.41 1.46-5.88 1.96-11.75 3.91-17.74 5.91-6.03 1.87-12.21 3.72-18.71 5.52-3.25.92-6.59 1.75-10.03 2.54-3.44.8-6.98 1.58-10.64 2.33-7.32 1.55-15.14 2.74-23.6 3.83-9.9-.48-5.71-5.6-9.01-9.63 8.8-1.84 17.59-3.61 26.35-5.52l13.12-2.95c4.37-.97 8.74-1.96 13.09-3.04-5.46.27-10.94.36-16.41.51-5.47.11-10.92.32-16.39.36 3.37-1.42 8.02-2.72 13.16-3.86 5.14-1.17 10.78-2.16 16.05-3.41 10.55-2.49 19.76-5.23 20.98-9.72-22.04 8.72-51.98 13.53-81.22 17.44-29.27 3.93-57.84 7.2-77.86 14.2 4.82.23 9.93.15 15.22-.1 5.3-.29 10.78-.83 16.37-1.38 2.79-.29 5.62-.57 8.45-.86 2.83-.32 5.68-.64 8.54-.96 5.71-.62 11.44-1.15 17.11-1.51 10.22 1.88 25.91 2.42 25.43 6.96-31.76 10.21-61.69 14.34-91.84 16.65-30.19 2.28-60.65 2.75-94.36 5-4.23.27-8.83.48-13.41.47-4.57-.03-9.11-.19-13.21-.53-4.1-.33-7.75-.83-10.54-1.53-2.79-.73-4.73-1.64-5.41-2.75 11.09-1.32 2.8-5.12 11.88-7.16-5.95.92-9.1 2.31-11 3.92-1.91 1.61-2.57 3.43-3.57 5.07s-2.33 3.09-5.57 3.98c-1.62.45-3.72.75-6.5.86-2.78.13-6.23.04-10.55-.35l4.87-15.26c-3.53 3.95-7.93 5.66-12.93 6.13-5 .46-10.59-.25-16.49-1.34-5.91-1.06-12.13-2.35-18.43-2.85-6.3-.56-12.69-.38-18.96 1.62-4.21-3.35-2.18-5.67 3.22-7.06 5.4-1.41 14.17-1.79 23.56-1.62-10.57-1.81-16.44-.69-21.83.89-5.38 1.53-10.27 3.5-18.76 2.71 5.69-3.94 11.34-7.99 16.96-12.04-9.4 5.76-17.48 4.5-24.37 1.28-3.45-1.61-6.6-3.73-9.5-5.75-2.9-2.06-5.54-4.03-7.99-5.31-1.5 3.08 7.16 13.88-15.39 11.14-9.54-2.6-4.25-5.43-6.35-7.51-.78 1.55-3.33 3.59-7.58 5.1-2.12.75-4.67 1.37-7.61 1.73-2.95.37-6.31.46-10.04.1-1.12-2.34 1.54-3.69 4.65-5.01 3.11-1.34 6.68-2.68 7.4-4.86-5.61-.41-10.71-.74-15.38-1.48-4.66-.75-8.89-1.93-12.72-4.2-20.19 1.13.51 6.48-12.18 9.66-15.03-3.52-15.25-7.39-13-11.72 2.26-4.33 6.96-9.12 2.04-14.46 23.43-3.15 52.65-1.88 65.09-4.22l-10.91-.21c-3.64-.06-7.28-.13-10.91-.27-7.27-.25-14.56-.44-21.83-.74 1.62-2.4-5.4-5.54-9.87-8.33-4.48-2.79-6.42-5.23 5.21-6.25-21.07-4.98-44.52-8.27-67.94-10.79-23.42-2.48-46.73-4.61-67.38-6.81 2.67 1.51 5.8 2.89 8.04 4.25 2.23 1.37 3.57 2.74 2.64 4.21-10.84-.59-15.3-2.55-17.52-4.73-2.21-2.21-2.16-4.8-3.89-7.09-8.11.09-12.21 2.29-15.68 5.07-3.47 2.77-6.3 6.09-11.84 8.18-3.8-1.84-7.2-3.42-10.28-4.85-3.08-1.41-5.87-2.6-8.43-3.66-5.14-2.1-9.42-3.66-13.49-5.38-4.08-1.69-7.98-3.44-12.36-5.88-4.39-2.4-9.19-5.68-15.12-10.17l-.82 9.02c-8.53-6.13-14.34-6.32-20.49-6.31-3.07 0-6.21.06-9.76-.6-3.54-.69-7.47-2.14-12.13-5.03-.52-2.19 7.93-1.79 14.76-1.79-9.39-1.48-12.93-4.64-16.41-7.67-3.5-3.01-6.86-6.06-16.04-7.42 5.65-1.55 11.24-3.07 16.83-4.68-6.87-2.14-15.53-4.29-21.27-6.53-5.68-2.37-8.4-4.82-3.48-7.52-6.71.2-14.34-.72-22.28-2.69-3.99-.95-8.1-2.09-12.29-3.34-4.14-1.33-8.36-2.79-12.61-4.3-2.12-.76-4.26-1.53-6.4-2.29-2.11-.82-4.23-1.64-6.35-2.45-4.25-1.61-8.49-3.23-12.66-4.81-8.44-3.3-16.72-6.16-24.56-8.38l5.24-6.03c-4.72.3-10.48-1.17-16.77-3.63-6.3-2.48-13.07-5.77-19.87-9.12-13.55-6.61-27.08-13.02-36.15-11.27l-.84-3.92c-11.58-1.93-23.26-3.79-34.89-5.62-13.47-7.44-3.79-15.67-6.29-13.3-31.53-12.75-56.48-22.69-76.02-34.29-4.42 3.75-15.46 3.27-28.76.93-3.37-.51-6.87-1.14-10.46-1.85-1.79-.37-3.6-.75-5.43-1.13-.91-.2-1.83-.4-2.74-.6-.93-.18-1.86-.36-2.79-.54-3.73-.73-7.47-1.5-11.16-2.3-1.84-.4-3.67-.81-5.48-1.2-1.82-.37-3.64-.68-5.42-1.03-16.68-5.03-34.12-8.79-51.75-11.3-17.65-2.51-35.59-3.74-53.55-3.72-35.94-.03-71.9 5.28-106.14 14.73-17.13 4.74-33.83 10.53-49.95 17.24-16.12 6.72-31.62 14.44-46.42 22.85-14.8 8.42-28.88 17.59-42.17 27.31-13.24 9.79-25.67 20.15-37.25 30.86-3.64 2.97-7.28 6.68-10.64 11.13-1.7 2.19-3.39 4.51-5.06 6.9-1.64 2.43-3.22 4.99-4.81 7.56-.79 1.29-1.58 2.59-2.38 3.89l-1.18 1.96-1.13 2.02c-1.51 2.67-3.03 5.35-4.54 8.03-1.55 2.62-2.99 5.33-4.47 7.94-1.49 2.61-2.99 5.15-4.54 7.59 2.67-2.23 4.98-4.26 7-6.15 2.03-1.89 3.77-3.65 5.41-5.24 3.24-3.21 5.68-6.12 8.13-9.02 2.5-2.85 4.94-5.76 8.04-9.09 1.55-1.67 3.36-3.34 5.38-5.21 2.04-1.84 4.29-3.89 6.99-6.01 4.5-2.62 8.61-4.36 12.57-5.51 4.01-1.08 7.81-1.62 11.57-1.99 3.73-.41 7.58-.44 11.49-.75 1.96-.14 3.96-.33 6.02-.61 2.05-.28 4.23-.55 6.46-1l-6.02-1.34c-2.01-.43-4.01-.8-6.03-1.19 2.3-2.67 4.39-4.67 6.24-6.28 1.84-1.61 3.44-2.81 4.86-3.73 2.82-1.87 5-2.46 6.94-3.09 3.94-1.2 6.94-2.33 14.32-11.35l5.96 12.78c.38-1.24 1.01-2.38 1.84-3.44s1.87-2.02 3.08-2.85c2.41-1.68 5.41-3.02 8.56-4.05 1.56-.54 3.2-.92 4.82-1.24s3.21-.58 4.74-.77c3.06-.37 5.81-.59 7.93-.48.76-3.87 1.56-7.75 2.41-11.66 2.22-.22 4.29-.52 6.32-.68 2.01-.17 3.93-.32 5.76-.47 3.65-.26 6.88-.49 9.87-.29 5.95.34 10.58 1.52 14.39 4.91l-4.44-7.9c1.95.81 6.7-.07 12.5-1.56 2.9-.71 6.1-1.49 9.34-2.28 1.62-.4 3.24-.81 4.86-1.18 1.63-.33 3.24-.65 4.8-.94 3.13-.57 6.07-1.06 8.62-1.21 2.55-.12 4.69 0 6.19.47 3 .95 3.39 3.36-.41 8.13 2.05-1.51 3.87-3.63 6.48-5.54 2.62-1.88 6.08-3.42 11.27-3.95l3.15 8.42c3.51-1.18 7.15-2.31 10.71-3.33 1.78-.53 3.55-.91 5.27-1.27s3.4-.66 5-.9c1.6-.23 3.13-.43 4.56-.49 1.43-.04 2.76 0 3.96.13 2.4.26 4.29.9 5.45 2.04-3.83 1.46-6.28 3.23-8.03 5.14s-2.79 4.07-3.8 6.16c3.74-.47 7.06-.74 10-1.21 2.94-.43 5.5-1.01 7.76-1.47 4.5-1 7.73-2.32 10.09-3.81 4.74-2.84 6.01-6.6 7.08-10.42 1.07-3.8 1.92-7.77 6.09-10.79 2.09-1.49 5.01-2.77 9.21-3.71 2.1-.51 4.52-.77 7.31-.97 2.79-.17 5.95-.34 9.52-.19l-.92 5.72 7.33-2.63c2.46-.86 4.95-1.8 7.44-2.55l7.22 4.32c1.19.73 2.38 1.41 3.55 2.17l3.5 2.28c2.8-2.11 6.17-3.56 9.98-4.36 3.79-.72 8.03-.87 12.58-.61 4.52.44 9.34 1.2 14.34 2.39 5 1.3 10.18 2.85 15.43 4.49 5.23 1.8 10.53 3.82 15.82 5.68l1.98.7 1.97.77c1.32.5 2.63 1.01 3.94 1.51 2.62.99 5.23 1.93 7.82 2.81 1.3.43 2.59.86 3.87 1.28 1.28.45 2.55.89 3.82 1.3 2.53.83 5.04 1.57 7.52 2.2 2.48.65 4.93 1.13 7.33 1.6 2.4.48 4.76.82 7.07 1.02 3.42.9 6.81 2.63 10.34 4.94 3.51 2.37 7.17 5.26 11.16 8.3 4 2.98 8.31 6.38 13.2 9.47 2.44 1.57 5.03 3.04 7.78 4.52 2.76 1.48 5.68 2.87 8.81 4.14l2.11-8.8c8.1 8.58 29.83 23.12 50.91 39.37 10.55 8.11 20.95 16.6 29.43 24.8 4.2 4.1 7.97 8.12 10.99 11.99 3.01 3.87 5.27 7.59 6.54 11.08 22.61 3.28-1.29-2.67 2.3-8.78 5.21 1.28 9.81 2.58 13.77 3.95 3.99 1.36 7.32 2.8 10.33 4.24 5.97 2.89 10.12 5.98 13.52 9.22 3.44 3.23 6.27 6.58 9.33 10.04 1.54 1.73 3.16 3.47 5 5.24.92.88 1.89 1.76 2.93 2.65 1.05.86 2.16 1.72 3.37 2.58 13.37 3.19 8.89.4 3.13-3.23-1.44-.91-2.96-1.87-4.31-2.81-1.35-.95-2.51-1.9-3.24-2.72-1.47-1.65-1.22-2.84 2.76-2.91 8.8 5.61 15.46 8.49 21.09 10.19 5.66 1.59 10.34 1.91 15.28 2.33 2.47.21 5.01.43 7.78.84 2.78.36 5.79.89 9.19 1.76s7.19 2.08 11.55 3.79c4.37 1.65 9.31 3.73 14.99 6.49 3.1 6.33-13.39-.91-19.4.39 18.26 1.71 42.39 9.04 68.55 16.82 26.14 7.79 54.31 16.13 79.82 21.18 28.21 9.89 63.86 19.5 101 28.19 2.32.55 4.65 1.1 6.98 1.65 2.33.52 4.67 1.05 7.01 1.57 4.68 1.06 9.37 2.11 14.06 3.17 9.39 2.05 18.77 4.09 28.05 6.11 9.3 1.91 18.49 3.95 27.5 5.87 4.51.97 8.97 1.93 13.37 2.87 4.4.97 8.75 1.93 13.02 2.88l1.62-3.07c6.97 2.77 14.21 4.64 21.68 5.82 7.46 1.15 15.14 1.77 22.97 2.22 7.84.37 15.84.6 23.97 1.13 8.14.45 16.4 1.15 24.79 2.6l-16.2-5.73z" fill="#ff6f1e" />
  <path d="m2482.81 789.35-6.47-6.53-7.22 2.57-3.61 1.28-3.63 1.22-14.56 4.89c6.53 2.07 11.19 1.55 16.32.38 5.13-1.16 10.69-3.15 19.17-3.82z" fill="#ff6f1e" />
  <path d="m2480.31 813.24c5.1-2.12 10.2-4.13 15.25-6.33-8.5 1.79-17.05 3.39-25.57 5.1z" fill="#ff6f1e" />
  <path d="m2091.44 820.12 3.89 1.42c19.57-.94 39.11-2.33 58.57-3.86-20.77 1.08-41.6 2.04-62.46 2.44z" fill="#ff6f1e" />
  <path d="m1715.99 722.11c3.68-.87 7.64-.3 11.57.48 3.93.77 7.85 1.7 11.45 1.38l-13.16-2.03-6.59-1.03-6.56-1.13 3.28 2.34z" fill="#ff6f1e" />
  <path d="m1492.4 590.11c-15.63 7.67-19.29-9.37-11.73 8.01 16.27 5.22 5.36-5.97 11.73-8.01z" fill="#ff6f1e" />
  <path d="m1425.38 581.68c2.26 1.05 4.33 1.86 6.24 2.47 1.91.62 3.63 1.1 5.28 1.43 3.29.67 6.2.83 9.1 1-4.76-5.41-7.98-6.57-10.94-6.41-2.99.17-5.77 1.68-9.68 1.51z" fill="#ff6f1e" />
  <path d="m1401.93 809.43c0 6.52-3.76 17.04-11.27 31.57-23.05 44.6-36.83 75.91-41.34 93.95-2.01 8.02-5.01 12.02-9.02 12.02s-6.01-2.5-6.01-7.52c0-1.5 1.75-7.76 5.26-18.79 3.01-9.51 4.51-21.8 4.51-36.83 0-31.06-8.02-55.62-24.05-73.65-16.04-18.04-37.84-27.06-65.39-27.06-65.14 0-120 35.28-164.59 105.81-49.11 77.55-73.65 159.85-73.65 246.89 0 92.06 33.56 138.08 100.71 138.08 24.05 0 46.6-5.97 67.64-17.92 38.07-21.89 65.63-47.77 82.67-77.65 6.51-11.44 12.02-17.17 16.53-17.17 3.01 0 4.51 2 4.51 5.98 0 11.47-14.03 32.17-42.09 62.06-49.11 51.85-105.48 77.76-169.1 77.76-44.6 0-79.55-14.13-104.84-42.4-25.31-28.27-37.95-67.42-37.95-117.46 0-94.06 33.69-180.62 101.09-259.68 67.38-79.06 141.17-118.58 221.34-118.58 22.04 0 40.58 3.76 55.62 11.27 10.52 5.52 26.05 17.04 46.6 34.57 5 4.51 10.02 6.76 15.03 6.76 6.01 0 11.77-4.76 17.29-14.28 2-2 4-3.01 6.01-3.01 3.01 0 4.51 1.76 4.51 5.26z" fill="#fff" />
  <path d="m1648.44 1095.78c0 58.62-26.81 111.49-80.42 158.58-42.09 37.08-85.94 55.62-131.52 55.62-31.07 0-56.63-10.78-76.66-32.32-20.05-21.54-30.06-49.35-30.06-83.42 0-29.05 8.27-58.87 24.8-89.44 16.53-30.56 38.58-56.61 66.14-78.16 43.09-33.56 84.67-50.35 124.76-50.35 30.56 0 55.36 11.03 74.41 33.07 19.04 22.05 28.56 50.86 28.56 86.43zm-57.87-48.85c0-38.07-17.04-57.12-51.11-57.12-41.59 0-77.67 29.82-108.23 89.44-29.06 57.12-43.59 110.74-43.59 160.84 0 37.58 16.78 56.37 50.36 56.37 42.09 0 77.15-27.06 105.22-81.17 31.57-61.12 47.35-117.25 47.35-168.35z" fill="#fff" />
  <path d="m2012.2 1032.94c0 12.08-6.52 32.98-19.54 62.69l-60.88 138.21c-7.02 16.11-10.52 26.94-10.52 32.47 0 10.58 5.86 15.87 17.58 15.87 14.26 0 35.15-11.52 62.66-34.57 2.54-1.5 4.58-2.25 6.12-2.25 3.05 0 4.58 1.26 4.58 3.76 0 6.01-8.35 14.79-25.05 26.31-22.78 15.54-47.07 23.3-72.88 23.3-15.69 0-28.58-3.39-38.71-10.19-10.12-6.79-15.18-15.48-15.18-26.06 0-8.55 4.76-23.66 14.28-45.32l60.13-135.19c14.53-32.72 21.8-54.88 21.8-66.46 0-17.12-8.77-25.68-26.3-25.68-23.05 0-50.11 16.53-81.17 49.6-23.56 25.06-45.09 60.13-64.64 105.22l-61.63 142.8c-2.51 7.52-5.77 11.27-9.77 11.27h-51.11c-3.5 0-5.26-1.25-5.26-3.75 0-.99.75-2.49 2.25-4.49l5.26-11.21 114.99-275.29c1.5-2.49 2.75-4.74 3.76-6.74-.5-3.49-6.76-5.48-18.79-5.98-15.03-.49-22.55-3.24-22.55-8.23 0-3.49 2.75-5.24 8.27-5.24 3.5 0 9.02.5 16.53 1.5 7.52 1.01 13.27 1.5 17.29 1.5 27.06 0 44.84-2 53.36-6.01 3.5-1.5 5.75-2.25 6.76-2.25 3.01 0 4.51 1.5 4.51 4.51 0 1.5-.26 2.76-.75 3.76l-27.81 70.65c4-4.59 9.77-10.98 17.29-19.15 37.07-39.83 72.9-59.76 107.47-59.76 20.03 0 36.32 5.67 48.85 16.99 12.52 11.33 18.79 25.81 18.79 43.43z" fill="#fff" />
  <path d="m2286.51 983.04c0 7.02-10.52 10.78-31.57 11.27h-42.09l-101.46 227.73c-11.03 24.56-16.53 40.09-16.53 46.6 0 10.52 7.76 15.78 23.3 15.78 22.55 0 42.58-11.81 60.13-35.45 4-4.92 7.01-7.39 9.02-7.39 4 0 6.01 1.76 6.01 5.26 0 6.52-8.27 17.04-24.8 31.57-19.05 16.54-41.84 24.8-68.39 24.8-18.04 0-32.69-4.5-43.97-13.49-11.27-9-16.91-20.49-16.91-34.49 0-9 5.75-25.74 17.29-50.24l98.46-210.67h-30.81c-8.53 0-12.78-1.67-12.78-5 0-6.18 3.5-9.28 10.52-9.28h6.76c2.5-.49 6.51-.75 12.02-.75 7.01 0 13.77-.25 20.29-.75l12.78-32.32c4.51-11.02 8.01-16.53 10.52-16.53s6.39.38 11.65 1.13 9.39 1.13 12.4 1.13c5.51 0 13.53-2.29 24.05-6.89 2-.92 3.76-1.37 5.26-1.37 2.5 0 3.76 1 3.76 2.97l-8.27 17.79-16.54 35.61h46.6c2.5 0 5.51-.49 9.02-1.5 3.5-1 5.51-1.5 6.01-1.5 5.51 0 8.27 2.01 8.27 6.01z" fill="#fff" />
  <path d="m2536.03 1025.61c0 26.93-14.54 49.24-43.59 66.92-29.06 17.7-65.89 26.54-110.48 26.54-16.04 0-33.82-1-53.36-3.01-18.54 38.42-27.81 74.09-27.81 107.02 0 44.4 19.79 66.6 59.38 66.6 30.56 0 60.37-15.82 89.44-47.48 6.51-6.93 10.77-10.39 12.78-10.39 2.5 0 3.76 1.25 3.76 3.72 0 11.42-11.78 25.55-35.32 42.42-27.05 19.35-55.12 29.02-84.18 29.02-32.57 0-59.37-9.49-80.42-28.49-21.04-19-31.57-42.99-31.57-72 0-55.98 30.56-110.22 91.69-162.71 53.61-45.99 101.46-68.99 143.55-68.99s66.14 16.95 66.14 50.84zm-53.36-12.51c0-15.52-7.77-23.3-23.3-23.3s-31.82 6.01-47.35 18.04c-28.07 22.05-53.87 54.86-77.41 98.46 6.01.51 12.78.75 20.29.75 28.05 0 55.36-8.51 81.92-25.55 30.56-19.04 45.85-41.83 45.85-68.39z" fill="#fff" />
  <path d="m2859.19 1032.94c0 12.08-6.52 32.98-19.54 62.69l-60.88 138.21c-7.02 16.11-10.52 26.94-10.52 32.47 0 10.58 5.86 15.87 17.58 15.87 14.26 0 35.15-11.52 62.66-34.57 2.54-1.5 4.58-2.25 6.12-2.25 3.05 0 4.58 1.26 4.58 3.76 0 6.01-8.35 14.79-25.05 26.31-22.78 15.54-47.07 23.3-72.88 23.3-15.69 0-28.58-3.39-38.71-10.19-10.12-6.79-15.18-15.48-15.18-26.06 0-8.55 4.76-23.66 14.28-45.32l60.12-135.19c14.53-32.72 21.8-54.88 21.8-66.46 0-17.12-8.77-25.68-26.3-25.68-23.05 0-50.11 16.53-81.17 49.6-23.56 25.06-45.09 60.13-64.63 105.22l-61.63 142.8c-2.51 7.52-5.77 11.27-9.77 11.27h-51.11c-3.5 0-5.26-1.25-5.26-3.75 0-.99.75-2.49 2.25-4.49l5.26-11.21 114.99-275.29c1.5-2.49 2.75-4.74 3.76-6.74-.5-3.49-6.76-5.48-18.79-5.98-15.03-.49-22.55-3.24-22.55-8.23 0-3.49 2.75-5.24 8.27-5.24 3.5 0 9.02.5 16.53 1.5 7.52 1.01 13.27 1.5 17.29 1.5 27.06 0 44.84-2 53.36-6.01 3.5-1.5 5.75-2.25 6.76-2.25 3.01 0 4.51 1.5 4.51 4.51 0 1.5-.26 2.76-.75 3.76l-27.81 70.65c4-4.59 9.77-10.98 17.29-19.15 37.07-39.83 72.9-59.76 107.47-59.76 20.03 0 36.32 5.67 48.85 16.99 12.52 11.33 18.79 25.81 18.79 43.43z" fill="#fff" />
  <path d="m3133.51 983.04c0 7.02-10.52 10.78-31.57 11.27h-42.09l-101.46 227.73c-11.03 24.56-16.53 40.09-16.53 46.6 0 10.52 7.76 15.78 23.3 15.78 22.55 0 42.58-11.81 60.13-35.45 4-4.92 7.01-7.39 9.02-7.39 4 0 6.01 1.76 6.01 5.26 0 6.52-8.27 17.04-24.8 31.57-19.05 16.54-41.84 24.8-68.39 24.8-18.04 0-32.69-4.5-43.97-13.49-11.27-9-16.91-20.49-16.91-34.49 0-9 5.75-25.74 17.29-50.24l98.46-210.67h-30.81c-8.53 0-12.78-1.67-12.78-5 0-6.18 3.5-9.28 10.52-9.28h6.76c2.5-.49 6.51-.75 12.03-.75 7.01 0 13.77-.25 20.29-.75l12.78-32.32c4.51-11.02 8.01-16.53 10.52-16.53s6.39.38 11.65 1.13 9.39 1.13 12.4 1.13c5.51 0 13.53-2.29 24.05-6.89 2-.92 3.76-1.37 5.26-1.37 2.5 0 3.76 1 3.76 2.97l-8.27 17.79-16.54 35.61h46.6c2.5 0 5.51-.49 9.02-1.5 3.5-1 5.51-1.5 6.01-1.5 5.51 0 8.27 2.01 8.27 6.01z" fill="#fff" />
  <path d="m3059.02 479.56c1.69 2.94-2.92 8.51-13.82 16.69l-8.71 11.57-3.92 11.02c-1.31 3.67-2.7 5.93-4.16 6.77-2.57 1.47-10.67.52-24.3-2.87s-28.47-2.92-44.51 1.4c9.35 11.21 27.21 20.7 53.6 28.47 4.04 1.1 6.59 2.56 7.63 4.39.63 1.1-.04 7.58-2.02 19.43l5.61 18.71c3.47 7.76 3.74 12.47.81 14.15-3.67 2.1-9.25.44-16.76-5.01-5.93-4.39-9.96-6.95-12.08-7.69-2.13-.72-6.65-1.18-13.57-1.36-6.92-.16-11.12-1.54-12.59-4.11-.48-1.67-.58-3.56-.32-5.66-.29-18.35-4.64-34.85-13.05-49.53-1.26-2.2-2.61-4.1-4.02-5.73-6.17 11.34-9.51 25.92-10 43.74 1.54 13.74.66 21.55-2.64 23.44-.74.42-4.15 1.04-10.26 1.86-6.1.83-10.45 1.97-13.01 3.44-2.2 1.26-5.05 3.51-8.56 6.74-3.51 3.24-6.18 5.37-8.01 6.42-4.77 2.73-7.99 2.64-9.67-.3-.27-1.31-.16-2.83.31-4.56 2.81-10.38 4.12-17.46 3.9-21.24-.22-3.77-1.07-10.35-2.54-19.74-.69-5.45.98-9.33 5.02-11.65-.37.21 1.86-.58 6.68-2.37l27.5-15.77c5.13-2.94 10.24-8.06 15.31-15.36-15.79-3.12-32.43-1.87-49.93 3.78-11.17 4.94-18 5.21-20.53.81l-2.84-4.95c-1.05-1.83-2.42-4.21-4.1-7.15-2.52-4.4-9.56-9.87-21.1-16.41-2.52-.99-4.3-2.4-5.35-4.24-1.26-2.2-.79-3.93 1.41-5.19 3.66-2.1 10.32-3.23 19.97-3.41 6.82 0 11.32-.65 13.52-1.91 2.93-1.68 5.58-3.44 7.94-5.28.89-.99 2.44-2.13 4.63-3.39 5.5-3.15 11.24-.35 17.23 8.39 8.04 11.47 21.58 21.5 40.62 30.06-1.59-11.26-5.32-22.04-11.21-32.31-1.68-2.93-4.47-6.94-8.35-12.02-3.89-5.08-6.46-8.72-7.72-10.92-1.47-2.56.3-7.96 5.32-16.21 6.8-10.23 10.59-16.78 11.38-19.68 2.66-9.8 4.72-15.13 6.19-15.97 2.93-1.68 5.66-.32 8.18 4.08.84 1.47 1.79 3.98 2.84 7.51 1.05 3.54 2.11 6.23 3.16 8.06 3.79 6.6 8.71 11.81 14.81 15.63 3.15 2.1 5.15 3.88 5.98 5.34 1.47 2.57-1.36 9.55-8.46 20.93-10.82 22.77-15.15 38.17-12.99 46.18 2.77-1.1 5.63-2.5 8.57-4.18 12.1-6.94 22.54-18.04 31.33-33.31 2.4-4.3 4.71-7.08 6.91-8.35 2.56-1.47 8.05.02 16.44 4.46 2.15 1.21 7.63 2.69 16.44 4.46l15.8-1.75c3.19-.37 5.22.18 6.06 1.64z" fill="#ff5d01" />
</svg>
