<?xml version="1.0" encoding="utf-8"?>
<!-- Generator: Adobe Illustrator 26.4.0, SVG Export Plug-In . SVG Version: 6.00 Build 0)  -->
<svg version="1.1" id="Layer_1" xmlns="http://www.w3.org/2000/svg" xmlns:xlink="http://www.w3.org/1999/xlink" x="0px" y="0px"
	 viewBox="0 0 3755.8 1690.9" style="enable-background:new 0 0 3755.8 1690.9;" xml:space="preserve">
<style type="text/css">
	.st0{fill:#110530;}
	.st1{fill-rule:evenodd;clip-rule:evenodd;fill:#FFFFFF;}
	.st2{fill:#FF6F1E;}
	.st3{fill:#FFFFFF;}
	.st4{fill:#FF5D01;}
</style>
<path class="st0" d="M3513.2,1666.3H242.7c-103.4,0-188-84.6-188-188V212.6c0-103.4,84.6-188,188-188h3270.5
	c103.4,0,188,84.6,188,188v1265.7C3701.1,1581.7,3616.5,1666.3,3513.2,1666.3z"/>
<g id="Layer_1_00000124862040667696175440000006943376018087310220_">
	<path class="st1" d="M904.1,317.6c9.5,11.8,14.4,27.8,24.2,59.8l212.8,698.9c-78.7-40.8-164.2-70.2-254.4-86.1L748.1,522.1
		c-2.3-7.7-9.3-12.9-17.3-12.9s-15.1,5.3-17.3,13L576.7,990c-90.6,15.8-176.5,45.3-255.5,86.3l213.8-699
		c9.8-31.9,14.7-47.9,24.2-59.7c8.4-10.5,19.4-18.6,31.8-23.6c14.1-5.7,30.8-5.7,64.2-5.7h152.7c33.4,0,50.2,0,64.3,5.7
		C884.7,299,895.7,307.1,904.1,317.6L904.1,317.6z"/>
	<g>
		<path class="st2" d="M927.7,1110.2c-1.8-3.1-2.6-2.3-2.8,0.3c-0.2,2.6-0.1,6.8-0.2,10.6c2.5,1.7,5,3.5,7.5,5.4
			C931.1,1121,929.6,1115.5,927.7,1110.2L927.7,1110.2z"/>
		<path class="st2" d="M932.9,1147.6c2.5,6.2,4.6,12.7,6.3,19.4c-0.7-4.8-1.6-9.5-2.8-14.2c0.7-3.9,1.4-5.8,2.2-6.3
			c0.8-0.5,1.6,0.4,2.4,2s1.5,3.9,2.1,6.2c0.6,2.3,0.9,4.6,1.2,6.2c-0.2-6.7-1.1-10.6-2-12.8c-0.9-2.2-2-2.6-3.1-2.3
			C937,1146.4,934.8,1149.5,932.9,1147.6L932.9,1147.6z"/>
		<path class="st2" d="M935.3,1185.7c-0.4,1.5-0.6,2.8-0.8,3.9c-0.2,1.1-0.2,2-0.2,2.7c0,1.4,0.4,2.1,1,2.2c1.1,0.3,3-1.5,4.2-4
			c-0.8-0.6-1.2-3.1-1.8-4.7C937.1,1184,936.4,1183.2,935.3,1185.7L935.3,1185.7z"/>
		<path class="st2" d="M563.4,1238.6c0,1.1,0.2,2.3,0.2,3.3s0,1.8-0.6,2.1c1,0.7,1.7,0.8,1.8,0.1
			C565,1243.3,564.5,1241.7,563.4,1238.6L563.4,1238.6z"/>
		<path class="st2" d="M563,1244c-0.4-0.3-0.8-0.5-1.3-0.9c0.3,0.4,0.5,0.7,0.9,1.1C562.8,1244.2,562.9,1244.1,563,1244L563,1244z"
			/>
		<path class="st2" d="M656.8,1320.7c0.8,3.3,1.2,6.3,1.5,9.3c0.1,0.8,0.1,1.5,0.2,2.3c0,0.9,0.1,1.8,0.2,2.6
			c0.1,1.7,0.1,3.4,0.3,5.1c0.4,6.7,0.9,13.3,3,21.3c-1.2,3.3-2.2,6.7-3.2,10.2c0.8,2.2,1.4,3.9,2,5.3c0.2,0.6,0.7,1.7,1.1,2.4
			c0.4,0.8,0.7,1.5,1,2.1c1.3,2.4,2.2,3.4,3,4.1c0.9,0.7,1.8,1.2,3,2.6c0.6,0.7,1.3,1.6,2.1,2.8c0.4,0.6,0.8,1.3,1.3,2.1
			c0.5,0.8,1.1,1.6,1.7,2.6c0.8,2.9,1.8,6.2,3.3,9.6c0.7,1.7,1.4,3.5,2.3,5.2c0.9,1.7,1.8,3.5,2.7,5.2c0.5,0.9,0.9,1.8,1.5,2.7
			c0.5,0.8,1,1.7,1.6,2.6c0.5,0.9,1.1,1.7,1.6,2.6s1.1,1.7,1.7,2.5l3.5,4.8c0.6,0.8,1.2,1.6,1.8,2.3l1.8,2.2c2.3,3,4.8,5.5,7.1,8.1
			c1.1,1.2,2.3,2.3,3.4,3.4c1.1,1.1,2.1,2.1,3.1,3c2,1.8,3.8,3.5,5.3,4.8s2.7,2.3,3.6,3.1c2.1,3.6,0.5,3.2-2.1,1.9
			c-2.6-1.2-6.1-3.8-7.5-4.1c2.5,2,4.6,3.7,6.5,4.9c1.9,1.2,3.6,2.3,5.2,3c1.5,0.8,2.9,1.4,4.2,1.9s2.6,0.9,3.9,1.4
			c0.6,0.2,1.3,0.5,1.9,0.8c0.7,0.2,1.3,0.5,2,0.8c1.4,0.5,2.9,1.3,4.6,2.1c0.9,0.4,1.8,0.8,2.7,1.3c1,0.5,2,1.1,3.1,1.6
			c2.2,1.2,4.8,2.5,7.7,4.1l0.6,2c3.9,1.4,7.9,2.8,11.9,4.2c2,0.7,4.1,1.5,6.1,2.2c2.1,0.8,4.2,1.5,6.3,2.3c4.4,1.6,8.9,3.3,13.5,5
			c1.2,0.4,2.3,0.9,3.5,1.3l-0.7-1.1c-0.4-0.7-0.7-1.4-1-2.2c-0.5-1.4-0.6-2.7-0.1-3.9c0.4-1.2,1.4-2.2,3.2-2.9
			c1.9-0.7,4.5-1.1,9-0.8c0.2,0,0.5,0,0.9,0.1l1,0.1l1.9,0.2l0.5,0.1c0.1,0,0.3,0,0.5,0.1l1.2,0.2l2.4,0.4l1.2,0.2
			c0.2,0,0.5,0.1,0.8,0.2l0.8,0.2l3.3,0.8l3.3,0.8l1.6,0.4c0.5,0.1,1,0.2,1.8,0.4c-5.3-11.8-10.6-23.7-15.9-35.5l-5.5-12.6l-2.7-6.3
			l-1.4-3.1l-0.3-0.8c-0.1-0.3-0.1-0.4-0.2-0.6l-0.4-1.1l-3.1-8.5l-1.5-4.2l-0.4-1.1l-0.2-0.5c0-0.1,0-0.2-0.1-0.4l-0.2-1.4
			l-0.8-5.5l-0.4-2.8v-2.3v-4.6v-1.2l0.1-1.1l0.2-2.1c0.2-1.4,0.3-2.8,0.5-4.2l0.9-3.9c0.3-1.3,0.5-2.6,1-3.8v-0.1l0,0l0.1-0.1
			l0.1-0.2l0,0v-0.1l0.1-0.2l0.1-0.4l0.3-0.8c0.4-1.1,0.8-2.1,1.2-3.1c1.7-4.1,3.8-8.1,6.4-11.9c2.6-3.8,5.7-7.6,9.2-11.4
			c-2.5,1.9-2.6,0.6-4.3,0.6c8.6-8.8,20.3-17,32.8-25.5s25.8-17.6,37.9-27.9c6-5.2,11.8-10.8,17-16.5c2.6-2.9,5.1-5.8,7.4-8.9
			c2.4-3,4.5-6.1,6.5-9.2c8.1-12.4,13.4-25.4,16.1-37.3c-1.7,3.7-3.9,7.5-6.3,11.6c-1.3,1.9-2.7,3.9-4,6c-0.7,1-1.5,2-2.2,3
			s-1.5,2-2.3,3c-6.4,8-14.1,15.8-22.2,23.1c-16.2,14.5-34.3,26.4-45.5,39c-6,1.7-12.2,6-17.6,9.9c-5.4,3.8-10,7.1-13.5,6.4
			c-8,5.3-14.5,10.8-19.4,16.6c-4.9,5.8-8.4,11.7-10.8,17.7c-0.3,0.7-0.6,1.5-0.9,2.3c-0.3,0.8-0.5,1.5-0.8,2.3
			c-0.4,1.5-0.9,3-1.2,4.6l-0.3,1.2c-0.1,0.5-0.3,1-0.4,1.5c-0.2,1-0.4,2-0.6,3.1l-0.3,1.6l-0.2,1.6c-0.1,1.1-0.2,2.2-0.4,3.3
			c-0.1,1.2-0.1,2.4-0.2,3.6c0,1.2-0.1,2.4,0,3.8s0.2,2.8,0.2,4.1l0.1,1.1c0.1,0.4,0.2,0.9,0.3,1.4c0.2,0.9,0.4,1.8,0.7,2.8
			c0.2,0.9,0.5,1.9,0.7,2.8l0.3,1.4l0.2,0.7l0.3,0.9l2.6,7.8c0.5,1.4,0.9,2.7,1.4,4.1c0.7,1.8,1.4,3.6,2,5.4
			c1.4,3.7,2.8,7.4,4.2,11.2c-0.4,0.2-0.5,0.4-0.8,0.6l-0.8,0.6c-0.5,0.4-1.1,0.8-1.7,1.1c-0.3,0.2-0.6,0.3-0.9,0.6l-0.6,0.6
			c-0.4,0.4-0.9,0.8-1.3,1.2c-1.5,1.8-2.8,3.6-3.6,5.5c-1.3,0.7-2.3-0.7-3.4-3c-1.2-2.2-2.5-5.4-3.8-7.4c-0.4-3.8-0.6-7.7-0.5-11.6
			l0.1-3l0.3-3c0-0.5,0.1-1,0.2-1.5l0.2-1.5c0.2-1,0.2-2,0.4-3l-1.4-5.8l-0.7-2.8c-0.2-0.8-0.3-1.6-0.4-2.4l-0.7-4.5
			c-0.1-0.4-0.1-0.7-0.1-1l-0.1-1l-0.1-1.9c-0.1,1.1-0.3,2.1-0.4,3.2c0,1.2-0.1,2.2-0.2,3.3l-0.1,1.6c0,0.6,0,1.1-0.1,1.7
			c-0.1,1.1-0.2,2.1-0.3,3c-0.6,1-1,2-1.4,3c-0.4,1.1-0.7,2.2-0.8,3.3c-0.3-1.1-0.4-1.9-0.5-2.8s-0.2-1.8-0.3-2.7
			c-0.1-1.8-0.2-3.8-0.2-5.7c-0.1-5.3,0.4-11,0.8-15.7c0.3-4.8,0.6-8.5-0.7-10.1c-0.3,3.4-0.6,7.2-0.9,11.3
			c-0.2,4.1-0.4,8.4-0.4,12.8c0,7,0.5,14.3,1.6,21.6c1.2,7.3,3,14.5,5.5,21.6c1.3,3.6,2.7,7.1,4.3,10.6c0.4,0.9,0.8,1.8,1.2,2.7
			l0.1,0.2v0.1c0,0,0,0-0.1,0l-0.3-0.1l-0.5-0.1l-1-0.3c-0.7-0.2-1.4-0.3-2-0.5c-0.7-0.2-1.3-0.3-2-0.5c-1.3-0.3-2.7-0.9-4-1.4
			s-2.5-0.9-3.7-1.4c-1.2-0.4-2.4-0.8-3.5-1.2c-1.1-0.4-2.2-0.7-3.2-1c5.6,4.2,12.1,7.6,19,10.5c0.9,0.4,1.7,0.7,2.6,1.1l0.7,0.3
			l0.3,0.1c0-0.1-0.1-0.2-0.1-0.3l-0.6-1.2c-0.4-0.8-0.8-1.6-1.1-2.4c-0.4-0.8-0.7-1.6-1-2.5c-1.4-3.3-2.5-6.6-3.3-9.7
			c-0.2-1.4-0.3-3.6,0.2-4.5s1.7-0.5,3,2.6c0.6,5.8,1.4,10.8,2.5,15.2c1.1,4.5,2.6,8.5,4.2,12.2c0.4,0.9,0.9,1.8,1.3,2.7
			c0,0,0.1,0.1,0,0.1h-0.1l-0.2-0.1l-0.5-0.2l-1-0.4l-1.9-0.7c-1.3-0.5-2.5-1-3.8-1.5c-1.2-0.5-2.5-1-3.8-1.6
			c-5-2.2-9.8-4.6-14.5-7.2s-9.3-5.4-13.9-8.5c-4.6-3.1-9-6.6-13.5-10.4c-4.4-3.8-8.7-8-13-12.5c-1-1.2-2.1-2.3-3.2-3.5
			c-1-1.2-2.1-2.4-3.2-3.6c-2.1-2.5-4.2-5.1-6.2-7.8c-0.5-0.7-1-1.4-1.6-2.1c-0.5-0.8-1-1.5-1.5-2.3c-1-1.6-2.1-3.1-3-4.8
			c-2-3.3-3.7-6.9-5.2-10.2c-1.3-3.4-2.5-6.4-3-8.9c-0.6-2.5-0.8-4.2-0.4-5.1c2,4.1,2.9,4.2,3.7,4.1s1.5-0.4,3.4,2.4
			c-1.2-1.9-2.1-3.4-2.9-4.5s-1.6-1.8-2.3-2.3c-1.3-1-2.4-1-3.5-1.4s-2.3-1.1-3.6-3.6c-0.7-1.3-1.4-3-2.2-5.3
			c-0.3-1-0.6-2.1-0.9-3.3s-0.6-2.6-0.9-4.1c3,0.4,6,0.8,9,1.1c-5.5-3.5-6.6-11.1-6.6-19.4c0-1,0-2.1,0-3.2s0.1-2.2,0.1-3.2
			c0-2.2,0.2-4.4,0.2-6.6c0-1.1,0-2.2,0-3.2s-0.1-2.1-0.2-3.1c-0.2-2.1-0.6-4.1-1.3-6c1.7-2.8,3.1-1.7,4,1.8c1,3.4,1.4,9.1,1.8,15.5
			c0.5-7.3-0.2-11-1.3-14.4c-1-3.4-2.3-6.5-2.3-11.9c2.5,3.3,5,6.8,7.5,10.3c-3.5-5.9-3.3-11.1-2-15.7c1.3-4.7,3.6-8.9,4.3-12.4
			c-0.9-0.3-2.6,1.3-4.2,1.1c-1.7-0.2-3-2.2-4.1-9.1c-0.2-3.1,0.2-3.9,0.9-4.3s1.5-0.1,1.8-0.9c-0.5-0.1-1.1-0.4-1.9-1
			c-0.8-0.6-1.6-1.3-2.5-2.4c-1.9-2-3.8-4.9-6.1-8.5c0.3-0.7,0.9-0.8,1.5-0.6c0.3,0.1,0.7,0.2,1.1,0.4c0.4,0.2,0.8,0.5,1.2,0.8
			c1.7,1.2,3.4,2.8,4.7,2.6c-1.5-3.4-3.3-6.2-5-8.9c-1.6-2.7-3.3-5-4.6-7.7c-2.9-1.9-4.5-2.4-5.3-2.4s-0.8,0.5-0.8,1.2
			c0.1,0.6,0.2,1.4-0.1,1.8c-0.2,0.2-0.5,0.3-0.9,0.4c-0.5,0-1.1-0.1-2.1-0.2c-1.7-1.4-3.2-2.3-4.2-3.3c-1.1-0.8-1.8-1.5-2.2-2.2
			c-0.8-1.3-0.3-2.4,0.6-3.4c0.9-1,2.4-1.9,3.2-3.1c0.9-1.2,1.2-2.5-0.5-4.6c4.5,0.7,9.5,2.3,14.1,4.9s8.9,6.1,12.3,9.9
			c3.4,3.8,6,7.8,8,11.3c1,1.8,1.8,3.4,2.6,4.9c0.7,1.5,1.4,2.8,2,3.9c-2-5.5-4.5-11.1-8.1-16.4c-3.5-5.3-8.2-10.3-13.5-14.1
			c0.9-0.2,0.3-1.6-1.1-3.3c-0.3-0.4-0.7-0.9-1.1-1.4c-0.4-0.5-0.9-0.9-1.3-1.4c-0.9-0.9-1.9-1.9-2.8-2.7c-1.7-1.6-3-2.8-2.6-3.3
			c0.2-0.2,0.9-0.2,2.3,0c0.7,0.1,1.5,0.4,2.5,0.7c1,0.4,2.1,0.9,3.5,1.5c-4.5-3.3-9.4-5.6-14.4-7.4c-5.1-1.9-10.1-2.8-15.1-3.5
			c-1.2-0.1-2.5-0.2-3.7-0.3l-1.9-0.1l-1.8-0.1c-1.2,0-2.4,0-3.6-0.1c-0.6,0-1.3,0-2,0.1l-2,0.1l-4,0.3c-1.3,0.1-2.7,0.4-4,0.6
			l-4,0.7c-1.3,0.3-2.6,0.7-3.9,1.1c-10.3,3-19.8,8.3-27.5,15l-1.5,1.2l0,0c0,0-0.1,0.1,0.1-0.1l0.4-0.3l0.2-0.1v0.1l-0.1,0.1
			l-0.2,0.3l-0.9,1.1c-0.3,0.3-0.6,0.7-0.8,1.1c-0.3,0.4-0.5,0.8-0.8,1.2c-1,1.6-2,3.4-2.8,5.3c-0.2,0.4-0.4,0.8-0.5,1.2
			c0.2-0.1,0.4-0.2,0.7-0.4c0.6-0.3,1.1-0.7,1.7-0.8c0.5,0,1,0.2,1.1,1.2c-0.9,1.5-1.4,2.8-1.9,3.6c-0.2,0.3-0.3,0.5-0.5,0.7
			c-0.1,0.2-0.2,0.4-0.4,0.6c-0.2,0.3-0.4,0.5-0.6,0.7c-0.4,0.2-0.6,0.1-0.8-0.2c-0.4-0.6-0.7-1.9-1-2.5c-0.4,2-0.5,4-0.7,6
			c-0.1,2.1-0.2,4.2-0.1,6.3v6.8c0,1.1,0,2.4,0,3.8c0,1.2,0,2.6,0,4.2c0,0.3-0.1,0.6-0.1,0.9c0,0.1,0,0.3,0,0.4s0,0.4-0.2,0
			c-0.6-1.1-1.3-2-1.8-3c-1.2-1.8-2.2-3.3-3-4.8c-0.8-1.3-1.6-2.6-2.3-3.7s-1.3-2.2-1.9-3.2c-1.2-2.1-2.2-4.2-3.2-6.9
			c-0.5-1.3-1-2.8-1.4-4.5s-0.8-3.4-1.1-5.5c-0.8,2-1.6,4.1-2.4,6.1c-0.7-3.1-1.4-4.8-2.2-6.1c-0.8-1.3-1.8-2-2.8-2.8
			s-2.1-1.7-3-3.2s-1.8-3.4-2.1-6.2c0.4-0.5,1.2,0,2.2,0.9c1,0.8,2.2,2,3.2,2.8c-1.2-1.6-1.8-3-2-4.2c-0.2-1.3-0.1-2.3,0-3.3
			c0-0.1,0-0.2,0-0.4v-0.5c0-0.4,0-0.7,0-1.1c-0.1-0.7-0.1-1.5-0.3-2.3c-0.4-1.7-1.1-3.6-2.4-6.1l4.1,3.3l4.1,3.1
			c-0.8-2-1.8-4.2-2.7-6.5c-0.4-1.1-0.9-2.2-1.2-3.2c-0.3-1.1-0.7-2.1-0.9-3c-0.5-1.8-0.7-3.3-0.4-4.1c0.3-0.8,1.1-1,2.5-0.2
			c-1.2-1.6-2.3-3.5-3.3-5.6s-1.9-4.3-2.8-6.7c-1.7-4.8-3-10.1-4-15.7c-1-5.5-1.8-11.2-2.4-16.7c-0.1-1.4-0.3-2.7-0.5-4.1
			c-0.1-0.7-0.1-1.3-0.2-2l-0.1-1l-0.1-0.6c-0.3-1.5-0.5-3-0.9-4.5c1.4,0.6,2.8,1.1,4.3,1.6c-1.3-1.4-1.9-3.5-2.1-5.9
			c-0.2-2.3-0.1-4.8,0.2-7.3c0.2-2.5,0.5-4.9,0.4-7.6c0-2.7-0.4-5.7-1.5-9.4c0.6,0.6,1.1,1.1,1.7,1.7c-0.4-3.4-0.7-7-0.8-10.9
			c0-1,0-1.9-0.1-2.9v-1.5v-0.8c0-0.2,0-0.7,0-0.5c0.1,0,0.2,0.1,0.4,0.2c0.1,0.1,0.3,0.2,0.5,0.2c0.5,0.8,1,1.7,1.5,2.5
			s1,1.7,1.4,2.5c0.8,1.7,1.5,3.2,2,4.6c1,2.6,1.4,4.3,1.1,3c1.5,1.5,3,2.9,4.7,4.2c3.3,2.6,6.8,5,10,7.2c1.6,1.1,3.2,2.2,4.6,3.2
			c0.2,0.1,0.4,0.3,0.6,0.4l0.7,0.5c0.4,0.3,0.9,0.6,1.3,0.9c0.4,0.3,0.8,0.6,1.2,0.9c0.6,0.4,1.3,0.8,1.9,1.2
			c3-1.8,10.2-0.2,18.9,1.9c8.7,2.2,19,5.1,28.2,7.3c21.6,7.1,44.4,11.5,67.5,13.7c23,2.2,46.3,2.2,69.2,0.3
			c2.9-0.2,5.7-0.5,8.6-0.8c2.8-0.3,5.7-0.7,8.5-1c5.7-0.6,11.3-1.6,16.9-2.5c1.4-0.2,2.8-0.4,4.2-0.7l4.2-0.8
			c2.8-0.6,5.5-1.1,8.3-1.7c2.7-0.6,5.5-1.3,8.2-2s5.4-1.3,8.1-2.1c5.3-1.5,10.7-3,15.8-4.8c2.6-0.9,5.2-1.7,7.8-2.6
			c2.5-1,5.1-1.9,7.6-2.9c1.3-0.5,2.5-0.9,3.8-1.5c1.2-0.5,2.5-1.1,3.7-1.6c2.5-1.1,4.9-2.1,7.3-3.2c4.8-2.3,9.5-4.5,14-7.1
			c1.4-0.7,2.8-1.4,4.3-2.3c0.7-0.4,1.4-0.9,2.2-1.4c0.7-0.5,1.4-1.1,2.1-1.6c1.4-1.1,2.9-2.3,4.3-3.5s2.8-2.7,4.2-4
			c1.4-1.4,2.8-2.8,4.1-4.2c1.3-1.5,2.6-3,3.9-4.5l1.9-2.2c0.6-0.8,1.2-1.5,1.8-2.3c1.2-1.5,2.3-2.9,3.5-4.3
			c-7.2,5-11,7.9-14.8,10.9c-2,1.5-3.9,3-6.3,4.7c-2.5,1.6-5.5,3.3-9.5,5.3c-3.2,1-6.1,1.6-8.7,1.9c-1.3,0.2-2.6,0.2-3.8,0.1
			c-1.2,0-2.5-0.1-3.7-0.2c-2.4-0.2-4.7-0.4-7.2-0.8c-2.5-0.3-5.1-0.5-8.1-0.5c2.3,0.9,4.6,1.8,7,2.7c-2,1.2-3.6,2.1-5.1,2.8
			c-1.4,0.7-2.7,1.2-3.7,1.5c-2.1,0.7-3.6,0.8-4.9,0.9s-2.5,0.2-4.2,0.9c-1.6,0.7-3.8,1.7-6.9,3.8l-1.4-7.7
			c-0.9,1.3-2.5,2.2-4.3,2.9c-1.8,0.7-4,1-6.2,1.2s-4.5,0.2-6.5,0.1s-3.9-0.4-5.2-0.7l-3.6,6.2c-1.5-0.1-2.9-0.2-4.2-0.3
			c-1.3-0.1-2.6-0.3-3.8-0.4c-2.4-0.3-4.6-0.5-6.5-0.9c-3.8-0.7-6.7-2-8.7-4.2l1.7,4.8c-1.1-0.7-4.4-0.6-8.5-0.4
			c-4,0.2-8.9,0.4-13.2,0.5c-2.2,0.1-4.2-0.1-5.9-0.2c-1.7-0.2-3.1-0.4-4.1-0.8c-1.9-0.8-1.9-2.2,1.3-4.4c-3.2,1.2-6,4.1-13.2,3.6
			l-1.2-4.9c-10.2,1.6-21.6,2.1-24.4-0.8c5.5-1,7.4-3.1,9.3-5.3c-5.3-0.2-9.4-0.2-12.7,0c-3.2,0.2-5.6,0.7-7.3,1.3
			c-3.5,1.2-4.7,3.2-5.6,5.3c-1,2-1.8,4.1-4.9,5.5s-8.2,2.1-17.9,1l0.9-3.1c-3.4,0.7-6.8,1.4-10.2,2c-3.2-1.8-6.3-3.8-9.5-5.7
			c-1.9,1-4.2,1.6-6.8,1.8c-2.6,0.3-5.4,0.1-8.5-0.3c-6-0.9-12.9-2.8-19.7-5.3c-6.9-2.5-13.8-5.4-20.4-8.1
			c-6.6-2.7-12.7-5.1-18.4-6.3c-1.4-0.6-2.7-1.3-4.1-2.2c-1.4-0.9-2.7-1.6-4.4-3c-1.6-1.3-3.2-2.6-5-4.1c-0.9-0.7-1.8-1.7-2.7-2.7
			s-1.8-2-2.8-3.1c-0.5-0.5-1-1.1-1.5-1.6l-0.8-0.8l-0.4-0.4c-0.1-0.1-0.3-0.4-0.4-0.6c-1.1-1.7-2.2-3.5-3.3-5.2
			c-1.1-1.8-2.3-3.7-3.5-5.6c-1.3-2.2-2.7-4.4-4.1-6.7c-3.1-4.9-6.2-10-9.5-15.4c-3.7-5.8-7.5-11.9-11.5-18.2
			c-0.3,0.5-0.6,1.1-1,1.6l-0.5,0.8c-0.2,0.3-0.3,0.6-0.5,0.8c0.7,2.1,1.5,4.1,2.2,6.2c0.8,2.1,1.5,4.2,2.2,6.4c-0.2,0-0.5,0-0.8,0
			c-0.1,0-0.3,0-0.4,0c-0.1,0-0.2,0-0.4-0.1c-0.5-0.1-1-0.1-1.6-0.1c-0.5,0-1.1,0-1.7,0.1c-0.3,0-0.6,0.1-0.9,0.2
			c-0.3,0-0.5-0.1-0.8-0.1c-0.5-0.1-1.1-0.1-1.7-0.1c-0.3,0-0.6,0-0.9,0c-0.1,0-0.3,0-0.4-0.1l-0.4-0.1c-0.5-0.2-1-0.3-1.6-0.4
			c-0.3-0.1-0.6-0.1-0.8-0.2s-0.5-0.3-0.7-0.4c-0.5-0.3-0.9-0.5-1.4-0.8c-0.4-0.4-0.8-0.8-1.2-1.2l-0.6-0.6c0,0,0-0.1-0.1,0
			l-0.1,0.2l-0.2,0.4l-0.4,0.9c-0.5,1.2-1.1,2.3-1.6,3.5c-2.1,4.8-4.2,9.7-6.4,14.6c-2.1,4.9-4.3,9.8-6.5,14.7
			c-2.3,4.8-4.3,9.9-6.3,14.8c-3.9,9.8-7.3,19.1-10.6,24.2c0.2,3.5,0.4,6,0.6,7.8s0.4,2.9,0.5,3.4c0.3,1.1,0.5,0,0.7-1.9
			c0.5-3.7,1.3-10.3,3.2-9.1c0.1,12.3,0.6,21.4,0.4,28.8c0,0.9,0,1.8-0.1,2.7c0,0.4,0,0.8,0,1.3s0,0.7,0,1c-0.1,1.1-0.1,2.1-0.2,3.1
			c-0.2,2-0.5,3.7-0.8,5.3c-1.3,6.5-3.6,11.3-4,19.7c1.2,4.7,1.9,6.1,2.2,5.7s0.2-2.5,0.3-4.9c0-4.8,0.2-10.7,2.6-5.8
			c-0.1,7.3,0.6,12.4,1.7,16.4c1,4,2.4,6.9,3.9,10.1c0.8,1.6,1.5,3.2,2.3,4.9c0.8,1.8,1.6,3.8,2.4,6.1c1.7,4.7,3.4,10.7,5.6,19.4
			c-0.7,2.2-1.9,0.1-3.3-2.8c-1.4-2.9-2.9-6.8-4.3-8.3c1.5,2.9,3,6.1,4.7,9.5c1.7,3.7,3.6,7.7,5.5,11.9c1.4,2.9,2.7,6,4.3,9
			s3.1,6.1,4.8,9.2c1.7,3,3.5,6,5.3,9.1l0.7,1.2l0.7,1.1c0.5,0.7,1,1.5,1.4,2.2c1,1.5,1.9,3,2.9,4.5c4,5.8,8.1,11.5,12.5,16.8l1.6,2
			c0.5,0.7,1.1,1.3,1.7,1.9l3.4,3.7c2.2,2.5,4.5,5,6.8,7.4c2.3,2.5,4.5,4.9,6.8,7.4c1.2,1.2,2.3,2.5,3.5,3.7s2.3,2.5,3.5,3.7
			s2.4,2.5,3.5,3.7c0.6,0.6,1.2,1.2,1.8,1.8l0.9,0.9l0.4,0.4l0.2,0.2c0.1,0.1,0.2,0.2,0.2,0.2c0.1-0.1,0.3-0.3,0.5-0.4l0.2-0.2
			l0.1-0.1c0-0.1,0.2,0,0.2,0c0.3,0.2,0.7,0.4,1,0.7l0.5,0.3l0.3,0.2l0.1,0.1l0.2,0.2c0.6,0.5,1.2,1,1.9,1.6c0.3,0.3,0.6,0.5,1,0.8
			l0.5,0.4l0.2,0.2l0.4,0.4c1.1,1,2.2,2,3.3,3c0.6,0.5,1.1,1,1.7,1.6l0.9,0.8l1.3,1.3c1.9,1.8,3.7,3.6,5.6,5.4
			c1,0.9,1.9,1.9,2.9,2.8c1.3,1.3,2.7,2.6,4,4c0.5-7,1-14.1,1.6-21.2c0.1-1.7,0.3-3.4,0.4-5.1c0.1-1.4,0.2-2.8,0.3-4.2
			c0.2-2.8,0.5-5.7,0.7-8.6s0.5-5.8,0.7-8.7c0.1-1.5,0.2-2.9,0.4-4.4c0.1-1.1,0.2-2.2,0.3-3.4c0.4-4.3,0.8-8.7,1.2-13.1l0.3-3.3
			l0.1-0.8c0-0.1,0-0.3,0-0.4l0.1-0.2l0.4-0.9c0.5-1.2,1.1-2.3,1.6-3.5s1.1-2.4,1.6-3.5l0.8-1.8l0.2-0.4l0.1-0.2v-0.1
			c0.1-0.1-0.1,0,0.3-0.3l0.8-0.8c0.2-0.2,0.1-0.1,0.1-0.1l0,0l0,0h0.1c1-0.4,1.7-1.1,2.7-1.4c1.8-0.9,3.8-1.3,5.8-1.8
			c1,0,2-0.3,3-0.2c0.5,0,1-0.1,1.5,0s1,0.1,1.5,0.2h0.4c0.1,0,0.2,0,0.4,0l1.1,0.2c0.7,0.1,1.5,0.1,2.1,0.3
			c0.6,0.2,1.3,0.2,1.9,0.4c0.5,0.2,1.1,0.3,1.6,0.5c2,0.7,3.1,1.5,3.5,2.1c0.3,0.5,0.2,1,0.1,1.5c-0.1,0.5,0,1.3,0.1,2.8l1.8-0.5
			c-0.4,2-0.3,4.2,0,7.1s0.8,6.2,1.2,10c0.9,7.6,1.5,16.9,0.4,27.8C655.1,1327.3,656,1324,656.8,1320.7L656.8,1320.7z"/>
		<path class="st2" d="M762.6,1364.3c-0.9,0.3-1.8,0.7-2.7,1.1l-1.3,0.6l-0.7,0.3l-0.3,0.2l-0.2,0.1c0,0-0.1,0.1,0-0.1
			c0-0.1,0,0-0.1,0c-0.6,4.2-0.8,9.1-0.6,14.6c0.4-0.3,0.8-0.7,1.1-1.2s0.6-1,0.8-1.5c0.4-1.1,0.7-2.3,0.9-3.6
			c0.2-1.3,0.4-2.7,0.8-4.2c0.2-0.8,0.4-1.5,0.7-2.3c0.2-0.5,0.5-1.1,0.7-1.7C761.9,1365.7,762.2,1365,762.6,1364.3L762.6,1364.3z"
			/>
		<path class="st2" d="M772.8,1373.4l0.5-2.7c0.1-0.9,0.3-1.7,0.5-2.6s0.4-1.7,0.6-2.6l0.7-2.6c-0.6,1.3-1.3,2.6-1.8,3.9
			c-0.6,1.3-1.1,2.6-1.6,4l-0.7,2l-0.6,2.1c-0.5,1.4-0.8,2.8-1.2,4.2C770.4,1377.2,771.6,1375.3,772.8,1373.4L772.8,1373.4z"/>
		<path class="st2" d="M697.2,1323.1l-0.7,2.6c0.5,6.5,1.2,12.6,2.4,18.7s2.8,12,4.8,17.8c-2-6.2-3.5-12.6-4.6-19.1
			c-0.5-3.2-0.9-6.5-1.2-9.8C697.7,1330,697.5,1326.5,697.2,1323.1L697.2,1323.1z"/>
		<path class="st2" d="M567.3,1236.8c1.3,0.2,2,1,2.7,1.8c0.6,0.8,1.3,1.6,2.2,1.7c-1.6-1.2-3.1-2.9-4.8-4.8L567.3,1236.8z"/>
		<path class="st2" d="M568.9,1162.6c-1.2-3.3-1.7-4.8-1.8-5.4c-0.2-0.7-0.1-0.5,0-0.4s0.1,0.3-0.1-0.4c-0.2-0.6-0.7-2-1.9-5.1
			c-0.2,0.3,0.5,2.2,1.3,4.5C567.2,1158,568.1,1160.4,568.9,1162.6L568.9,1162.6z"/>
		<path class="st2" d="M570.5,1150.8c-1.5-1.2-2.4-0.5-2.8,0.5c1,2.7,1.1,2.6,1.5,2C569.4,1152.6,569.8,1151.3,570.5,1150.8z"/>
	</g>
	<path class="st3" d="M1278.7,635.8c67.9,0,118.9-24.2,139.8-65.3c0,19.6,1.3,39.8,4.6,55.5h111.7c-5.2-22.9-7.8-54.2-7.8-95.4V430
		c0-95.4-56.2-140.4-180.9-140.4c-109.1,0-182.2,45.1-190.7,118.9h116.1c3.9-32,30.7-49.6,74.5-49.6s67.3,17.6,67.3,54.2v9.8
		l-118.2,10.5c-57.5,5.9-90.1,15.7-113,31.4c-24.2,16.3-36.6,41.1-36.6,71.9C1145.5,597.9,1196.4,635.8,1278.7,635.8L1278.7,635.8z
		 M1321.8,567.9c-37.9,0-60.8-15-60.8-39.2c0-24.2,18.9-37.9,66.6-43.8l87.5-9.1v19.6C1415.2,539.1,1377.3,567.9,1321.8,567.9
		L1321.8,567.9z"/>
	<path class="st3" d="M1770.3,635.8c113.7,0,171.8-42.5,171.8-111c0-56.8-32.7-88.2-111.7-98.6l-98.6-11.1
		c-28.1-3.9-39.8-11.1-39.8-26.8c0-18.9,18.9-27.4,62.1-27.4c59.4,0,100.6,13.7,133.9,40.5l52.9-52.9
		c-36.6-37.9-99.9-58.8-178.3-58.8c-110.4,0-171.8,39.2-171.8,105.2c0,57.5,37.9,89.5,116.3,99.9l88.8,10.5
		c35.3,4.6,45.7,11.1,45.7,28.1c0,19.6-19.6,30-65.3,30c-67.9,0-113.7-18.3-144.3-52.3l-60.1,49.6
		C1611.6,610.3,1679.5,635.8,1770.3,635.8L1770.3,635.8z"/>
	<path class="st3" d="M2034.3,373.2V511c0,81,45.7,122.2,143.7,122.2c30.1,0,53.6-3.3,75.8-9.8v-84.9c-11.8,2.6-26.1,5.2-45.1,5.2
		c-41.1,0-61.4-18.3-61.4-56.8V373.2h107.1v-73.8h-107.1V179.9l-113,41.8v77.7h-73.2v73.8H2034.3z"/>
	<path class="st3" d="M2416.7,299.4h-103.2V626h113V503.9c0-35.3,7.8-67.3,29.4-87.5c17-15.7,41.1-24.2,75.1-24.2
		c12.4,0,22.2,1.3,33.3,2.6V292.2c-7.2-1.3-12.4-1.3-21.6-1.3c-64.7,0-108.4,37.2-126.1,98v-89.5H2416.7z"/>
	<path class="st3" d="M2787.6,635.8c119.5,0,203.8-63.4,203.8-173.7s-84.3-172.4-203.8-172.4s-204.4,62.7-204.4,172.4
		S2667.4,635.8,2787.6,635.8L2787.6,635.8z M2787.6,560.7c-54.9,0-89.5-35.3-89.5-98.6s34.6-97.3,89.5-97.3s88.8,34,88.8,97.3
		S2841.8,560.7,2787.6,560.7z"/>
	<path class="st2" d="M3222.9,748.7c1.7-5.2-0.2-5.5-3.7-3.4c-3.6,2-8.7,6-13.4,9.7l0.4,1.9l0.3,1.9l0.6,3.7c0.4,2.5,0.8,5,1.1,7.6
		l3.8-5.2c0.6-0.9,1.3-1.7,1.9-2.6l1.8-2.7L3222.9,748.7L3222.9,748.7z"/>
	<path class="st2" d="M3184.5,791.8l-2.9,7.3c-0.5,1.2-1,2.4-1.6,3.6l-1.6,3.6l-3.3,7.2l-1.7,3.6l-1.8,3.5c2.1-3,4-6.2,6-9.4
		c1.9-3.2,3.9-6.3,5.7-9.4c10.2-6.5,12-4,10.4,1.4c-0.4,1.3-1,2.9-1.7,4.5c-0.4,0.8-0.7,1.6-1.1,2.4c-0.4,0.8-0.9,1.6-1.3,2.4
		c-1.8,3.1-3.8,6.1-5.1,8.1c3.4-3.7,5.9-6.8,7.8-9.4c1.8-2.7,2.9-4.8,3.4-6.6c1.2-3.5,0.4-5.3-1.2-6.4
		C3191.1,796,3184.8,796.3,3184.5,791.8L3184.5,791.8z"/>
	<path class="st2" d="M3147.8,837.3c-1,0.7-1.8,1.4-2.6,2s-1.5,1.2-2.1,1.7c-1.2,1.1-2.2,2.1-2.8,2.9c-1.3,1.7-1.4,3-0.8,3.8
		c1.2,1.7,5.4,1.7,9.4,0.2c-0.2-0.8,0.1-2.1,0.6-3.5s1.1-3,1.5-4.3C3151.7,837.5,3151.7,835.7,3147.8,837.3L3147.8,837.3z"/>
	<path class="st2" d="M2019.2,894.6c4.4,3.2,9.9,5.9,8.5,7.7c3.1-0.2,5.1-0.6,4.2-1.7c-0.4-0.6-1.6-1.3-3.6-2.2
		c-1-0.5-2.3-1-3.8-1.6C2023,896.1,2021.2,895.4,2019.2,894.6L2019.2,894.6z"/>
	<path class="st2" d="M2027.7,902.3c-1.2,0-2.5,0.1-4,0.1c1.2,0.2,2.1,0.4,3.5,0.5C2027.6,902.7,2027.5,902.5,2027.7,902.3
		L2027.7,902.3z"/>
	<path class="st2" d="M2390.4,1058.4c11.2-2.1,19.8-2.1,28.2-1.8c8.4,0.3,16.7,1,27.1,0.1l11.3,9.7c22.7-2.5,10.2-7.6,26.6-12.1
		c5.1,1.6,11.7,2.3,18.8,2.7c3.6,0.2,7.2,0.3,10.9,0.2s7.4-0.2,11.1-0.3c7.3-0.3,14.3-0.8,20-1.3c5.8-0.5,10.3-0.8,12.7-0.8
		c6.9,4.2-8.3,6.1-11.6,8.8c6.6-0.9,11.4-2.2,15.5-3.5c4-1.4,7.3-2.9,10.7-4.3c6.9-2.9,14.5-5.3,30.9-6.2l0.7,2.5
		c9.7-2.1,19.7-4.2,30-6c5.1-0.9,10.3-1.8,15.6-2.8c5.3-0.9,10.6-1.7,15.9-2.6c10.7-1.8,21.6-3.4,32.7-5.3
		c5.5-0.9,11.1-1.8,16.6-2.6c5.6-0.9,11.2-1.9,16.8-2.8c22.4-3.8,45.1-7.9,67.4-13c2.8-0.6,5.6-1.2,8.3-1.9c2.8-0.6,5.5-1.3,8.3-2
		c5.5-1.4,11-2.8,16.4-4.2c10.8-3.1,21.5-6,31.9-9.6c-5.9,0.8-4.9-1.4-7.5-2.7c22.2-5.8,45.1-12.4,68-19.8
		c22.8-7.4,45.5-16.1,67.1-25.8c43.1-19.4,81.6-44.4,106.7-72.2c-2.6,1.7-5.3,3.4-8.1,5c-1.4,0.8-2.9,1.7-4.4,2.5s-3.1,1.6-4.6,2.4
		c-3.1,1.6-6.4,3.2-9.7,4.9c-0.8,0.4-1.7,0.8-2.5,1.2c-0.9,0.4-1.7,0.8-2.6,1.2c-1.7,0.8-3.5,1.5-5.2,2.3c-3.5,1.5-7.1,3.1-10.8,4.7
		c-3.7,1.5-7.4,3-11.2,4.5c-7.5,3.1-15.2,5.8-22.9,8.8c-30.7,11.7-61.4,22.5-82.8,37.7c-9.8-0.6-20.7,3.5-30.6,6.5
		c-4.9,1.5-9.5,3-13.6,3.4c-4,0.5-7.4,0.1-9.8-1.7c-4.3,0.8-8.5,1.7-12.5,2.5s-7.9,1.7-11.6,2.6c-3.7,0.9-7.3,1.9-10.8,2.7
		c-3.5,0.9-6.9,1.8-10.1,2.8c-3.3,0.9-6.5,1.9-9.6,2.9c-3.1,0.9-6.2,1.9-9.2,2.9s-6,2-9,3c-1.5,0.5-2.9,1-4.4,1.5s-2.9,1-4.4,1.5
		c-5.9,2-11.8,3.9-17.7,5.9c-6,1.9-12.2,3.7-18.7,5.5c-3.2,0.9-6.6,1.8-10,2.5c-3.4,0.8-7,1.6-10.6,2.3c-7.3,1.5-15.1,2.7-23.6,3.8
		c-9.9-0.5-5.7-5.6-9-9.6c8.8-1.8,17.6-3.6,26.4-5.5l13.1-3c4.4-1,8.7-2,13.1-3c-5.5,0.3-10.9,0.4-16.4,0.5s-10.9,0.3-16.4,0.4
		c3.4-1.4,8-2.7,13.2-3.9c5.1-1.2,10.8-2.2,16.1-3.4c10.6-2.5,19.8-5.2,21-9.7c-22,8.7-52,13.5-81.2,17.4
		c-29.3,3.9-57.8,7.2-77.9,14.2c4.8,0.2,9.9,0.2,15.2-0.1c5.3-0.3,10.8-0.8,16.4-1.4c2.8-0.3,5.6-0.6,8.4-0.9c2.8-0.3,5.7-0.6,8.5-1
		c5.7-0.6,11.4-1.2,17.1-1.5c10.2,1.9,25.9,2.4,25.4,7c-31.8,10.2-61.7,14.3-91.8,16.7c-30.2,2.3-60.6,2.8-94.4,5
		c-4.2,0.3-8.8,0.5-13.4,0.5c-4.6,0-9.1-0.2-13.2-0.5c-4.1-0.3-7.8-0.8-10.5-1.5c-2.8-0.7-4.7-1.6-5.4-2.8
		c11.1-1.3,2.8-5.1,11.9-7.2c-5.9,0.9-9.1,2.3-11,3.9s-2.6,3.4-3.6,5.1s-2.3,3.1-5.6,4c-1.6,0.5-3.7,0.8-6.5,0.9s-6.2,0-10.6-0.3
		l4.9-15.3c-3.5,4-7.9,5.7-12.9,6.1c-5,0.5-10.6-0.2-16.5-1.3s-12.1-2.3-18.4-2.8c-6.3-0.6-12.7-0.4-19,1.6
		c-4.2-3.3-2.2-5.7,3.2-7.1s14.2-1.8,23.6-1.6c-10.6-1.8-16.4-0.7-21.8,0.9c-5.4,1.5-10.3,3.5-18.8,2.7c5.7-3.9,11.3-8,17-12
		c-9.4,5.8-17.5,4.5-24.4,1.3c-3.4-1.6-6.6-3.7-9.5-5.8s-5.5-4-8-5.3c-1.5,3.1,7.2,13.9-15.4,11.1c-9.5-2.6-4.2-5.4-6.3-7.5
		c-0.8,1.5-3.3,3.6-7.6,5.1c-2.1,0.8-4.7,1.4-7.6,1.7c-2.9,0.4-6.3,0.5-10,0.1c-1.1-2.3,1.5-3.7,4.6-5s6.7-2.7,7.4-4.9
		c-5.6-0.4-10.7-0.7-15.4-1.5s-8.9-1.9-12.7-4.2c-20.2,1.1,0.5,6.5-12.2,9.7c-15-3.5-15.2-7.4-13-11.7c2.3-4.3,7-9.1,2-14.5
		c23.4-3.2,52.6-1.9,65.1-4.2l-10.9-0.2c-3.6-0.1-7.3-0.1-10.9-0.3c-7.3-0.2-14.6-0.4-21.8-0.7c1.6-2.4-5.4-5.5-9.9-8.3
		s-6.4-5.2,5.2-6.2c-21.1-5-44.5-8.3-67.9-10.8s-46.7-4.6-67.4-6.8c2.7,1.5,5.8,2.9,8,4.2c2.2,1.4,3.6,2.7,2.6,4.2
		c-10.8-0.6-15.3-2.5-17.5-4.7s-2.2-4.8-3.9-7.1c-8.1,0.1-12.2,2.3-15.7,5.1c-3.5,2.8-6.3,6.1-11.8,8.2c-3.8-1.8-7.2-3.4-10.3-4.8
		s-5.9-2.6-8.4-3.7c-5.1-2.1-9.4-3.7-13.5-5.4c-4.1-1.7-8-3.4-12.4-5.9c-4.4-2.4-9.2-5.7-15.1-10.2l-0.8,9
		c-8.5-6.1-14.3-6.3-20.5-6.3c-3.1,0-6.2,0.1-9.8-0.6c-3.5-0.7-7.5-2.1-12.1-5c-0.5-2.2,7.9-1.8,14.8-1.8
		c-9.4-1.5-12.9-4.6-16.4-7.7c-3.5-3-6.9-6.1-16-7.4c5.7-1.5,11.2-3.1,16.8-4.7c-6.9-2.1-15.5-4.3-21.3-6.5
		c-5.7-2.4-8.4-4.8-3.5-7.5c-6.7,0.2-14.3-0.7-22.3-2.7c-4-1-8.1-2.1-12.3-3.3c-4.1-1.3-8.4-2.8-12.6-4.3c-2.1-0.8-4.3-1.5-6.4-2.3
		c-2.1-0.8-4.2-1.6-6.3-2.5c-4.2-1.6-8.5-3.2-12.7-4.8c-8.4-3.3-16.7-6.2-24.6-8.4l5.2-6c-4.7,0.3-10.5-1.2-16.8-3.6
		c-6.3-2.5-13.1-5.8-19.9-9.1c-13.6-6.6-27.1-13-36.2-11.3l-0.8-3.9c-11.6-1.9-23.3-3.8-34.9-5.6c-13.5-7.4-3.8-15.7-6.3-13.3
		c-31.5-12.8-56.5-22.7-76-34.3c-4.4,3.8-15.5,3.3-28.8,0.9c-3.4-0.5-6.9-1.1-10.5-1.8c-1.8-0.4-3.6-0.8-5.4-1.1
		c-0.9-0.2-1.8-0.4-2.7-0.6c-0.9-0.2-1.9-0.4-2.8-0.5c-3.7-0.7-7.5-1.5-11.2-2.3c-1.8-0.4-3.7-0.8-5.5-1.2s-3.6-0.7-5.4-1
		c-16.7-5-34.1-8.8-51.8-11.3c-17.7-2.5-35.6-3.7-53.6-3.7c-35.9,0-71.9,5.3-106.1,14.7c-17.1,4.7-33.8,10.5-49.9,17.2
		s-31.6,14.4-46.4,22.8c-14.8,8.4-28.9,17.6-42.2,27.3c-13.2,9.8-25.7,20.2-37.2,30.9c-3.6,3-7.3,6.7-10.6,11.1
		c-1.7,2.2-3.4,4.5-5.1,6.9c-1.6,2.4-3.2,5-4.8,7.6c-0.8,1.3-1.6,2.6-2.4,3.9l-1.2,2l-1.1,2c-1.5,2.7-3,5.3-4.5,8
		c-1.6,2.6-3,5.3-4.5,7.9c-1.5,2.6-3,5.2-4.5,7.6c2.7-2.2,5-4.3,7-6.2s3.8-3.7,5.4-5.2c3.2-3.2,5.7-6.1,8.1-9c2.5-2.8,4.9-5.8,8-9.1
		c1.6-1.7,3.4-3.3,5.4-5.2c2-1.8,4.3-3.9,7-6c4.5-2.6,8.6-4.4,12.6-5.5s7.8-1.6,11.6-2c3.7-0.4,7.6-0.4,11.5-0.8c2-0.1,4-0.3,6-0.6
		c2.1-0.3,4.2-0.5,6.5-1l-6-1.3c-2-0.4-4-0.8-6-1.2c2.3-2.7,4.4-4.7,6.2-6.3c1.8-1.6,3.4-2.8,4.9-3.7c2.8-1.9,5-2.5,6.9-3.1
		c3.9-1.2,6.9-2.3,14.3-11.3l6,12.8c0.4-1.2,1-2.4,1.8-3.4c0.8-1.1,1.9-2,3.1-2.8c2.4-1.7,5.4-3,8.6-4c1.6-0.5,3.2-0.9,4.8-1.2
		s3.2-0.6,4.7-0.8c3.1-0.4,5.8-0.6,7.9-0.5c0.8-3.9,1.6-7.8,2.4-11.7c2.2-0.2,4.3-0.5,6.3-0.7s3.9-0.3,5.8-0.5
		c3.7-0.3,6.9-0.5,9.9-0.3c5.9,0.3,10.6,1.5,14.4,4.9l-4.4-7.9c1.9,0.8,6.7-0.1,12.5-1.6c2.9-0.7,6.1-1.5,9.3-2.3
		c1.6-0.4,3.2-0.8,4.9-1.2c1.6-0.3,3.2-0.7,4.8-0.9c3.1-0.6,6.1-1.1,8.6-1.2c2.6-0.1,4.7,0,6.2,0.5c3,1,3.4,3.4-0.4,8.1
		c2.1-1.5,3.9-3.6,6.5-5.5s6.1-3.4,11.3-4l3.2,8.4c3.5-1.2,7.2-2.3,10.7-3.3c1.8-0.5,3.6-0.9,5.3-1.3s3.4-0.7,5-0.9s3.1-0.4,4.6-0.5
		c1.4,0,2.8,0,4,0.1c2.4,0.3,4.3,0.9,5.4,2c-3.8,1.5-6.3,3.2-8,5.1s-2.8,4.1-3.8,6.2c3.7-0.5,7.1-0.7,10-1.2c2.9-0.4,5.5-1,7.8-1.5
		c4.5-1,7.7-2.3,10.1-3.8c4.7-2.8,6-6.6,7.1-10.4c1.1-3.8,1.9-7.8,6.1-10.8c2.1-1.5,5-2.8,9.2-3.7c2.1-0.5,4.5-0.8,7.3-1
		s5.9-0.3,9.5-0.2l-0.9,5.7l7.3-2.6c2.5-0.9,4.9-1.8,7.4-2.5l7.2,4.3c1.2,0.7,2.4,1.4,3.6,2.2l3.5,2.3c2.8-2.1,6.2-3.6,10-4.4
		c3.8-0.7,8-0.9,12.6-0.6c4.5,0.4,9.3,1.2,14.3,2.4c5,1.3,10.2,2.8,15.4,4.5c5.2,1.8,10.5,3.8,15.8,5.7l2,0.7l2,0.8
		c1.3,0.5,2.6,1,3.9,1.5c2.6,1,5.2,1.9,7.8,2.8c1.3,0.4,2.6,0.9,3.9,1.3c1.3,0.5,2.6,0.9,3.8,1.3c2.5,0.8,5,1.6,7.5,2.2
		c2.5,0.7,4.9,1.1,7.3,1.6s4.8,0.8,7.1,1c3.4,0.9,6.8,2.6,10.3,4.9c3.5,2.4,7.2,5.3,11.2,8.3s8.3,6.4,13.2,9.5c2.4,1.6,5,3,7.8,4.5
		s5.7,2.9,8.8,4.1l2.1-8.8c8.1,8.6,29.8,23.1,50.9,39.4c10.6,8.1,20.9,16.6,29.4,24.8c4.2,4.1,8,8.1,11,12c3,3.9,5.3,7.6,6.5,11.1
		c22.6,3.3-1.3-2.7,2.3-8.8c5.2,1.3,9.8,2.6,13.8,4s7.3,2.8,10.3,4.2c6,2.9,10.1,6,13.5,9.2s6.3,6.6,9.3,10c1.5,1.7,3.2,3.5,5,5.2
		c0.9,0.9,1.9,1.8,2.9,2.7c1.1,0.9,2.2,1.7,3.4,2.6c13.4,3.2,8.9,0.4,3.1-3.2c-1.4-0.9-3-1.9-4.3-2.8c-1.3-1-2.5-1.9-3.2-2.7
		c-1.5-1.7-1.2-2.8,2.8-2.9c8.8,5.6,15.5,8.5,21.1,10.2c5.7,1.6,10.3,1.9,15.3,2.3c2.5,0.2,5,0.4,7.8,0.8s5.8,0.9,9.2,1.8
		s7.2,2.1,11.6,3.8c4.4,1.7,9.3,3.7,15,6.5c3.1,6.3-13.4-0.9-19.4,0.4c18.3,1.7,42.4,9,68.6,16.8c26.1,7.8,54.3,16.1,79.8,21.2
		c28.2,9.9,63.9,19.5,101,28.2c2.3,0.5,4.7,1.1,7,1.7c2.3,0.5,4.7,1,7,1.6c4.7,1.1,9.4,2.1,14.1,3.2c9.4,2,18.8,4.1,28.1,6.1
		c9.3,1.9,18.5,4,27.5,5.9c4.5,1,9,1.9,13.4,2.9s8.8,1.9,13,2.9l1.6-3.1c7,2.8,14.2,4.6,21.7,5.8c7.5,1.2,15.1,1.8,23,2.2
		c7.8,0.4,15.8,0.6,24,1.1c8.1,0.5,16.4,1.2,24.8,2.6L2390.4,1058.4L2390.4,1058.4z"/>
	<path class="st2" d="M2790.3,955.2l-6.5-6.5l-7.2,2.6l-3.6,1.3l-3.6,1.2l-14.6,4.9c6.5,2.1,11.2,1.5,16.3,0.4
		C2776.3,957.8,2781.9,955.8,2790.3,955.2L2790.3,955.2z"/>
	<path class="st2" d="M2787.8,979.1c5.1-2.1,10.2-4.1,15.2-6.3c-8.5,1.8-17.1,3.4-25.6,5.1L2787.8,979.1z"/>
	<path class="st2" d="M2399,985.9l3.9,1.4c19.6-0.9,39.1-2.3,58.6-3.9C2440.6,984.6,2419.8,985.5,2399,985.9z"/>
	<path class="st2" d="M2023.5,887.9c3.7-0.9,7.6-0.3,11.6,0.5c3.9,0.8,7.8,1.7,11.4,1.4l-13.2-2l-6.6-1l-6.6-1.1L2023.5,887.9
		L2023.5,887.9z"/>
	<path class="st2" d="M1799.9,755.9c-15.6,7.7-19.3-9.4-11.7,8C1804.5,769.2,1793.6,758,1799.9,755.9z"/>
	<path class="st2" d="M1732.9,747.5c2.3,1,4.3,1.9,6.2,2.5c1.9,0.6,3.6,1.1,5.3,1.4c3.3,0.7,6.2,0.8,9.1,1c-4.8-5.4-8-6.6-10.9-6.4
		C1739.6,746.2,1736.8,747.7,1732.9,747.5z"/>
	<path class="st3" d="M1709.5,975.3c0,6.5-3.8,17-11.3,31.6c-23.1,44.6-36.8,75.9-41.3,94c-2,8-5,12-9,12s-6-2.5-6-7.5
		c0-1.5,1.8-7.8,5.3-18.8c3-9.5,4.5-21.8,4.5-36.8c0-31.1-8-55.6-24.1-73.7c-16-18-37.8-27.1-65.4-27.1
		c-65.1,0-120,35.3-164.6,105.8c-49.1,77.6-73.7,159.9-73.7,246.9c0,92.1,33.6,138.1,100.7,138.1c24.1,0,46.6-6,67.6-17.9
		c38.1-21.9,65.6-47.8,82.7-77.7c6.5-11.4,12-17.2,16.5-17.2c3,0,4.5,2,4.5,6c0,11.5-14,32.2-42.1,62.1
		c-49.1,51.8-105.5,77.8-169.1,77.8c-44.6,0-79.6-14.1-104.8-42.4c-25.3-28.3-38-67.4-38-117.5c0-94.1,33.7-180.6,101.1-259.7
		s141.2-118.6,221.3-118.6c22,0,40.6,3.8,55.6,11.3c10.5,5.5,26.1,17,46.6,34.6c5,4.5,10,6.8,15,6.8c6,0,11.8-4.8,17.3-14.3
		c2-2,4-3,6-3C1708,970,1709.5,971.7,1709.5,975.3L1709.5,975.3z"/>
	<path class="st3" d="M1956,1261.6c0,58.6-26.8,111.5-80.4,158.6c-42.1,37.1-85.9,55.6-131.5,55.6c-31.1,0-56.6-10.8-76.7-32.3
		s-30.1-49.3-30.1-83.4c0-29.1,8.3-58.9,24.8-89.4c16.5-30.6,38.6-56.6,66.1-78.2c43.1-33.6,84.7-50.3,124.8-50.3
		c30.6,0,55.4,11,74.4,33.1C1946.4,1197.2,1956,1226,1956,1261.6L1956,1261.6z M1898.1,1212.8c0-38.1-17-57.1-51.1-57.1
		c-41.6,0-77.7,29.8-108.2,89.4c-29.1,57.1-43.6,110.7-43.6,160.8c0,37.6,16.8,56.4,50.4,56.4c42.1,0,77.2-27.1,105.2-81.2
		C1882.3,1320,1898.1,1263.9,1898.1,1212.8L1898.1,1212.8z"/>
	<path class="st3" d="M2319.7,1198.8c0,12.1-6.5,33-19.5,62.7l-60.9,138.2c-7,16.1-10.5,26.9-10.5,32.5c0,10.6,5.9,15.9,17.6,15.9
		c14.3,0,35.1-11.5,62.7-34.6c2.5-1.5,4.6-2.2,6.1-2.2c3.1,0,4.6,1.3,4.6,3.8c0,6-8.3,14.8-25.1,26.3
		c-22.8,15.5-47.1,23.3-72.9,23.3c-15.7,0-28.6-3.4-38.7-10.2c-10.1-6.8-15.2-15.5-15.2-26.1c0-8.6,4.8-23.7,14.3-45.3l60.1-135.2
		c14.5-32.7,21.8-54.9,21.8-66.5c0-17.1-8.8-25.7-26.3-25.7c-23.1,0-50.1,16.5-81.2,49.6c-23.6,25.1-45.1,60.1-64.6,105.2
		l-61.6,142.8c-2.5,7.5-5.8,11.3-9.8,11.3h-51.1c-3.5,0-5.3-1.2-5.3-3.8c0-1,0.8-2.5,2.2-4.5l5.3-11.2l115-275.3
		c1.5-2.5,2.8-4.7,3.8-6.7c-0.5-3.5-6.8-5.5-18.8-6c-15-0.5-22.6-3.2-22.6-8.2c0-3.5,2.8-5.2,8.3-5.2c3.5,0,9,0.5,16.5,1.5
		s13.3,1.5,17.3,1.5c27.1,0,44.8-2,53.4-6c3.5-1.5,5.8-2.2,6.8-2.2c3,0,4.5,1.5,4.5,4.5c0,1.5-0.3,2.8-0.8,3.8l-27.8,70.7
		c4-4.6,9.8-11,17.3-19.2c37.1-39.8,72.9-59.8,107.5-59.8c20,0,36.3,5.7,48.9,17C2313.4,1166.7,2319.7,1181.2,2319.7,1198.8
		L2319.7,1198.8z"/>
	<path class="st3" d="M2594,1148.9c0,7-10.5,10.8-31.6,11.3h-42.1l-101.5,227.7c-11,24.6-16.5,40.1-16.5,46.6
		c0,10.5,7.8,15.8,23.3,15.8c22.6,0,42.6-11.8,60.1-35.4c4-4.9,7-7.4,9-7.4c4,0,6,1.8,6,5.3c0,6.5-8.3,17-24.8,31.6
		c-19.1,16.5-41.8,24.8-68.4,24.8c-18,0-32.7-4.5-44-13.5s-16.9-20.5-16.9-34.5c0-9,5.8-25.7,17.3-50.2l98.5-210.7h-30.8
		c-8.5,0-12.8-1.7-12.8-5c0-6.2,3.5-9.3,10.5-9.3h6.8c2.5-0.5,6.5-0.8,12-0.8c7,0,13.8-0.2,20.3-0.8l12.8-32.3
		c4.5-11,8-16.5,10.5-16.5s6.4,0.4,11.6,1.1s9.4,1.1,12.4,1.1c5.5,0,13.5-2.3,24.1-6.9c2-0.9,3.8-1.4,5.3-1.4c2.5,0,3.8,1,3.8,3
		l-8.3,17.8l-16.5,35.6h46.6c2.5,0,5.5-0.5,9-1.5s5.5-1.5,6-1.5C2591.3,1142.9,2594,1144.9,2594,1148.9L2594,1148.9z"/>
	<path class="st3" d="M2843.6,1191.4c0,26.9-14.5,49.2-43.6,66.9c-29.1,17.7-65.9,26.5-110.5,26.5c-16,0-33.8-1-53.4-3
		c-18.5,38.4-27.8,74.1-27.8,107c0,44.4,19.8,66.6,59.4,66.6c30.6,0,60.4-15.8,89.4-47.5c6.5-6.9,10.8-10.4,12.8-10.4
		c2.5,0,3.8,1.2,3.8,3.7c0,11.4-11.8,25.6-35.3,42.4c-27.1,19.3-55.1,29-84.2,29c-32.6,0-59.4-9.5-80.4-28.5s-31.6-43-31.6-72
		c0-56,30.6-110.2,91.7-162.7c53.6-46,101.5-69,143.6-69S2843.6,1157.6,2843.6,1191.4L2843.6,1191.4z M2790.2,1178.9
		c0-15.5-7.8-23.3-23.3-23.3s-31.8,6-47.4,18c-28.1,22.1-53.9,54.9-77.4,98.5c6,0.5,12.8,0.8,20.3,0.8c28.1,0,55.4-8.5,81.9-25.6
		C2774.9,1228.3,2790.2,1205.5,2790.2,1178.9L2790.2,1178.9z"/>
	<path class="st3" d="M3166.7,1198.8c0,12.1-6.5,33-19.5,62.7l-60.9,138.2c-7,16.1-10.5,26.9-10.5,32.5c0,10.6,5.9,15.9,17.6,15.9
		c14.3,0,35.1-11.5,62.7-34.6c2.5-1.5,4.6-2.2,6.1-2.2c3.1,0,4.6,1.3,4.6,3.8c0,6-8.4,14.8-25.1,26.3
		c-22.8,15.5-47.1,23.3-72.9,23.3c-15.7,0-28.6-3.4-38.7-10.2c-10.1-6.8-15.2-15.5-15.2-26.1c0-8.6,4.8-23.7,14.3-45.3l60.1-135.2
		c14.5-32.7,21.8-54.9,21.8-66.5c0-17.1-8.8-25.7-26.3-25.7c-23.1,0-50.1,16.5-81.2,49.6c-23.6,25.1-45.1,60.1-64.6,105.2
		l-61.6,142.8c-2.5,7.5-5.8,11.3-9.8,11.3h-51.1c-3.5,0-5.3-1.2-5.3-3.8c0-1,0.8-2.5,2.2-4.5l5.3-11.2l115-275.3
		c1.5-2.5,2.8-4.7,3.8-6.7c-0.5-3.5-6.8-5.5-18.8-6c-15-0.5-22.6-3.2-22.6-8.2c0-3.5,2.8-5.2,8.3-5.2c3.5,0,9,0.5,16.5,1.5
		s13.3,1.5,17.3,1.5c27.1,0,44.8-2,53.4-6c3.5-1.5,5.8-2.2,6.8-2.2c3,0,4.5,1.5,4.5,4.5c0,1.5-0.3,2.8-0.8,3.8l-27.8,70.7
		c4-4.6,9.8-11,17.3-19.2c37.1-39.8,72.9-59.8,107.5-59.8c20,0,36.3,5.7,48.9,17C3160.4,1166.7,3166.7,1181.2,3166.7,1198.8
		L3166.7,1198.8z"/>
	<path class="st3" d="M3441,1148.9c0,7-10.5,10.8-31.6,11.3h-42.1l-101.5,227.7c-11,24.6-16.5,40.1-16.5,46.6
		c0,10.5,7.8,15.8,23.3,15.8c22.6,0,42.6-11.8,60.1-35.4c4-4.9,7-7.4,9-7.4c4,0,6,1.8,6,5.3c0,6.5-8.3,17-24.8,31.6
		c-19.1,16.5-41.8,24.8-68.4,24.8c-18,0-32.7-4.5-44-13.5s-16.9-20.5-16.9-34.5c0-9,5.8-25.7,17.3-50.2l98.5-210.7h-30.8
		c-8.5,0-12.8-1.7-12.8-5c0-6.2,3.5-9.3,10.5-9.3h6.8c2.5-0.5,6.5-0.8,12-0.8c7,0,13.8-0.2,20.3-0.8l12.8-32.3
		c4.5-11,8-16.5,10.5-16.5s6.4,0.4,11.6,1.1s9.4,1.1,12.4,1.1c5.5,0,13.5-2.3,24.1-6.9c2-0.9,3.8-1.4,5.3-1.4c2.5,0,3.8,1,3.8,3
		l-8.3,17.8l-16.5,35.6h46.6c2.5,0,5.5-0.5,9-1.5s5.5-1.5,6-1.5C3438.3,1142.9,3441,1144.9,3441,1148.9L3441,1148.9z"/>
	<path class="st4" d="M3366.5,645.4c1.7,2.9-2.9,8.5-13.8,16.7l-8.7,11.6l-3.9,11c-1.3,3.7-2.7,5.9-4.2,6.8
		c-2.6,1.5-10.7,0.5-24.3-2.9s-28.5-2.9-44.5,1.4c9.4,11.2,27.2,20.7,53.6,28.5c4,1.1,6.6,2.6,7.6,4.4c0.6,1.1,0,7.6-2,19.4
		l5.6,18.7c3.5,7.8,3.7,12.5,0.8,14.2c-3.7,2.1-9.2,0.4-16.8-5c-5.9-4.4-10-7-12.1-7.7s-6.6-1.2-13.6-1.4
		c-6.9-0.2-11.1-1.5-12.6-4.1c-0.5-1.7-0.6-3.6-0.3-5.7c-0.3-18.3-4.6-34.8-13.1-49.5c-1.3-2.2-2.6-4.1-4-5.7
		c-6.2,11.3-9.5,25.9-10,43.7c1.5,13.7,0.7,21.5-2.6,23.4c-0.7,0.4-4.1,1-10.3,1.9c-6.1,0.8-10.4,2-13,3.4c-2.2,1.3-5.1,3.5-8.6,6.7
		s-6.2,5.4-8,6.4c-4.8,2.7-8,2.6-9.7-0.3c-0.3-1.3-0.2-2.8,0.3-4.6c2.8-10.4,4.1-17.5,3.9-21.2c-0.2-3.8-1.1-10.3-2.5-19.7
		c-0.7-5.5,1-9.3,5-11.7c-0.4,0.2,1.9-0.6,6.7-2.4l27.5-15.8c5.1-2.9,10.2-8.1,15.3-15.4c-15.8-3.1-32.4-1.9-49.9,3.8
		c-11.2,4.9-18,5.2-20.5,0.8l-2.8-5c-1.1-1.8-2.4-4.2-4.1-7.2c-2.5-4.4-9.6-9.9-21.1-16.4c-2.5-1-4.3-2.4-5.4-4.2
		c-1.3-2.2-0.8-3.9,1.4-5.2c3.7-2.1,10.3-3.2,20-3.4c6.8,0,11.3-0.6,13.5-1.9c2.9-1.7,5.6-3.4,7.9-5.3c0.9-1,2.4-2.1,4.6-3.4
		c5.5-3.1,11.2-0.3,17.2,8.4c8,11.5,21.6,21.5,40.6,30.1c-1.6-11.3-5.3-22-11.2-32.3c-1.7-2.9-4.5-6.9-8.4-12s-6.5-8.7-7.7-10.9
		c-1.5-2.6,0.3-8,5.3-16.2c6.8-10.2,10.6-16.8,11.4-19.7c2.7-9.8,4.7-15.1,6.2-16c2.9-1.7,5.7-0.3,8.2,4.1c0.8,1.5,1.8,4,2.8,7.5
		c1.1,3.5,2.1,6.2,3.2,8.1c3.8,6.6,8.7,11.8,14.8,15.6c3.1,2.1,5.1,3.9,6,5.3c1.5,2.6-1.4,9.5-8.5,20.9
		c-10.8,22.8-15.1,38.2-13,46.2c2.8-1.1,5.6-2.5,8.6-4.2c12.1-6.9,22.5-18,31.3-33.3c2.4-4.3,4.7-7.1,6.9-8.3
		c2.6-1.5,8.1,0,16.4,4.5c2.1,1.2,7.6,2.7,16.4,4.5l15.8-1.8C3363.7,643.4,3365.7,643.9,3366.5,645.4L3366.5,645.4z"/>
</g>
</svg>
