<?xml version="1.0" encoding="UTF-8"?>
<svg id="Layer_1" xmlns="http://www.w3.org/2000/svg" viewBox="0 0 2451.51 2011.02">
  <defs>
    <mask id="mask">
      <path id="mask" d="M0,929.51c3.6-1.89,5.25-2.95,7.04-3.68,40.71-16.41,81.08-33.77,122.25-48.93,53.02-19.53,106.72-37.25,161.32-51.9,20.16-5.41,40.94-9.05,61.68-11.61,33.66-4.15,67.47-7.17,101.29-9.85,21.23-1.68,42.59-1.95,63.89-2.64,5.22-.17,9.65-1.4,13.66-4.96,4.98-4.41,10.49-8.22,15.61-12.47,16.92-14.06,34.18-27.59,55.98-35.63-1.45-3.79-2.49-6.82-3.75-9.75-72.7-170.15-145.42-340.29-218.13-510.44-11.11-26.01-21.66-52.28-33.51-77.94-5.92-12.82-6.43-25.88-4.94-39.01,2.21-19.46,10.64-36.3,26.1-48.92,3.25-2.65,7.15-4.96,11.13-6.18,57.53-17.61,115.11-35.01,172.71-52.4,2.81-.85,5.8-1.3,8.73-1.52,9.29-.68,18.59-1.22,27.89-1.68,1.91-.09,3.9,.18,5.75,.67,5.44,1.44,10.76,3.44,16.26,4.56,18.67,3.8,34.24,12.94,48.24,25.73,17.84,16.29,32.06,35.63,47.17,54.2,140.05,172.09,279.97,344.28,419.94,516.44,2.07,2.55,4.3,4.97,6.67,7.71,23.89-12.91,47.3-25.56,70.7-38.22,130.54-70.66,261.09-141.28,391.55-212.09,5.84-3.17,10.58-3.69,16.62-.52,9.41,4.93,19.44,8.67,29.02,13.29,4.05,1.95,7.37,1.83,11.24-.34,34.55-19.36,69.24-38.47,103.69-58.01,4.16-2.36,7.29-6.66,10.61-10.32,6.84-7.52,8.94-7.93,18.89-4.37,3.68,1.32,7.72,1.78,11.65,2.24,3.32,.39,6.78,.04,8.24,4.07,.22,.6,.88,1.64,1.06,1.58,7.68-2.4,8.36,6.08,12.58,8.37,8.33-13.44,16.17-26.87,24.82-39.74,5.15-7.66,11.42-14.6,17.45-21.64,15.92-18.57,36.79-30.18,57.83-41.88,20.85-11.6,43.45-18.2,65.65-26.07,2.82-1,5.89-1.44,8.52-2.79,18.92-9.66,38.66-7.61,58.58-4.62,17.43,2.61,34.94,4.72,52.39,7.17,4.26,.6,8.54,1.41,12.66,2.62,10.83,3.19,21.43,7.29,32.4,9.87,16.47,3.88,31.16,11.32,45.22,20.31,2.74,1.75,5.49,3.91,7.39,6.49,18.12,24.65,34.44,50.5,50.96,76.22,3.37,5.24,7.61,10.11,12.18,14.36,12.42,11.57,21.19,25.56,28.17,40.78,1.32,2.89,2.01,6.34,1.99,9.52-.07,11.32-1.21,22.66-.78,33.95,1.23,32.28-4.77,63.63-11.52,94.88-1.12,5.16-.61,9.18,2.86,12.8,7.8,8.14,15.89,16,23.56,24.26,14.58,15.71,34.71,21.92,53.15,30.85,5.66,2.75,13.04,2.09,19.66,2.72,21.54,2.05,43.08,3.96,64.62,5.94,1.29,.12,2.56,.41,4.91,.8-.52,9.93-2.49,18.7-10.33,25.62-28.72,25.36-57.31,50.86-85.97,76.29-86.21,76.52-172.44,153.02-258.65,229.53-11.46,10.17-23.01,20.26-34.32,30.59-2.88,2.63-5.78,5.71-7.4,9.18-10.94,23.52-22.45,46.84-31.9,70.96-5.95,15.19-6.03,31.94-4.2,48.23,1.04,9.23,3.24,18.36,5.42,27.41,1.31,5.45,3.41,10.74,5.47,15.97,10.08,25.56,24.78,48.44,40.2,71.06,95.11,139.53,189.99,279.22,284.59,419.1,7.77,11.48,12.52,24.96,19.41,37.09,14.54,25.59,20.04,54.12,27.66,81.99,2.04,7.47,3.04,14.85,2.33,22.65-1.72,18.9-2.02,37.99-4.67,56.74-1.89,13.4-6.58,26.43-10.19,39.57-5.19,18.93-10.34,37.88-15.94,56.69-1.58,5.3-4.02,10.59-7.16,15.14-22.87,33.18-45.99,66.19-69.08,99.22-5.04,7.2-5.7,7.33-13.88,4.22-170.64-64.73-341.28-129.46-511.89-194.26-4.16-1.58-9.39-1.97-11.46-8.86,15.72-19.47,31.96-39.6,48.21-59.72-.24-.36-.47-.73-.71-1.09-1.53,.68-3.25,1.12-4.56,2.09-19.78,14.7-39.51,29.47-59.25,44.23-1.06,.8-2.35,1.49-3.05,2.56-4.53,6.86-10.16,5.6-16.65,3.11-37.57-14.37-75.24-28.47-112.86-42.71-143.01-54.14-286.01-108.31-429.01-162.45-3.07-1.16-6.21-2.16-9.88-3.42-5.8,6.63-11.5,13.08-17.13,19.58-10.25,11.83-20.28,23.88-30.82,35.45-3.47,3.81-7.89,7.14-12.49,9.47-47.79,24.2-97.99,42.97-146.89,64.66-40.73,18.07-81.79,35.42-122.33,53.9-9.95,4.53-17.28,3.78-26.65-1.47-135.86-76.15-271.95-151.88-407.97-227.74-4.83-2.69-10.19-4.63-11.63-11.35-.53-2.44-3.92-4.33-6.13-6.33-22.15-19.96-38.93-43.98-49.77-71.48-8.91-22.59-14.85-46.5-13.74-71.06,.66-14.69,2.83-29.28,9.83-43.21,9.2-18.3,22.95-30.23,41.6-37.09,30.25-11.13,60.56-22.1,90.96-32.82,7.44-2.62,15.3-4.04,23.4-6.12-4.41-11.86-10.02-20.91-20.68-27.73-79.09-50.6-157.8-101.81-236.6-152.85-2.96-1.92-5.76-4.1-9.95-7.12,5.53-4.14,9.88-7.4,14.23-10.66-.17-.43-.34-.87-.51-1.3-5.95,1.31-11.95,2.41-17.82,4.01-4.47,1.22-8.08,.68-12.11-1.93-67.06-43.46-134.22-86.75-201.34-130.12-2.12-1.37-3.98-3.15-7.22-5.75Z" />
    </mask>
  </defs>
</svg>
