<?xml version="1.0" encoding="UTF-8"?><svg id="Layer_1" xmlns="http://www.w3.org/2000/svg" xmlns:xlink="http://www.w3.org/1999/xlink" viewBox="0 0 977 767"><defs><linearGradient id="linear-gradient" x1="61.53" y1="113.57" x2="102.4" y2="58.07" gradientTransform="translate(0 586) scale(1 -1)" gradientUnits="userSpaceOnUse"><stop offset="0" stop-color="#41d1ff"/><stop offset="1" stop-color="#bd34fe"/></linearGradient><linearGradient id="linear-gradient-2" x1="80.8" y1="105.13" x2="88.19" y2="54.43" gradientTransform="translate(0 586) scale(1 -1)" gradientUnits="userSpaceOnUse"><stop offset="0" stop-color="#ffea83"/><stop offset=".08" stop-color="#ffdd35"/><stop offset="1" stop-color="#ffa800"/></linearGradient></defs><polygon points="114.53 451 43.52 451 8.01 512.5 43.52 574 114.53 574 150.04 512.5 114.53 451" style="fill:rgba(5,7,13,.5); stroke:#ff6f1e; stroke-miterlimit:10; stroke-width:2px;"/><polygon points="934.62 3.07 863.61 3.07 828.1 64.57 863.61 126.07 934.62 126.07 970.13 64.57 934.62 3.07" style="fill:rgba(5,7,13,.5); stroke:#ff6f1e; stroke-miterlimit:10; stroke-width:2px;"/><polygon points="764.96 44 711.27 44 684.42 90.5 711.27 137 764.96 137 791.81 90.5 764.96 44" style="fill:rgba(5,7,13,.5); stroke:#ff6f1e; stroke-miterlimit:10; stroke-width:2px;"/><polygon points="185.96 274 132.27 274 105.42 320.5 132.27 367 185.96 367 212.81 320.5 185.96 274" style="fill:rgba(5,7,13,.5); stroke:#ff6f1e; stroke-miterlimit:10; stroke-width:2px;"/><polygon points="592.86 55 503.37 55 458.62 132.5 503.37 210 592.86 210 637.6 132.5 592.86 55" style="fill:rgba(5,7,13,.5); stroke:#ff6f1e; stroke-miterlimit:10; stroke-width:2px;"/><g><path d="M113.74,490.44l-32.83,58.71c-.68,1.21-2.42,1.22-3.11,.01l-33.48-58.72c-.75-1.31,.37-2.91,1.86-2.64l32.87,5.88c.21,.04,.42,.04,.63,0l32.18-5.87c1.48-.27,2.61,1.31,1.88,2.63Z" style="fill:url(#linear-gradient);"/><path d="M94.71,480.1l-24.3,4.76c-.4,.08-.7,.42-.72,.82l-1.49,25.24c-.04,.59,.51,1.06,1.09,.92l6.76-1.56c.63-.15,1.2,.41,1.07,1.05l-2.01,9.84c-.14,.66,.49,1.23,1.13,1.03l4.18-1.27c.65-.2,1.27,.37,1.13,1.03l-3.19,15.46c-.2,.97,1.09,1.49,1.62,.67l.36-.55,19.8-39.51c.33-.66-.24-1.42-.97-1.28l-6.96,1.34c-.65,.13-1.21-.48-1.03-1.12l4.54-15.75c.18-.64-.37-1.25-1.03-1.12Z" style="fill:url(#linear-gradient-2);"/></g><g><polyline points="342.71 626 194.54 626 124.62 556.08" style="fill:none; stroke:#ff6f1e; stroke-miterlimit:10; stroke-width:2px;"/><circle cx="342.49" cy="626" r="4.51" style="fill:#ff6f1e;"/></g><g><polygon points="552.72 115.93 552.72 138.1 560.87 129.96 564.98 134.07 549.93 149.12 534.68 133.88 538.79 129.77 546.91 137.89 546.91 115.93 552.72 115.93" style="fill:#fff;"/><polygon points="500.35 148 500.35 130.82 510.86 141.34 521.46 130.75 521.46 147.82 527.27 147.82 527.27 116.71 510.86 133.12 494.53 116.79 494.53 148 500.35 148" style="fill:#fff;"/><polygon points="598.47 115 602.58 119.11 590.27 131.43 602.21 143.36 598.09 147.47 586.16 135.54 574.22 147.47 570.11 143.36 582.05 131.43 569.73 119.11 573.84 115 586.16 127.31 598.47 115" style="fill:#f9ac00;"/></g><g><polyline points="646.99 374.71 646.75 235.31 603.22 191.78" style="fill:none; stroke:#ff6f1e; stroke-miterlimit:10; stroke-width:2px;"/><path d="M651.5,374.48c0,2.49-2.01,4.52-4.5,4.52s-4.52-2.01-4.52-4.5c0-2.49,2.01-4.52,4.5-4.52,2.49,0,4.52,2.01,4.52,4.5Z" style="fill:#ff6f1e;"/></g><g><polyline points="767.99 300.71 767.75 175.31 729.72 137.28" style="fill:none; stroke:#ff6f1e; stroke-miterlimit:10; stroke-width:2px;"/><path d="M772.5,300.48c0,2.49-2.01,4.52-4.5,4.52s-4.52-2.01-4.52-4.5c0-2.49,2.01-4.52,4.5-4.52,2.49,0,4.52,2.01,4.52,4.5Z" style="fill:#ff6f1e;"/></g><g><polyline points="831.98 169.71 831.75 129 852.75 107.99" style="fill:none; stroke:#ff6f1e; stroke-miterlimit:10; stroke-width:2px;"/><path d="M836.49,169.46c.01,2.49-1.99,4.52-4.49,4.54s-4.52-1.99-4.54-4.49c-.01-2.49,1.99-4.52,4.49-4.54,2.49-.01,4.52,1.99,4.54,4.49Z" style="fill:#ff6f1e;"/></g><g><path d="M899.11,28h0c20.2,0,36.57,16.37,36.57,36.57h0c0,20.2-16.37,36.57-36.57,36.57h0c-20.2,0-36.57-16.37-36.57-36.57h0c0-20.2,16.37-36.57,36.57-36.57Z" style="fill:#3178c6;"/><path d="M902.39,73.64v7.15c1.16,.6,2.54,1.04,4.13,1.34s3.26,.45,5.02,.45,3.34-.16,4.89-.49c1.54-.33,2.9-.87,4.06-1.62,1.16-.75,2.08-1.74,2.76-2.95s1.02-2.72,1.02-4.5c0-1.3-.19-2.43-.58-3.41s-.95-1.84-1.68-2.6c-.73-.76-1.61-1.44-2.63-2.05s-2.17-1.17-3.45-1.71c-.94-.39-1.78-.76-2.53-1.13-.75-.37-1.38-.74-1.9-1.12-.52-.38-.92-.78-1.21-1.21-.28-.42-.42-.91-.42-1.44,0-.49,.13-.93,.38-1.33s.61-.73,1.07-1.02c.46-.28,1.03-.5,1.7-.66,.67-.16,1.42-.23,2.24-.23,.6,0,1.23,.04,1.89,.13,.66,.09,1.33,.23,2,.41,.67,.19,1.32,.42,1.96,.7,.63,.28,1.22,.61,1.76,.98v-6.68c-1.09-.42-2.28-.73-3.57-.93s-2.77-.3-4.44-.3-3.31,.18-4.83,.55-2.86,.93-4.01,1.71c-1.16,.77-2.07,1.76-2.74,2.96-.67,1.2-1.01,2.63-1.01,4.3,0,2.13,.61,3.95,1.84,5.45,1.23,1.5,3.1,2.78,5.6,3.82,.98,.4,1.9,.8,2.75,1.18s1.58,.79,2.2,1.21c.62,.42,1.11,.87,1.46,1.36,.36,.49,.54,1.05,.54,1.68,0,.46-.11,.89-.34,1.29s-.56,.74-1.02,1.03-1.02,.52-1.7,.68c-.68,.16-1.47,.25-2.38,.25-1.55,0-3.09-.27-4.61-.82-1.52-.54-2.93-1.36-4.23-2.45h0Zm-12.02-17.62h9.17v-5.87h-25.57v5.87h9.13v26.13h7.27v-26.13Z" style="fill:#fff; fill-rule:evenodd;"/></g><g id="layer1"><path id="path4544" d="M724.77,117.28c-3.53-.77-6.18-2.83-7.1-5.54-.64-1.89-.55-4.95,.27-9.09,.4-1.99,.72-4.36,.72-5.27,0-3.03-1.39-4.67-4.16-4.9l-1.59-.13v-3.9l1.51-.2c2.2-.3,3.05-.84,3.73-2.37,.5-1.13,.56-1.69,.41-3.65-.1-1.27-.44-3.54-.75-5.05-.81-3.82-.77-6.92,.1-8.78,1.28-2.75,4.43-4.77,8.09-5.2l1.58-.19v4.1h-1.06c-1.44,0-3.46,1.03-3.98,2.03-.5,.96-.53,2.33-.13,4.73,.64,3.78,.85,7.41,.55,9.31-.35,2.17-1.61,4.72-3,6.07l-.96,.93,1.32,1.62c1.62,1.99,2.25,3.38,2.64,5.82,.31,1.93,.07,5.94-.55,9.14-.86,4.47,.13,6.24,3.8,6.77l1.37,.2v1.99c0,2.28,.14,2.2-2.8,1.56h0Z" style="fill:#fff;"/><path id="path4546" d="M748.6,115.7v-1.98l1.67-.35c1.84-.38,3.3-1.52,3.63-2.83,.1-.41-.09-2.58-.43-4.81-1.12-7.28-.5-11.03,2.33-14.1l1.21-1.31-.91-1.03c-3.24-3.69-3.8-6.97-2.57-14.97,.62-4.03,.62-4.07,.07-5.03-.65-1.13-2.68-2.26-4.05-2.26h-.95v-2.01c0-2.29-.05-2.26,2.65-1.69,3.23,.69,5.55,2.33,6.75,4.78,.69,1.41,.79,1.96,.77,4.08-.01,1.35-.29,3.82-.62,5.48-1.22,6.16-1.11,7.8,.62,9.4,.81,.74,1.34,.96,2.75,1.12l1.75,.2v3.95h-1.37c-1.75,0-3.2,.74-3.94,2.01-.78,1.33-.73,4.24,.14,8.48,.74,3.6,.86,6.89,.32,8.74-.57,1.95-3.11,4.32-5.5,5.12-1.03,.34-2.42,.71-3.09,.81l-1.22,.19v-1.98Z" style="fill:#fff;"/><path id="path4548" d="M731.9,112.45c-.83-1.06-.71-2.88,.31-4.67,.76-1.32,3.92-5.66,6.2-8.51l.92-1.15-1.47-4.26c-1.65-4.78-1.64-4.87,.53-5.19l1.2-.18,1.34,2.73c.74,1.5,1.44,2.73,1.57,2.73s1.45-1.43,2.93-3.18c2.57-3.04,2.74-3.17,3.61-3.01,.53,.1,.99,.04,1.1-.14,.26-.42,1,.2,1,.84,0,.26-.37,.92-.82,1.47-1.85,2.25-5.79,7.56-5.79,7.8,0,.14,.79,2,1.77,4.12l1.77,3.86-.54,.8c-.3,.44-.54,.92-.54,1.06,0,.14-.23,.39-.49,.56-.68,.43-1.18-.09-3.25-3.38-.95-1.51-1.82-2.74-1.93-2.75-.26,0-3.09,4.18-5.28,7.81-1.93,3.2-1.58,2.79-2.66,3.1-.78,.22-.97,.16-1.47-.46h0Z" style="fill:#ed1c24;"/><path id="path4550" d="M732.1,92.41c-1.75-3.14-4.9-7.68-6.18-8.91-.65-.63-1.17-1.28-1.17-1.46,0-.49,1.32-.99,2.6-.99,1.38,0,2.85,1.2,4.16,3.42,.47,.8,.94,1.46,1.04,1.47,.1,0,.66-1.35,1.25-3,1.26-3.54,4.58-10.41,5.89-12.18,1.12-1.52,2.79-2.34,4.81-2.34,2.64-.01,2.64,.11,.17,2.69-3.78,3.94-5.51,7.18-9.17,17.14-1.02,2.77-1.95,5.28-2.07,5.58-.19,.46-.41,.23-1.32-1.4Z" style="fill:#06db00;"/></g><g><path d="M515.72,68.02c1.86,0,3.73-.02,5.59,0l.13,.09c2.28,2.27,4.55,4.54,6.81,6.81,2.2-2.24,4.44-4.43,6.66-6.66,.13-.13,.27-.28,.47-.25h4.5c.29-.02,.58,0,.87,.05-1.73,1.65-3.4,3.38-5.11,5.06l-11.18,11.15c-.82,.8-1.6,1.64-2.44,2.41-1.86,.05-3.73,.02-5.59,.02,3.02-2.98,6-6,9.03-8.98-3.26-3.22-6.49-6.47-9.74-9.69Z" style="fill:#fbc02d;"/><path d="M542.13,68.02h4.54c0,6.22,0,12.45,0,18.67-1.51,0-3.02,.03-4.52-.02v-12.32c-3.95,3.97-7.92,7.9-11.87,11.85-.22,.2-.41,.54-.75,.48-2.03-.01-4.07,0-6.11,0,6.25-6.21,12.49-12.43,18.71-18.65Z" style="fill:#fbc02d;"/><path d="M547.7,68.02c1.16-.02,2.32,0,3.48,0,2.06,2.11,4.17,4.17,6.26,6.25,2.09-2.08,4.17-4.17,6.27-6.25h3.45c-.01,6.23-.01,12.45,0,18.67-1.16,0-2.33,.01-3.49,0,.01-3.93,.01-7.85,0-11.78-2.08,2.08-4.14,4.2-6.23,6.26-2.11-2.06-4.16-4.18-6.25-6.27,0,3.93-.01,7.87,.01,11.8-1.16,0-2.33,.01-3.49,0,0-6.24,0-12.46,0-18.68Z" style="fill:#fbc02d;"/><path d="M568.19,68.02c1.16,0,2.33-.02,3.49,0-.01,5.07-.01,10.14,0,15.22h9.33c.16,.01,.36-.03,.47,.11,1.11,1.12,2.24,2.22,3.34,3.34-5.55,.01-11.09,.01-16.64,0,.01-6.22,.01-12.45,0-18.67Z" style="fill:#fbc02d;"/></g><line x1="478" y1="99" x2="618" y2="99" style="fill:none; stroke:#ff6f1e; stroke-miterlimit:10; stroke-width:2px;"/><line x1="618" y1="166" x2="478" y2="166" style="fill:none; stroke:#ff6f1e; stroke-miterlimit:10; stroke-width:2px;"/><g><path d="M129.9,327.12c-.89,1.05-2.16,1.57-3.8,1.57-1.47,0-2.57-.43-3.33-1.29-.75-.86-1.13-2.1-1.13-3.72v-8.76h3.03v8.72c0,1.71,.71,2.57,2.14,2.57s2.47-.53,2.98-1.59v-9.7h3.03v13.51h-2.86l-.07-1.32Z" style="fill:#2e8fff;"/><path d="M138.74,314.93l.09,1.56c1-1.21,2.31-1.81,3.93-1.81,2.81,0,4.25,1.61,4.3,4.83v8.93h-3.03v-8.75c0-.86-.19-1.49-.56-1.9-.37-.41-.98-.62-1.82-.62-1.22,0-2.13,.55-2.74,1.66v9.62h-3.03v-13.51h2.86Z" style="fill:#2e8fff;"/><path d="M150.16,311.42c0-.47,.15-.85,.44-1.16,.3-.31,.72-.46,1.27-.46s.97,.16,1.27,.46,.45,.69,.45,1.16-.15,.84-.45,1.14c-.3,.3-.72,.46-1.27,.46s-.97-.15-1.27-.46c-.29-.3-.44-.68-.44-1.14Zm3.22,17.02h-3.03v-13.51h3.03v13.51Z" style="fill:#2e8fff;"/><path d="M157.75,328.44v-11.26h-2.06v-2.25h2.06v-1.24c0-1.5,.42-2.66,1.25-3.47s2-1.22,3.5-1.22c.53,0,1.1,.07,1.7,.23l-.07,2.37c-.33-.07-.72-.1-1.16-.1-1.45,0-2.17,.75-2.17,2.24v1.2h2.75v2.25h-2.75v11.26h-3.03Z" style="fill:#fff;"/><path d="M165.76,311.42c0-.47,.15-.85,.44-1.16,.3-.31,.72-.46,1.27-.46s.97,.16,1.27,.46,.45,.69,.45,1.16-.15,.84-.45,1.14c-.3,.3-.72,.46-1.27,.46s-.97-.15-1.27-.46c-.29-.3-.44-.68-.44-1.14Zm3.22,17.02h-3.03v-13.51h3.03v13.51Z" style="fill:#fff;"/><path d="M178.23,328.7c-1.92,0-3.48-.61-4.68-1.82-1.19-1.21-1.79-2.82-1.79-4.84v-.38c0-1.35,.26-2.55,.78-3.62,.52-1.06,1.25-1.89,2.19-2.48s1.99-.89,3.15-.89c1.84,0,3.26,.59,4.27,1.76,1,1.17,1.51,2.84,1.51,4.98v1.22h-8.83c.09,1.12,.46,2,1.12,2.65,.65,.65,1.48,.97,2.47,.97,1.39,0,2.52-.56,3.4-1.69l1.64,1.56c-.54,.81-1.26,1.43-2.17,1.88s-1.92,.67-3.04,.67Zm-.36-11.58c-.83,0-1.51,.29-2.02,.87-.51,.58-.84,1.39-.98,2.44h5.78v-.23c-.07-1.02-.34-1.78-.81-2.3-.47-.52-1.13-.78-1.97-.78Z" style="fill:#fff;"/><path d="M185.44,321.59c0-2.08,.48-3.75,1.45-5.01,.97-1.26,2.26-1.89,3.88-1.89,1.43,0,2.59,.5,3.47,1.5v-6.92h3.03v19.18h-2.75l-.15-1.4c-.91,1.1-2.12,1.65-3.63,1.65s-2.86-.64-3.84-1.91c-.98-1.27-1.47-3.01-1.47-5.19Zm3.03,.26c0,1.37,.26,2.45,.79,3.22,.53,.77,1.28,1.15,2.25,1.15,1.24,0,2.15-.55,2.72-1.66v-5.77c-.56-1.08-1.46-1.62-2.7-1.62-.98,0-1.74,.39-2.27,1.17-.53,.78-.8,1.95-.8,3.52Z" style="fill:#fff;"/></g><g><polyline points="197.63 294.21 254.42 237.42 337.56 237.42" style="fill:none; stroke:#ff6f1e; stroke-miterlimit:10; stroke-width:2px;"/><circle cx="337.34" cy="237.42" r="4.51" style="fill:#ff6f1e;"/></g><g><path d="M536.29,192c-2.27,0-3.87-1.8-3.87-4.21s1.67-4.21,4.01-4.21,3.94,1.74,3.94,4.21-1.54,4.21-4.01,4.21h-.07Z" style="fill:#fff;"/><path d="M550.11,192c-2.27,0-3.87-1.8-3.87-4.21s1.67-4.21,4.01-4.21,3.94,1.74,3.94,4.21-1.54,4.21-4.01,4.21h-.07Z" style="fill:#fff;"/><path d="M563.93,192c-2.27,0-3.87-1.8-3.87-4.21s1.67-4.21,4.01-4.21,3.94,1.74,3.94,4.21-1.54,4.21-4.01,4.21h-.07Z" style="fill:#fff;"/></g></svg>
