<?xml version="1.0" encoding="UTF-8"?>
<svg xmlns="http://www.w3.org/2000/svg" viewBox="0 0 347.51 600.37">
  <defs>
    <style>
      .uuid-0712f025-8606-445d-baba-e7d355ad9043 {
        letter-spacing: -.02em;
      }

      .uuid-14bbc258-f2fa-4bd4-8671-a9d8550ad390, .uuid-3845da95-5da8-4fc4-b8c7-914f82e70279, .uuid-c87a5e45-26b8-49cf-aa2d-686f3d717b11, .uuid-2b59d3f3-7731-4b97-aa16-fd7dc7889ecd, .uuid-f4c75977-8e3f-40a9-a0d6-7a76994e37d0, .uuid-12f51137-609f-4c0e-8fdc-8faed6ebc733, .uuid-fb065a42-7923-4a04-9498-21553dc3ace1, .uuid-bf2a165d-deb9-4ab9-a5f6-a42daef11da0, .uuid-a0f478c4-2ef9-4f02-b9b9-2378e2f043fa {
        font-family: ArialMT, Arial;
      }

      .uuid-824030dd-be68-49f1-9c0f-04aee1c4d166, .uuid-3845da95-5da8-4fc4-b8c7-914f82e70279 {
        font-size: 5px;
      }

      .uuid-824030dd-be68-49f1-9c0f-04aee1c4d166, .uuid-d17760ab-6298-43d4-8f64-359866bb5107, .uuid-95b66cca-44aa-4b71-ae71-7e24f9555981, .uuid-90fa81d3-ffcb-4c05-a64f-96799fa410e0, .uuid-70179d2f-0487-468b-8581-958a62628cbc, .uuid-b45e4741-8a75-4fb3-9653-3d9a7240188c, .uuid-1d593f5d-7875-40a3-9fee-8ce6700458d3, .uuid-721c9b8b-89b6-48a4-8af2-f96c3739caf1 {
        font-family: CourierNewPSMT, 'Courier New';
      }

      .uuid-9db0864d-f63c-4803-a361-5c94cf2aaaa8 {
        fill: rgba(6, 8, 11, .5);
      }

      .uuid-9db0864d-f63c-4803-a361-5c94cf2aaaa8, .uuid-92ccb311-a66b-4595-9801-d2e616a405f0, .uuid-5d5e9d67-ae43-427d-a01b-67d8e51e0aa3 {
        stroke-miterlimit: 10;
      }

      .uuid-9db0864d-f63c-4803-a361-5c94cf2aaaa8, .uuid-5d5e9d67-ae43-427d-a01b-67d8e51e0aa3 {
        stroke: #7f3607;
        stroke-width: 2px;
      }

      .uuid-82188644-e9a5-406e-9d09-cc2baa112bd4 {
        fill: #f9b233;
      }

      .uuid-561d7ef6-54d8-45f4-8665-26f447f4e57c, .uuid-9faf7043-0792-4d5c-ad72-b1b8d5ff4488, .uuid-12f51137-609f-4c0e-8fdc-8faed6ebc733 {
        fill: #009fe3;
      }

      .uuid-13ef3017-1d53-4ba0-9bf4-8afc36e75a93 {
        fill: #f5a474;
      }

      .uuid-ae6dcf74-6f49-4aed-9254-01245e14bf01 {
        fill: #eb5f1d;
      }

      .uuid-c1354ff4-2a46-4bac-9ca3-1023ee96b6d8 {
        fill: #e6007e;
      }

      .uuid-0e3481d2-3501-43ba-b300-30648da2574c {
        fill: #e6332a;
      }

      .uuid-eae295c5-f5e6-45ff-99ac-88affd479a8b, .uuid-79928d5e-d41a-4ebe-b79b-79759662e2e8, .uuid-95b66cca-44aa-4b71-ae71-7e24f9555981, .uuid-56dac6c7-29c2-4e3e-bbc0-0f587fbd4b89, .uuid-2b59d3f3-7731-4b97-aa16-fd7dc7889ecd, .uuid-fb065a42-7923-4a04-9498-21553dc3ace1, .uuid-1d593f5d-7875-40a3-9fee-8ce6700458d3, .uuid-bf2a165d-deb9-4ab9-a5f6-a42daef11da0, .uuid-e4aabad3-0a0e-445e-ac0e-83d0c5d20717, .uuid-a0f478c4-2ef9-4f02-b9b9-2378e2f043fa, .uuid-5e4ff58e-80da-4155-be77-9984bafd7cec {
        fill: #fff;
      }

      .uuid-03dec62b-a346-4dc7-a0df-f470834156f4 {
        fill: #ffed00;
      }

      .uuid-d18e0286-aea0-463f-b832-89a555c523e9 {
        fill: #fbccae;
      }

      .uuid-06d67558-b93e-4ef5-b12b-7f090c27c747 {
        fill: #815ba2;
      }

      .uuid-097674ff-b679-48c0-9c22-3443890d6dee {
        fill: #64c4f0;
      }

      .uuid-4bb77daf-1ca6-4e35-bbb3-59e14071d3a1, .uuid-b45e4741-8a75-4fb3-9653-3d9a7240188c {
        fill: #e30613;
      }

      .uuid-a011a0a6-646a-40e5-8b29-f135d7093071 {
        fill: #36a9e1;
      }

      .uuid-2213bfee-75c4-4f38-bc02-27955989cc99 {
        fill: #3aaa35;
      }

      .uuid-8c2189e2-f158-4486-9283-142a53b4d857 {
        fill: #575756;
      }

      .uuid-ab596ec5-872c-4f9e-ab70-c5e816cbc438, .uuid-92ccb311-a66b-4595-9801-d2e616a405f0 {
        fill: #3c3c3b;
      }

      .uuid-a4312b47-7fdf-4825-a91b-d53138b2b28f, .uuid-d17760ab-6298-43d4-8f64-359866bb5107 {
        fill: #77be80;
      }

      .uuid-79928d5e-d41a-4ebe-b79b-79759662e2e8, .uuid-c87a5e45-26b8-49cf-aa2d-686f3d717b11, .uuid-a0f478c4-2ef9-4f02-b9b9-2378e2f043fa {
        font-size: 11px;
      }

      .uuid-84cc5aaf-e4ed-46ea-b2cd-7693fd2a49c9, .uuid-d17760ab-6298-43d4-8f64-359866bb5107, .uuid-95b66cca-44aa-4b71-ae71-7e24f9555981, .uuid-9faf7043-0792-4d5c-ad72-b1b8d5ff4488, .uuid-d5e63a30-8088-4759-913d-af99d8e985a3, .uuid-721c9b8b-89b6-48a4-8af2-f96c3739caf1 {
        font-size: 8px;
      }

      .uuid-84cc5aaf-e4ed-46ea-b2cd-7693fd2a49c9, .uuid-76260e45-6b24-432b-a960-d05e91dc9130, .uuid-3ff9da84-b413-45ba-b7f6-814cbc3d23ca, .uuid-5e4ff58e-80da-4155-be77-9984bafd7cec {
        font-family: CourierNewPS-BoldMT, 'Courier New';
      }

      .uuid-3845da95-5da8-4fc4-b8c7-914f82e70279 {
        fill: #c6c6c6;
      }

      .uuid-90fa81d3-ffcb-4c05-a64f-96799fa410e0, .uuid-56dac6c7-29c2-4e3e-bbc0-0f587fbd4b89 {
        font-size: 6px;
      }

      .uuid-755381ca-6d36-44dd-bea0-3a3f9dbf13b5 {
        font-family: Arial-BoldMT, Arial;
      }

      .uuid-92ccb311-a66b-4595-9801-d2e616a405f0 {
        stroke: #eb5f1d;
        stroke-width: .25px;
      }

      .uuid-df014eb7-4ef2-43b8-b4d2-9d520dc9e8df {
        letter-spacing: -.04em;
      }

      .uuid-56dac6c7-29c2-4e3e-bbc0-0f587fbd4b89 {
        font-family: Arial-ItalicMT, Arial;
      }

      .uuid-2b59d3f3-7731-4b97-aa16-fd7dc7889ecd {
        font-size: 12px;
      }

      .uuid-f4c75977-8e3f-40a9-a0d6-7a76994e37d0 {
        fill: #fcea10;
      }

      .uuid-f4c75977-8e3f-40a9-a0d6-7a76994e37d0, .uuid-12f51137-609f-4c0e-8fdc-8faed6ebc733 {
        font-size: 14px;
      }

      .uuid-5d5e9d67-ae43-427d-a01b-67d8e51e0aa3 {
        fill: none;
      }

      .uuid-fb065a42-7923-4a04-9498-21553dc3ace1 {
        font-size: 72px;
        opacity: .3;
      }

      .uuid-ca5b3fb6-508d-487c-bb4d-62675eabff78 {
        letter-spacing: -.11em;
      }

      .uuid-bf2a165d-deb9-4ab9-a5f6-a42daef11da0 {
        font-size: 7px;
      }

      .uuid-e4aabad3-0a0e-445e-ac0e-83d0c5d20717 {
        letter-spacing: 0em;
      }

      .uuid-3ff9da84-b413-45ba-b7f6-814cbc3d23ca {
        fill: #95c11f;
      }
    </style>
  </defs>
  <g id="uuid-dd761810-ff8d-44b1-a91e-e0019ee7babe" data-name="Layer 1">
    <polygon class="uuid-9db0864d-f63c-4803-a361-5c94cf2aaaa8" points="139.2 4.89 49.71 4.89 4.97 82.39 49.71 159.89 139.2 159.89 183.95 82.39 139.2 4.89"/>
    <polygon class="uuid-9db0864d-f63c-4803-a361-5c94cf2aaaa8" points="293.45 92.39 203.97 92.39 159.22 169.89 203.97 247.39 293.45 247.39 338.2 169.89 293.45 92.39"/>
    <polygon class="uuid-9db0864d-f63c-4803-a361-5c94cf2aaaa8" points="293.45 267.39 203.97 267.39 159.22 344.89 203.97 422.39 293.45 422.39 338.2 344.89 293.45 267.39"/>
    <polygon class="uuid-9db0864d-f63c-4803-a361-5c94cf2aaaa8" points="138.28 442.39 48.8 442.39 4.05 519.89 48.8 597.39 138.28 597.39 183.03 519.89 138.28 442.39"/>
    <polygon class="uuid-9db0864d-f63c-4803-a361-5c94cf2aaaa8" points="139.2 179.89 49.71 179.89 4.97 257.39 49.71 334.89 139.2 334.89 183.95 257.39 139.2 179.89"/>
    <text class="uuid-c87a5e45-26b8-49cf-aa2d-686f3d717b11" transform="translate(58.33 196.34)"><tspan class="uuid-eae295c5-f5e6-45ff-99ac-88affd479a8b" x="0" y="0">Get </tspan><tspan class="uuid-03dec62b-a346-4dc7-a0df-f470834156f4" x="20.79" y="0">warnings</tspan><tspan class="uuid-eae295c5-f5e6-45ff-99ac-88affd479a8b" x="64.81" y="0">,</tspan><tspan class="uuid-4bb77daf-1ca6-4e35-bbb3-59e14071d3a1" x="-12.84" y="13.2">errors</tspan><tspan class="uuid-eae295c5-f5e6-45ff-99ac-88affd479a8b" x="15.88" y="13.2">, and </tspan><tspan class="uuid-561d7ef6-54d8-45f4-8665-26f447f4e57c" x="43.41" y="13.2">insights</tspan></text>
    <text class="uuid-a0f478c4-2ef9-4f02-b9b9-2378e2f043fa" transform="translate(208.06 109.35)"><tspan x="0" y="0">Create / Preview</tspan></text>
    <text class="uuid-79928d5e-d41a-4ebe-b79b-79759662e2e8" transform="translate(57.12 460.17)"><tspan class="uuid-755381ca-6d36-44dd-bea0-3a3f9dbf13b5" x="0" y="0">Publish </tspan><tspan class="uuid-14bbc258-f2fa-4bd4-8671-a9d8550ad390" x="42.78" y="0">views </tspan></text>
    <text class="uuid-79928d5e-d41a-4ebe-b79b-79759662e2e8" transform="translate(220.29 284.36)"><tspan class="uuid-14bbc258-f2fa-4bd4-8671-a9d8550ad390" x="0" y="0">Import </tspan><tspan class="uuid-755381ca-6d36-44dd-bea0-3a3f9dbf13b5" x="34.23" y="0">data</tspan></text>
    <text class="uuid-fb065a42-7923-4a04-9498-21553dc3ace1" transform="translate(20.4 102.87)"><tspan x="0" y="0" xml:space="preserve">{     }</tspan></text>
    <g>
      <g>
        <path class="uuid-ae6dcf74-6f49-4aed-9254-01245e14bf01" d="M156.71,60.41c-.35,.42,.35,.23,.95,.1l.12-.8-1.07,.7Z"/>
        <path class="uuid-ae6dcf74-6f49-4aed-9254-01245e14bf01" d="M159.24,59.04l.96-1.25-.77,.77c-1.19,.28-.2-.66,.14-.98-1.62,1.06-.23,1-.33,1.46Z"/>
        <path class="uuid-ae6dcf74-6f49-4aed-9254-01245e14bf01" d="M161.51,57.24c.86-.36,.45-.62,.03-.57,.02,.18-.44,.63-.03,.57Z"/>
        <path class="uuid-ae6dcf74-6f49-4aed-9254-01245e14bf01" d="M216.37,59.24c-.17-.2-.4-.41-.31-.49-.31-.02-.4,.01,.31,.49Z"/>
        <path class="uuid-ae6dcf74-6f49-4aed-9254-01245e14bf01" d="M216.06,58.75c.06,0,.12,.02,.19,.03-.05-.02-.1-.04-.16-.06-.02,0-.02,.02-.03,.03Z"/>
        <path class="uuid-ae6dcf74-6f49-4aed-9254-01245e14bf01" d="M199.6,48.03c-1.14,.11-1.73-.12-2.79-.11l-.53-.58c-1.15,.05-.54,.37-1.38,.57-1.01-.38-3.19-.23-3.68-.23-.33-.24,.43-.33,.6-.47-1.34,.16-1.25,.66-2.88,.66l-.03-.14c-3.89,.77-8.8,1.06-12.93,2.42,.29-.03,.24,.09,.37,.17-4.38,1.04-9.4,2.7-12.11,5.27,2.16-1.11,6.21-1.63,8.3-3.15,.97,.14,2.19-.71,2.67-.29,3.42-.49,4.66-1.64,8.02-2.01,.49,.05,.28,.32,.44,.55-.87,.17-1.74,.31-2.6,.54,.54-.01,1.08-.02,1.62,.01-.67,.26-2.35,.38-2.47,.85,2.18-.96,5.87-.75,7.85-1.47-.95-.07-2.12,.1-3.24,.14-.5-.12-1.27-.17-1.25-.42,3.16-1.03,5.9-.73,9.23-.81,.84-.01,1.98,.1,2.09,.35-.55,.05-.16,.28-.61,.37,1.19-.14,.19-.91,1.89-.63l-.3,.83c.77-.8,2.05,.34,3.31,.04,.38,.42-.44,.45-1.36,.37,1.02,.28,1.18-.17,2.02-.03l-.9,.59c.99-.54,1.55,.39,2,.7,.09-.16-.27-.81,.82-.55,.45,.2,.17,.32,.26,.45,.1-.16,.56-.4,1.29-.25,.08,.27-.56,.25-.66,.48,.54,.11,1,.16,1.34,.44,1,.02,.02-.36,.67-.48,1.41,.58-.07,.86,.33,1.51-1.16,.01-2.58-.13-3.19-.09l2.11,.27c-.18,.23,1.25,.85,.12,.82,.97,.42,2.07,.7,3.18,.97,1.09,.32,2.21,.53,3.18,.8-.22-.21-.55-.38-.43-.53,1.03,.22,.79,.53,.91,.8,.78,.12,.89-.37,1.48-.52,1.32,.99,1.6,.93,2.55,2.06l.15-.48c.67,.79,1.17,.17,1.92,.97,0,.12-.41,.03-.74-.03,.87,.33,.52,.79,1.38,1.08l-.88,.12c.61,.34,1.59,.72,1.03,.94,.69,.05,1.4,.49,2.17,.94,.38,.23,.76,.46,1.14,.69,.37,.24,.72,.47,1.07,.65l-.34,.27c.47,.04,1.03,.51,1.59,.95,.56,.45,1.06,.94,1.53,.94l-.03,.21,1.56,.67c.47,.56-.17,.83,0,.75,1.13,1.1,2.06,1.94,2.48,2.9,.58-.15,1.81,1.03,2.61,2.1,.42,.7,.84,1.39,1.29,2.07,.44,.69,.81,1.43,1.23,2.14,.88,1.4,1.57,2.91,2.38,4.36,.4,.73,.71,1.49,1.07,2.23,.34,.75,.74,1.47,1.04,2.22,.31,.75,.62,1.49,.93,2.22,.32,.73,.62,1.45,.86,2.18,.24,.88,1.15,1.96,1.7,3.04-.2-1.41-.51-1.48-.84-2.83-.1-1.05,.4-1.59,.46-2.57l-.33,.58c-.8-1.25-.05-1.02-.86-1.95l.76-.19c-.5-.26-.49-1.32-.43-1.78l-.65-.17c-.05-.94-.15-1.54,.2-1.98l-.43,.26c.08-.22-.25-1.03-.46-1.7-.21-.67-.36-1.18,.27-.86-.22-.2-.56-.31-.76-.86l.41-.29c-.48-.72-.97-1.52-.83-1.87,.3,.36,.57,.41,.83,.45-.73-1.67-1.25-1.61-1.67-1.54-.44,.08-.86,.21-1.66-1.13l.29-.13-.69-.52c-.02-.31-.05-.63-.09-.93-.78-.18-1.37-1.1-1.97-2.14-.6-1.04-1.34-2.12-2.13-2.69-.5-.54-.71-1.67-1.73-2.68l-.3,.41c-.1-.3-.35-.73-.66-1.24-.35-.48-.74-1.04-1.15-1.6-.41-.56-.78-1.17-1.1-1.68-.32-.52-.55-1-.59-1.39-1.11-.4,.03,.15-.24,.44-1-.48-1.4-.89-1.66-1.3-.27-.39-.38-.79-.76-1.23-1.24-.56,.73,.74-.07,.63-1.48-1.45-1.66-.49-3.63-2.03-.07-.37,.65,.16,.97,.14-1.76-.5-4.46-2.37-6.93-3.27-.66-.36-1.38-.79-2.2-1.15-.82-.36-1.69-.73-2.57-1.12-1.8-.68-3.67-1.38-5.34-1.94l-.1,.16c-1.33-.81-2.98-.59-4.63-1.08l.78,.39Z"/>
        <path class="uuid-ae6dcf74-6f49-4aed-9254-01245e14bf01" d="M179.6,52.76l.32,.38,1.43-.49c-.64-.25-.91,.08-1.75,.12Z"/>
        <polygon class="uuid-ae6dcf74-6f49-4aed-9254-01245e14bf01" points="179.72 51.44 178.97 51.75 180.23 51.54 179.72 51.44"/>
        <path class="uuid-ae6dcf74-6f49-4aed-9254-01245e14bf01" d="M198.8,52l-.18-.1c-.96-.04-1.93,.01-2.88,.02,1.02,.03,2.05-.01,3.06,.08Z"/>
        <path class="uuid-ae6dcf74-6f49-4aed-9254-01245e14bf01" d="M216.07,59.56c-.37,.02-.73-.26-1.1-.27,.42,.12,.83,.26,1.22,.43l-.13-.15Z"/>
        <path class="uuid-ae6dcf74-6f49-4aed-9254-01245e14bf01" d="M224.72,68.23c.86-.19,.63,.7,.7-.25-.6-.46-.37,.23-.7,.25Z"/>
        <path class="uuid-ae6dcf74-6f49-4aed-9254-01245e14bf01" d="M227.43,69.54c-.28-.34-.53-.44-.77-.54,.14,.65,.44,.4,.77,.54Z"/>
      </g>
      <g>
        <polygon class="uuid-ae6dcf74-6f49-4aed-9254-01245e14bf01" points="243.49 89.67 241.2 92.28 238.09 90.71 242.02 96.58 243.49 89.67"/>
        <polygon class="uuid-d18e0286-aea0-463f-b832-89a555c523e9" points="243.08 90.48 241.89 95.9 241.26 92.64 243.08 90.48"/>
        <polygon class="uuid-13ef3017-1d53-4ba0-9bf4-8afc36e75a93" points="238.78 91.31 241.89 95.9 241.26 92.64 238.78 91.31"/>
      </g>
    </g>
    <g>
      <g>
        <path class="uuid-ae6dcf74-6f49-4aed-9254-01245e14bf01" d="M183.76,165.58c-.09-.3-.39,0-.67,.21l.52,.42,.15-.64Z"/>
        <path class="uuid-ae6dcf74-6f49-4aed-9254-01245e14bf01" d="M183.17,166.92c.11,.3,.21,.61,.3,.93l-.07-.63c.54-.45,.6,.31,.61,.6,.26-1.03-.57-.62-.84-.9Z"/>
        <path class="uuid-ae6dcf74-6f49-4aed-9254-01245e14bf01" d="M183.01,168.46c-.29,.4,.13,.51,.36,.38-.13-.12-.14-.5-.36-.38Z"/>
        <path class="uuid-ae6dcf74-6f49-4aed-9254-01245e14bf01" d="M154.48,176.69c.17,0,.34-.02,.38,.09,.08-.18,.06-.29-.38-.09Z"/>
        <path class="uuid-ae6dcf74-6f49-4aed-9254-01245e14bf01" d="M154.86,176.78s-.03,.07-.05,.11c.02-.02,.04-.04,.07-.07,0-.02,0-.03-.01-.04Z"/>
        <path class="uuid-ae6dcf74-6f49-4aed-9254-01245e14bf01" d="M165.45,178.01c.4-.43,.73-.28,1.17-.52l.36,.45c.46-.27,.13-.48,.45-.81,.53,.24,1.46-.24,1.7-.25,.19,.21-.14,.36-.2,.51,.58-.27,.46-.75,1.23-.87l.03,.14c1.74-1.01,4.24-1.07,6.44-1.98-.16,0-.14-.11-.22-.2,1.17-.34,2.49-.73,3.65-1.46,1.17-.72,2.05-1.86,2.23-2.97-.18,.28-.51,.5-.83,.75-.34,.23-.74,.42-1.12,.62-.79,.36-1.54,.7-2.03,1.33-.56-.2-1.14,.5-1.46,.03-1.8,.16-2.39,1.16-4.1,1.42-.26-.06-.17-.33-.28-.56l1.32-.43-.85-.09c.32-.27,1.21-.23,1.24-.71-1.08,.73-3.04,.54-3.97,1.34,.5,.05,1.08-.17,1.66-.21,.27,.13,.68,.2,.69,.45-1.54,.93-2.93,.76-4.53,1.26-.4,.13-.96,.19-1.07-.04,.25-.13,.01-.29,.21-.45-.54,.32,.1,.87-.74,.95l-.07-.86c-.14,.96-1.06,.05-1.53,.72-.29-.27,.05-.58,.5-.7-.56-.03-.48,.48-.89,.57l.21-.81c-.27,.79-.82,.07-1.14-.09,.02,.18,.39,.65-.17,.76-.26-.02-.19-.23-.27-.31,.02,.18-.09,.56-.44,.69-.14-.21,.13-.42,.08-.67-.27,.1-.48,.21-.74,.08-.42,.34,.14,.33-.07,.67-.79,.08-.34-.78-.78-1.18,.46-.53,1.18-.85,1.44-1.13l-1.06,.53c-.02-.3-.91-.23-.41-.68-.6,.06-1.22,.31-1.81,.6-.58,.31-1.12,.7-1.59,1.02,.19,.03,.4,0,.44,.18-.47,.38-.55,.03-.75-.11-.31,.37-.05,.8-.13,1.24-.96,.02-.97,.28-1.91,.11l.28,.41c-.65-.09-.36,.6-.99,.63-.08-.08,.05-.29,.14-.48-.36,.39-.62-.13-.96,.28l.06-.67c-.35,.21-.75,.68-.82,.16-.28,.88-1.46,1.32-1.96,2.12l-.2-.38c-.05,.69-1.37,.96-1.27,1.71l-.16-.09-.31,1.01c-.34,.22-.65-.36-.56-.2-.62,.64-1.08,1.14-1.65,1.37,.29,.52-.28,1.24-.74,1.81-2.75,2.22-4.67,5.55-5.94,8.54-.25,.41-.1,1.3-.21,1.94,.53-.51,.33-.73,.73-1.31,.43-.35,1.02-.17,1.58-.33l-.53-.09c.09-.81,.48-.26,.42-1l.62,.48c-.2-.39,.36-.59,.65-.63l-.32-.47c.51-.17,.78-.33,1.25-.13l-.42-.27c.34,.05,1.01-1.38,1.34-.43,0-.17-.13-.42,.1-.59l.41,.28c.16-.38,.38-.79,.66-.69-.05,.24,.07,.44,.19,.63,1.16-1.21-1-1.34-.02-2.5l.22,.23v-.51s.59-.01,.59-.01c-.21-.57,.18-.94,.64-1.3,.47-.35,1.04-.65,1.17-1.18,.21-.31,.97-.18,1.44-.65l-.36-.34c.38,.01,1-.24,1.66-.43,.66-.18,1.4-.24,1.92,.07,.17-.6-.1-.05-.33-.37,.48-1,.98-.41,1.56-.43,.35-.52-.48,.09-.42-.39,.96-.17,.28-.93,1.42-1.24,.24,.19-.16,.3-.15,.53,.41-.83,1.85-1.31,2.86-1.88,1.35-.26,3.22-.87,4.83-.86l-.02-.18c.73,.24,1.3-.32,2.08-.32l-.42-.16Z"/>
        <path class="uuid-ae6dcf74-6f49-4aed-9254-01245e14bf01" d="M174.48,171.79l-.2-.39-.71,.4c.36,.29,.47-.03,.91,0Z"/>
        <polygon class="uuid-ae6dcf74-6f49-4aed-9254-01245e14bf01" points="174.52 173.09 174.89 172.83 174.24 172.96 174.52 173.09"/>
        <path class="uuid-ae6dcf74-6f49-4aed-9254-01245e14bf01" d="M164.58,174.05l.11,.04c.46-.24,.93-.45,1.4-.68-.51,.21-1.02,.41-1.51,.64Z"/>
        <path class="uuid-ae6dcf74-6f49-4aed-9254-01245e14bf01" d="M154.32,176.29c.05-.28,.32-.33,.41-.56l-.54,.55h.13Z"/>
        <path class="uuid-ae6dcf74-6f49-4aed-9254-01245e14bf01" d="M147.4,179.07c.27,.76-.44,.36,.29,.64,.26-.39-.23-.37-.29-.64Z"/>
        <path class="uuid-ae6dcf74-6f49-4aed-9254-01245e14bf01" d="M146.85,181.01c.2-.16,.23-.34,.26-.52-.48-.03-.22,.28-.26,.52Z"/>
      </g>
      <g>
        <polygon class="uuid-ae6dcf74-6f49-4aed-9254-01245e14bf01" points="143.13 193.51 139.66 193.81 138.51 190.53 137.29 197.49 143.13 193.51"/>
        <polygon class="uuid-d18e0286-aea0-463f-b832-89a555c523e9" points="142.27 193.81 137.66 196.91 139.47 194.12 142.27 193.81"/>
        <polygon class="uuid-13ef3017-1d53-4ba0-9bf4-8afc36e75a93" points="138.59 191.43 137.66 196.91 139.47 194.12 138.59 191.43"/>
      </g>
    </g>
    <rect class="uuid-8c2189e2-f158-4486-9283-142a53b4d857" x="262.66" y="344.89" width="33.59" height="8.1"/>
    <g>
      <g>
        <path class="uuid-ae6dcf74-6f49-4aed-9254-01245e14bf01" d="M312.66,175.54c-.79,.33,.35,.31,1.27,.36,.24-.25,.49-.47,.76-.71-.68,.06-1.35,.22-2.03,.35Z"/>
        <path class="uuid-ae6dcf74-6f49-4aed-9254-01245e14bf01" d="M317.23,175.37c.78-.15,1.58-.2,2.42-.19-.59-.05-1.17-.09-1.74-.06-.91-.3-.86-.41-.44-.54,.41-.09,1.18-.1,1.56-.06-1.63-.25-1.94,0-1.91,.2,.03,.22,.37,.48,.11,.65Z"/>
        <path class="uuid-ae6dcf74-6f49-4aed-9254-01245e14bf01" d="M321.73,176.19c1.28,.81,1.16,.25,.65-.2-.18,.08-1.16-.2-.65,.2Z"/>
        <path class="uuid-ae6dcf74-6f49-4aed-9254-01245e14bf01" d="M337.78,266.08c.05-.42,.06-.92,.19-.86-.16-.45-.27-.54-.19,.86Z"/>
        <path class="uuid-ae6dcf74-6f49-4aed-9254-01245e14bf01" d="M337.96,265.22c.03,.09,.06,.18,.1,.29-.02-.09-.03-.17-.06-.28-.02-.03-.03,0-.04-.02Z"/>
        <path class="uuid-ae6dcf74-6f49-4aed-9254-01245e14bf01" d="M339.14,235c-.33-1.69-.14-2.65-.3-4.26l.5-.91c-.2-1.75-.45-.77-.74-2.03,.3-1.6-.09-4.97-.1-5.73,.22-.54,.35,.65,.5,.9-.24-2.05-.73-1.89-.85-4.45l.14-.05c-1.01-6.07-1.44-13.86-3.17-20.56,.06,.46-.07,.37-.14,.56-.73-3.54-1.69-7.37-3.15-10.85-1.44-3.47-3.49-6.61-5.87-8.39,1.37,1.44,2.62,3.8,3.6,6.22,1.01,2.42,1.81,4.89,2.76,6.68,.05,1.5,1.05,3.57,.66,4.27,.45,2.77,.92,4.68,1.4,6.58,.47,1.9,.94,3.78,1.19,6.47-.02,.78-.31,.43-.53,.67-.2-1.41-.44-2.81-.68-4.22l.07,2.6c-.33-1.09-.49-3.82-.99-4.07,1.05,3.61,1.08,9.57,1.89,12.77,.04-1.53-.22-3.42-.32-5.23,.1-.8,.12-2.04,.37-1.99,1.17,5.11,1.02,9.45,1.39,14.75,.09,1.33,.09,3.14-.15,3.36-.1-.87-.29-.21-.42-.92,.24,1.88,.9,.17,.84,2.9l-.86-.34c.92,1.07-.11,3.33,.44,5.26-.34,.7-.55-.58-.59-2.07-.13,1.69,.37,1.84,.37,3.18l-.75-1.27c.71,1.43-.1,2.57-.33,3.39,.18,.09,.72-.67,.71,1.13-.08,.77-.27,.38-.37,.57,.18,.09,.52,.73,.59,1.91-.24,.23-.4-.77-.65-.84,.04,.9,.13,1.62-.03,2.28,.33,1.57,.34-.12,.69,.81,.04,1.18-.11,1.27-.39,1.2-.27-.07-.64-.39-.8,.15-.69-1.95-.79-4.3-1.03-5.3,.1,1.18,.2,2.37,.36,3.58-.15-.1-.23,.53-.3,.97-.05,.46-.17,.67-.42-.35,.01,.48,.05,.99,.17,1.62,.13,.47,.26,.95,.39,1.43,.23,.87,.46,1.76,.7,2.65,.47,1.81,.94,3.62,1.33,5.24,.03-.48-.02-1.09,.17-1.02,.45,1.67,.06,1.54-.08,1.92,.4,1.22,.85,1.01,1.34,1.73-.04,2.67,.26,3.01-.09,5.3l.48-.19c-.22,1.62,.55,1.78,.41,3.51-.1,.1-.28-.54-.45-1.05,.29,1.5-.27,1.43,.02,2.88l-.64-1.12c.12,1.17,.4,2.87-.11,2.3,.72,2,.66,5.6,1,8.15l-.43-.16c.26,.66,.27,1.87,.26,3.06-.02,1.19-.03,2.36,.27,2.94l-.18,.19,.44,2.66c-.11,1.19-.75,.74-.57,.85-.06,1.3-.09,2.47-.21,3.51-.13,1.04-.28,1.96-.48,2.77,.49,.48,.3,3.25-.1,5.4-1.2,5.14-2.73,10.38-5.04,15.19-1.09,2.44-2.5,4.69-3.95,6.84-.38,.53-.8,1.02-1.19,1.53-.41,.5-.77,1.04-1.23,1.48-.89,.9-1.69,1.89-2.66,2.66-.59,.44-1.15,1.16-1.84,1.82-.69,.65-1.42,1.37-2.17,1.99,1.03-.55,1.56-.91,2.07-1.29,.25-.19,.51-.38,.81-.6,.29-.25,.63-.53,1.08-.88,.72-.47,1.32-.66,1.89-.87,.55-.22,1.11-.41,1.79-.8l-.89,.17c1.44-1.89,1.41-.9,2.28-2.63l.53,.58c.14-.76,1.5-1.77,2.03-2.24l-.07-.82c.56-.51,1.01-.92,1.4-1.27,.36-.34,.68-.56,1.01-.63l-.49-.14c.26-.16,1.06-1.37,1.64-2.36,.57-.99,1.07-1.7,1.04-.71,.1-.44,.06-.91,.54-1.73l.5,.08c.44-1.32,.96-2.76,1.37-3.03-.18,.73-.09,1.05,.02,1.36,.63-1.34,.77-2.16,.81-2.64,.02-.49-.13-.69-.29-.86-.35-.36-.62-.61,.06-3.03l.29,.15,.04-1.32c.27-.39,.5-.79,.74-1.19-.32-1.02,.16-2.71,.59-4.58,.49-1.85,.9-3.88,.84-5.41,.03-1.19,.91-2.66,1-4.93l-.5,.11c.35-.88,.67-3.01,1.05-5.14,.34-2.12,.74-4.25,1.29-5.11-.39-1.72-.1,.18-.49,.14-.52-3.35,.19-3.59,.44-5.36-.34-2.06-.12,1.59-.54,.49,.22-3.18-.7-2.53-.66-6.43,.25-.41,.27,.99,.48,1.38-.68-2.7-.88-7.8-1.59-11.82-.17-2.33-.52-5.2-1.04-8.2-.12-.75-.27-1.52-.43-2.29-.1-.41-.16-.77-.28-1.22l-.18-.68h0c.27-.1-2.39,.84-1.25,.43l.06-.02,.12-.05,.24-.09,.48-.16,.24-.07,.12-.03s.01,0,.02,0h0s0-.04,0-.08c-.03-.36-.05-1.05-.05-1.67,0-.65,.03-1.3,.06-1.95l-.18-.09c.39-2.16-.06-4.55,.12-7.16l-.25,1.27Z"/>
        <path class="uuid-ae6dcf74-6f49-4aed-9254-01245e14bf01" d="M332.75,203.35l-.36,.47,.59,2.37c.22-1.02-.13-1.49-.23-2.85Z"/>
        <polygon class="uuid-ae6dcf74-6f49-4aed-9254-01245e14bf01" points="334.09 203.7 333.72 202.45 334.03 204.5 334.09 203.7"/>
        <polygon class="uuid-ae6dcf74-6f49-4aed-9254-01245e14bf01" points="335.09 234.73 335.15 234.41 334.73 229.75 335.09 234.73"/>
        <path class="uuid-ae6dcf74-6f49-4aed-9254-01245e14bf01" d="M337.34,265.95c-.27-.5-.24-1.27-.46-1.79,.16,.7,.28,1.41,.42,2.11l.04-.32Z"/>
        <path class="uuid-ae6dcf74-6f49-4aed-9254-01245e14bf01" d="M336.04,286.56c.71,.85-.13,1.58,.65,.57-.05-1.27-.41-.19-.65-.57Z"/>
        <path class="uuid-ae6dcf74-6f49-4aed-9254-01245e14bf01" d="M336.73,291.38c.1-.72,.05-1.13-.04-1.54-.42,.92-.06,.99,.04,1.54Z"/>
      </g>
      <g>
        <polygon class="uuid-ae6dcf74-6f49-4aed-9254-01245e14bf01" points="322.27 331.03 319.13 329.53 319.81 326.11 315.22 331.49 322.27 331.03"/>
        <polygon class="uuid-d18e0286-aea0-463f-b832-89a555c523e9" points="321.38 330.85 315.84 331.18 318.81 329.69 321.38 330.85"/>
        <polygon class="uuid-13ef3017-1d53-4ba0-9bf4-8afc36e75a93" points="319.42 326.93 315.84 331.18 318.81 329.69 319.42 326.93"/>
      </g>
    </g>
    <g>
      <g>
        <path class="uuid-ae6dcf74-6f49-4aed-9254-01245e14bf01" d="M277.23,406.39c-.76-1.09-.12,.54,.28,1.92,.37,.31,.71,.64,1.07,.97-.39-.99-.86-1.95-1.35-2.89Z"/>
        <path class="uuid-ae6dcf74-6f49-4aed-9254-01245e14bf01" d="M279.46,413.15c.42,1.13,.73,2.33,.9,3.57-.06-.89-.23-1.77-.42-2.63-.15-2.95,.82,.26,.91,1.45-.21-2.49-.64-2.86-.8-2.76-.2,.11-.33,.7-.58,.37Z"/>
        <path class="uuid-ae6dcf74-6f49-4aed-9254-01245e14bf01" d="M279.7,420.21c-.33,1.13-.43,1.54-.32,1.59,.1,.05,.39-.29,.6-.76-.1-.21,.09-1.76-.28-.83Z"/>
        <path class="uuid-ae6dcf74-6f49-4aed-9254-01245e14bf01" d="M231.63,476.08c-.48-.42-1.09-.87-.94-.91-.67-.28-.84-.28,.94,.91Z"/>
        <path class="uuid-ae6dcf74-6f49-4aed-9254-01245e14bf01" d="M230.7,475.17c.13,.06,.27,.12,.43,.19-.13-.07-.23-.13-.38-.2-.04,0-.03,.01-.05,.02Z"/>
        <path class="uuid-ae6dcf74-6f49-4aed-9254-01245e14bf01" d="M202.33,458.43c-.28-.1-.17-.16-.07-.19,.11-.04,.23-.05,.33-.14,.19,.13,.32,.28,.38,.44,.15-.08,.27-.16,.6-.28,.25-.11,.36-.19,.44-.28,.17-.16,.25-.32,1.17-.66,2.45-.2,7.44-1.58,8.59-1.81,.84,.06-.92,.54-1.27,.76,3.05-.84,2.73-1.27,6.57-2.12l.09,.12c9.01-2.75,20.7-5.4,30.52-9.36-.68,.21-.55,.05-.84,.04,5.22-1.9,10.8-4.2,15.77-7.12,4.96-2.89,9.32-6.54,11.64-10.41-1.84,2.42-5.07,4.97-8.51,7.06-3.43,2.13-7.05,3.91-9.65,5.56-2.2,.59-5.23,2.34-6.29,2.17-4.09,1.4-6.93,2.49-9.75,3.56-2.81,1.07-5.6,2.11-9.63,3.17-1.18,.21-.68-.18-1.08-.33,2.11-.63,4.21-1.27,6.3-1.95l-3.92,.86c1.62-.66,5.73-1.65,6.06-2.24-5.34,2.19-14.38,3.96-19.13,5.68,2.33-.41,5.17-1.21,7.89-1.84,1.23-.13,3.11-.49,3.05-.22-7.58,2.68-14.17,3.74-22.13,5.68-2,.49-4.72,1.04-5.11,.88,1.3-.37,.26-.35,1.31-.71-1.4,.41-1.42,.65-1.61,.88-.09,.12-.23,.23-.6,.37-.17,.07-.45,.15-.73,.22-.23,.06-.58,.14-.86,.19-.03-.29-.03-.58,.02-.88-.51,.58-1.27,.72-2.43,.92-1.1,.19-2.67,.47-3.1,.95-.78,.07-.98-.04-.69-.25,.28-.21,1.06-.51,2.01-.78-1.22,.25-1.68,.49-1.95,.7-.28,.22-.41,.4-1.15,.75-.22-.29-.3-.58-.27-.89-.18,.5-1,.74-2.08,1.27-.26,.13-.53,.3-.69,.5-.17,.2-.21,.38-.24,.53,.12,.27,.35,.45,.54,.6,.09,.01,.13-.02,.18-.05,.02,0,.02-.01,.05-.02l.15-.03c.1-.02,.22-.03,.34-.04,.51-.02,1.18,.13,2.29,.49,.81,.34-.11,.28-.09,.41,.56-.05,2.1-.01,3.61,.27-.03,.24-1.61,.04-2.18,.16,1.4,.28,2.51,.47,3.34,.85,1.32,.19,1.3,.1,1.22-.02-.1-.12-.26-.26,.48-.23,1.6,.45,1.72,.71,1.45,.91-.24,.2-.87,.36-.2,.79-3.18-.42-8.64-1.36-10.01-1.97,.87,.36,1.89,.69,3.1,.94l3.62,.74c-.32,.08,.78,.45,1.54,.75,.75,.29,1.16,.51-.96,.18,1.53,.4,3.13,.82,4.76,1.24,1.38,.37,2.8,.75,4.2,1.13,2.81,.77,5.58,1.58,8.01,2.38-.64-.36-1.5-.73-1.29-.85,2.55,.77,2.13,1.03,2.56,1.41,1.88,.55,1.87,.03,3.13,.16,3.53,2.05,4.15,2.09,6.87,4.27l.06-.53c1.91,1.56,2.61,1.09,4.63,2.8,.05,.17-.83-.31-1.57-.63,2.02,1.13,1.54,1.51,3.44,2.68l-1.74-.6c1.46,.99,3.52,2.52,2.53,2.3,1.33,.75,2.94,2.11,4.35,3.72,1.43,1.6,2.54,3.47,3.28,5.07l-.48-.07c.57,.73,1.01,2.34,.97,3.89,0,1.56-.48,3.01-.53,3.85l-.27,.17c-.34,1.15-.85,2.32-1.56,3.41-1.21,1.27-1.29,.36-1.25,.6-2.6,2.75-5.36,4.36-7.68,5.35-.16,.38-1.13,1.14-2.52,1.87-1.36,.76-3.12,1.52-4.7,2.13-7.74,2.62-16.08,4.44-24.33,5.92-8.26,1.48-16.47,2.59-24.11,3.44-2.29,.19-5.42,1-8.29,1.43,3.53-.06,3.85-.33,7.31-.57,2.61-.02,3.61,.49,5.89,.68l-1.18-.39c3.48-.67,2.45,.06,5.18-.69l-.04,.79c.94-.48,3.43-.41,4.46-.33l.85-.64c2.24,.05,3.7-.03,4.44,.38l-.28-.46c.44,.11,2.56-.21,4.26-.39,1.7-.2,2.98-.3,1.73,.33,.62-.21,1.17-.56,2.58-.73l.3,.45c2.01-.49,4.24-.99,4.88-.85-1.07,.34-1.4,.62-1.72,.9,4.3-.79,4.67-1.32,4.9-1.8,.23-.51,.36-.91,4.08-1.87v.33c.6-.26,1.2-.53,1.8-.82l2.09-.15c1.19-.92,3.78-1.65,6.58-2.61,2.8-.93,5.83-2.11,7.79-3.49,1.57-.98,4.11-1.59,6.92-4.05l-.5-.22c1.26-.75,4.12-2.97,5.97-6.39,.93-1.68,1.52-3.62,1.76-5.33,.27-1.72,.2-3.16,.31-4.03-1.27-3.03,.02,.35-.43,.38-.48-1.5-.95-2.56-1.33-3.41-.38-.85-.67-1.48-.91-2.05-.48-1.13-.76-2-1.58-3.29-1.23-1.28-.83-.72-.31-.02,.5,.74,1.08,1.65,.36,1.01-1.51-2.24-2.42-2.87-3.38-3.61-.98-.72-2.06-1.53-4.45-3.54-.33-.6,1.41,.81,2.03,1.1-1.88-1.23-4.47-3.01-7.38-4.71-2.9-1.72-6.12-3.35-9.07-4.56-3.28-1.6-7.47-3.3-11.89-4.75-2.21-.75-4.47-1.41-6.7-2.05l-.21-.06-.05-.02-.09-.04-.18-.07-.16-.07-.08-.04s0-.01-.01-.02c-.02-.05,0-.1,.09-.14l-.32,.11c.31-.17,.44-.14,.33-.15-.1,0-.14-.06,.08,0-.17-.05-.38-.08-.63-.1Z"/>
        <path class="uuid-ae6dcf74-6f49-4aed-9254-01245e14bf01" d="M241.37,444.24l-.75-.21-3.54,1.33c1.57-.09,2.25-.59,4.29-1.12Z"/>
        <polygon class="uuid-ae6dcf74-6f49-4aed-9254-01245e14bf01" points="240.96 445.7 242.8 444.94 239.73 445.89 240.96 445.7"/>
        <path class="uuid-ae6dcf74-6f49-4aed-9254-01245e14bf01" d="M193.54,456.69l.55-.15c2.04-.86,4.58-1.63,7.32-2.38-2.93,.77-5.72,1.57-7.87,2.53Z"/>
        <path class="uuid-ae6dcf74-6f49-4aed-9254-01245e14bf01" d="M231.18,476.29c-.79-.24-1.7-.94-2.5-1.22,.97,.48,1.92,1,2.86,1.54l-.35-.32Z"/>
        <path class="uuid-ae6dcf74-6f49-4aed-9254-01245e14bf01" d="M238.84,498.34c-.17,1.27-1.49,1.51,0,.97,1.08-1.31-.16-.45,0-.97Z"/>
        <path class="uuid-ae6dcf74-6f49-4aed-9254-01245e14bf01" d="M234.38,503.34c.94-.54,1.33-1,1.75-1.41-1.33,.52-1.14,.87-1.75,1.41Z"/>
      </g>
      <g>
        <polygon class="uuid-ae6dcf74-6f49-4aed-9254-01245e14bf01" points="170.81 522.23 168.51 519.62 170.46 516.74 164.14 519.89 170.81 522.23"/>
        <polygon class="uuid-d18e0286-aea0-463f-b832-89a555c523e9" points="170.06 521.72 164.83 519.85 168.15 519.64 170.06 521.72"/>
        <polygon class="uuid-13ef3017-1d53-4ba0-9bf4-8afc36e75a93" points="169.79 517.34 164.83 519.85 168.15 519.64 169.79 517.34"/>
      </g>
    </g>
    <g>
      <g>
        <path class="uuid-ae6dcf74-6f49-4aed-9254-01245e14bf01" d="M44.35,307.64c.75-.71-.48-.14-1.53,.37-.16,.37-.33,.73-.48,1.11,.66-.51,1.34-.99,2.01-1.49Z"/>
        <path class="uuid-ae6dcf74-6f49-4aed-9254-01245e14bf01" d="M39.78,310.91c-.59,.77-1.13,1.57-1.65,2.37,.4-.56,.84-1.07,1.27-1.61,1.92-1.22,.2,.69-.3,1.36,1.27-1.3,1.44-1.62,1.25-1.76-.18-.13-.68-.03-.57-.36Z"/>
        <path class="uuid-ae6dcf74-6f49-4aed-9254-01245e14bf01" d="M36.18,315.17c-1.17,1.37-.51,1.23,.04,.73-.09-.21,.56-1.21-.04-.73Z"/>
        <path class="uuid-ae6dcf74-6f49-4aed-9254-01245e14bf01" d="M103.34,383.94c-.43,.31-.94,.68-.95,.54-.35,.49-.36,.65,.95-.54Z"/>
        <path class="uuid-ae6dcf74-6f49-4aed-9254-01245e14bf01" d="M102.4,384.48c.07-.09,.14-.19,.23-.31-.08,.09-.14,.16-.24,.26-.01,.04,0,.03,0,.05Z"/>
        <path class="uuid-ae6dcf74-6f49-4aed-9254-01245e14bf01" d="M75.51,367.44c-1.8-1.1-2.58-1.97-4.19-3.08l-.54-1.08c-1.77-1.16-1-.23-2.38-.95-1.32-1.43-4.71-3.61-5.41-4.17-.35-.57,.82,.2,1.15,.27-2.05-1.33-2.22-.83-4.63-2.65l.04-.14c-6.18-3.78-13.3-9.44-18.85-14.85,.33,.41,.17,.38,.23,.6-2.86-2.94-5.6-6.45-7.1-10.17-1.58-3.71-1.49-7.6-.66-10.83-.41,1.04-.87,2.26-1.16,3.64-.29,1.38-.38,2.9-.19,4.42,.35,3.05,1.82,5.9,3.41,7.59,.57,1.66,2.62,3.42,2.69,4.28,2.04,2.62,3.88,4.12,5.68,5.56,1.83,1.42,3.68,2.74,6.15,4.76,.65,.65,.15,.57,.2,.92-1.37-1-2.72-2.03-4.05-3.08,.73,.73,1.47,1.45,2.23,2.17-1.19-.67-3.55-2.95-4.13-2.87,3.65,2.61,8.98,7.33,12.48,9.15-1.38-1.2-3.27-2.48-4.93-3.85-.64-.72-1.71-1.74-1.47-1.87,5.23,3.31,9.12,6.61,14.33,10.26,1.31,.91,3,2.27,3.06,2.62-.88-.57-.38,.07-1.13-.36,1.92,1.21,.73-.58,3.25,1.51l-.86,.42c1.58,.09,3.04,2.59,5.16,3.69,.42,.8-.88-.05-2.29-1.15,1.48,1.4,1.93,1.13,3.16,2.2l-1.64-.44c1.77,.57,2.26,2.11,2.82,2.93,.21-.05-.1-1.08,1.48,.41,.61,.71,.14,.51,.23,.74,.21-.05,1.01,.24,2.04,1.25,.01,.36-.94-.41-1.18-.3,.78,.74,1.42,1.34,1.8,2.04,1.43,1.26,.18-.33,1.16,.35,1.79,2.33-.45,.77-.14,1.92-1.63-1.43-3.67-3.29-4.64-3.94,1.04,.9,2.06,1.82,3.03,2.79-.36,0,1.44,2.38-.17,.96,.62,.8,1.27,1.63,1.93,2.48,.73,.93,1.51,1.85,2.38,2.72,1.71,1.74,3.72,3.35,5.99,4.23-.6-.36-1.28-.85-1.07-.93,2.17,.97,1.88,1.05,2.31,1.45,.96,.16,1.42,.04,1.76-.14,.34-.17,.58-.35,1.1-.57,.9,.06,1.61-.07,2.2-.21,.58-.16,1.04-.33,1.47-.51,.85-.38,1.64-.74,2.97-1.4l-.44-.28c1.83-.96,1.53-1.73,3.23-2.98,.16,0-.32,.65-.72,1.19,1.24-1.42,1.54-.91,2.67-2.36l-.61,1.42c1.02-1.06,2.32-2.72,2.16-1.86,1.31-2.23,4.37-5.3,6.27-7.72l.17,.44c.71-1.52,4.1-4.1,4.7-5.45l.29-.03c.64-.84,1.3-1.69,1.97-2.51,1.12-.89,1.17-.07,1.14-.29,2.32-2.08,4.28-3.55,6.04-4.51,.08-.76,2.73-2.73,4.98-4.08,5.56-2.99,11.59-5.56,17.75-7.5,3.08-.97,6.18-1.8,9.25-2.5,3.07-.68,6.11-1.22,9.05-1.67,.89-.08,1.93-.33,3.03-.61,1.1-.26,2.26-.54,3.38-.74-2.75,0-2.99,.28-5.67,.5-2.03,.02-2.83-.47-4.63-.64,.32,.12,.63,.24,.94,.37-2.68,.74-1.92-.03-4,.78l-.03-.79c-.7,.52-2.65,.49-3.47,.46l-.6,.67c-1.77,.02-2.9,.2-3.53-.18l.28,.44c-.36-.1-1.99,.33-3.3,.62-1.31,.31-2.3,.48-1.42-.22-.46,.26-.84,.61-1.92,.89l-.31-.42c-1.51,.6-3.18,1.29-3.71,1.19,.79-.4,1-.71,1.2-1.01-3.28,1.09-3.45,1.68-3.55,2.14-.09,.49-.09,.93-2.84,2.14l-.07-.32-1.25,.94c-.54,.09-1.08,.21-1.62,.33-.74,.96-2.61,1.9-4.64,2.97-2.02,1.07-4.19,2.29-5.52,3.57-1.1,.9-3.03,1.45-5.1,3.22l.45,.27c-1.01,.49-3.13,1.97-5.21,3.51-2.08,1.53-4.14,3.08-5.26,3.41-1.16,1.74,.22-.08,.47,.22-2.42,3.23-3.14,2.91-4.78,4.24-1.47,1.96,1.4-1.24,.79-.03-2.8,2.47-1.59,2.68-4.91,5.71-.5,.12,.65-.96,.84-1.43-.89,1.32-2.4,3-4.12,4.46-.85,.72-1.76,1.37-2.61,1.79-.86,.42-1.6,.61-2.26,.64-.76-.12-1.61-.4-2.61-1.15-.99-.71-2.06-1.76-3.07-2.96-.51-.59-1.01-1.24-1.49-1.9-.54-.73-1.07-1.46-1.6-2.18-1.15-1.51-2.34-2.89-3.47-4.15l-.21,.04c-1.69-2.3-4.23-3.96-6.56-6.14l1.03,1.2Z"/>
        <path class="uuid-ae6dcf74-6f49-4aed-9254-01245e14bf01" d="M42.57,347.22l.09,.66c.8,.6,1.6,1.19,2.41,1.77-.68-1.05-1.34-1.24-2.5-2.43Z"/>
        <path class="uuid-ae6dcf74-6f49-4aed-9254-01245e14bf01" d="M43.91,346.71l-1.26-.9c.61,.56,1.22,1.12,1.85,1.66l-.59-.76Z"/>
        <path class="uuid-ae6dcf74-6f49-4aed-9254-01245e14bf01" d="M72.62,370.3l-.25-.29c-1.51-1.1-3.04-2.16-4.57-3.21,1.62,1.15,3.24,2.31,4.82,3.51Z"/>
        <path class="uuid-ae6dcf74-6f49-4aed-9254-01245e14bf01" d="M103.49,384.4c-.33,.63-1.11,1.22-1.56,1.8,.66-.67,1.3-1.34,1.89-2.03l-.33,.23Z"/>
        <path class="uuid-ae6dcf74-6f49-4aed-9254-01245e14bf01" d="M122.24,367.88c.24-1.19,1.46-1.2,.04-.93-1.07,1.07,.12,.45-.04,.93Z"/>
        <path class="uuid-ae6dcf74-6f49-4aed-9254-01245e14bf01" d="M125.97,363.51c-.71,.5-1.03,.88-1.33,1.26,1.12-.42,.91-.75,1.33-1.26Z"/>
      </g>
      <g>
        <polygon class="uuid-ae6dcf74-6f49-4aed-9254-01245e14bf01" points="172.33 342.36 174.55 345.04 172.52 347.86 178.93 344.89 172.33 342.36"/>
        <polygon class="uuid-d18e0286-aea0-463f-b832-89a555c523e9" points="173.07 342.9 178.24 344.92 174.92 345.03 173.07 342.9"/>
        <polygon class="uuid-13ef3017-1d53-4ba0-9bf4-8afc36e75a93" points="173.21 347.28 178.24 344.92 174.92 345.03 173.21 347.28"/>
      </g>
    </g>
    <text class="uuid-721c9b8b-89b6-48a4-8af2-f96c3739caf1" transform="translate(49.24 49.91)"><tspan class="uuid-a4312b47-7fdf-4825-a91b-d53138b2b28f" x="0" y="0" xml:space="preserve">  title</tspan><tspan class="uuid-eae295c5-f5e6-45ff-99ac-88affd479a8b" x="33.61" y="0">:</tspan><tspan class="uuid-eae295c5-f5e6-45ff-99ac-88affd479a8b" x="0" y="9.6" xml:space="preserve">    </tspan><tspan class="uuid-a4312b47-7fdf-4825-a91b-d53138b2b28f" x="19.2" y="9.6">type</tspan><tspan class="uuid-eae295c5-f5e6-45ff-99ac-88affd479a8b" x="38.41" y="9.6">: string</tspan><tspan class="uuid-a4312b47-7fdf-4825-a91b-d53138b2b28f" x="0" y="28.8" xml:space="preserve">  order</tspan><tspan class="uuid-eae295c5-f5e6-45ff-99ac-88affd479a8b" x="33.61" y="28.8">:</tspan><tspan class="uuid-eae295c5-f5e6-45ff-99ac-88affd479a8b" x="0" y="38.4" xml:space="preserve">    </tspan><tspan class="uuid-a4312b47-7fdf-4825-a91b-d53138b2b28f" x="19.2" y="38.4">type</tspan><tspan class="uuid-eae295c5-f5e6-45ff-99ac-88affd479a8b" x="38.41" y="38.4">: number</tspan><tspan class="uuid-a4312b47-7fdf-4825-a91b-d53138b2b28f" x="0" y="57.6" xml:space="preserve">  category</tspan><tspan class="uuid-eae295c5-f5e6-45ff-99ac-88affd479a8b" x="48.01" y="57.6">:</tspan><tspan class="uuid-eae295c5-f5e6-45ff-99ac-88affd479a8b" x="0" y="67.2" xml:space="preserve">    </tspan><tspan class="uuid-a4312b47-7fdf-4825-a91b-d53138b2b28f" x="19.2" y="67.2">type</tspan><tspan class="uuid-eae295c5-f5e6-45ff-99ac-88affd479a8b" x="38.41" y="67.2">: string</tspan><tspan class="uuid-eae295c5-f5e6-45ff-99ac-88affd479a8b" x="0" y="76.8" xml:space="preserve">    </tspan><tspan class="uuid-a4312b47-7fdf-4825-a91b-d53138b2b28f" x="19.2" y="76.8">enum</tspan><tspan class="uuid-eae295c5-f5e6-45ff-99ac-88affd479a8b" x="38.41" y="76.8">:</tspan><tspan class="uuid-eae295c5-f5e6-45ff-99ac-88affd479a8b" x="0" y="86.4" xml:space="preserve">      </tspan><tspan class="uuid-561d7ef6-54d8-45f4-8665-26f447f4e57c" x="28.8" y="86.4">-</tspan><tspan class="uuid-eae295c5-f5e6-45ff-99ac-88affd479a8b" x="33.61" y="86.4" xml:space="preserve"> Cuisine</tspan><tspan class="uuid-eae295c5-f5e6-45ff-99ac-88affd479a8b" x="0" y="96" xml:space="preserve">      </tspan><tspan class="uuid-561d7ef6-54d8-45f4-8665-26f447f4e57c" x="28.8" y="96">-</tspan><tspan class="uuid-eae295c5-f5e6-45ff-99ac-88affd479a8b" x="33.61" y="96" xml:space="preserve"> Art</tspan></text>
    <text class="uuid-721c9b8b-89b6-48a4-8af2-f96c3739caf1" transform="translate(212.22 235.58)"><tspan class="uuid-a4312b47-7fdf-4825-a91b-d53138b2b28f" x="0" y="0">YAML</tspan><tspan class="uuid-eae295c5-f5e6-45ff-99ac-88affd479a8b" x="19.2" y="0">: is, too!</tspan></text>
    <rect class="uuid-92ccb311-a66b-4595-9801-d2e616a405f0" x="268.24" y="355.05" width="43.71" height="9.77"/>
    <text class="uuid-d5e63a30-8088-4759-913d-af99d8e985a3" transform="translate(194.8 136.38)"><tspan class="uuid-70179d2f-0487-468b-8581-958a62628cbc"><tspan class="uuid-a4312b47-7fdf-4825-a91b-d53138b2b28f" x="0" y="0">title</tspan><tspan class="uuid-eae295c5-f5e6-45ff-99ac-88affd479a8b" x="24" y="0">: Good night</tspan></tspan><tspan class="uuid-70179d2f-0487-468b-8581-958a62628cbc"><tspan class="uuid-a4312b47-7fdf-4825-a91b-d53138b2b28f" x="0" y="9.6">order</tspan><tspan class="uuid-eae295c5-f5e6-45ff-99ac-88affd479a8b" x="24" y="9.6">: 1</tspan></tspan><tspan class="uuid-70179d2f-0487-468b-8581-958a62628cbc"><tspan class="uuid-a4312b47-7fdf-4825-a91b-d53138b2b28f" x="0" y="19.2">category</tspan><tspan class="uuid-eae295c5-f5e6-45ff-99ac-88affd479a8b" x="38.41" y="19.2">: Art</tspan></tspan><tspan class="uuid-1d593f5d-7875-40a3-9fee-8ce6700458d3"><tspan x="0" y="28.8">---</tspan></tspan><tspan class="uuid-5e4ff58e-80da-4155-be77-9984bafd7cec"><tspan x="0" y="48">**Markdown is Great**</tspan></tspan><tspan class="uuid-70179d2f-0487-468b-8581-958a62628cbc"><tspan class="uuid-eae295c5-f5e6-45ff-99ac-88affd479a8b" x="0" y="67.2">&lt;</tspan><tspan class="uuid-561d7ef6-54d8-45f4-8665-26f447f4e57c" x="4.8" y="67.2">Mdx</tspan><tspan class="uuid-eae295c5-f5e6-45ff-99ac-88affd479a8b" x="19.2" y="67.2"> </tspan><tspan class="uuid-c1354ff4-2a46-4bac-9ca3-1023ee96b6d8" x="24" y="67.2">is</tspan><tspan class="uuid-eae295c5-f5e6-45ff-99ac-88affd479a8b" x="33.61" y="67.2">={</tspan><tspan class="uuid-a011a0a6-646a-40e5-8b29-f135d7093071" x="43.21" y="67.2">awesome</tspan><tspan class="uuid-eae295c5-f5e6-45ff-99ac-88affd479a8b" x="76.81" y="67.2">} /&gt;</tspan></tspan></text>
    <text class="uuid-90fa81d3-ffcb-4c05-a64f-96799fa410e0" transform="translate(194.8 307.8)"><tspan class="uuid-c1354ff4-2a46-4bac-9ca3-1023ee96b6d8" x="0" y="0">import </tspan><tspan class="uuid-eae295c5-f5e6-45ff-99ac-88affd479a8b" x="25.2" y="0">{ get, </tspan><tspan class="uuid-c1354ff4-2a46-4bac-9ca3-1023ee96b6d8" x="50.41" y="0">type </tspan><tspan class="uuid-eae295c5-f5e6-45ff-99ac-88affd479a8b" x="68.41" y="0">Article }</tspan><tspan class="uuid-eae295c5-f5e6-45ff-99ac-88affd479a8b" x="0" y="7.2" xml:space="preserve">  </tspan><tspan class="uuid-c1354ff4-2a46-4bac-9ca3-1023ee96b6d8" x="7.2" y="7.2">from </tspan><tspan class="uuid-097674ff-b679-48c0-9c22-3443890d6dee" x="25.2" y="7.2">‘/content’</tspan><tspan class="uuid-eae295c5-f5e6-45ff-99ac-88affd479a8b" x="61.21" y="7.2">;</tspan><tspan class="uuid-c1354ff4-2a46-4bac-9ca3-1023ee96b6d8" x="0" y="21.6">const </tspan><tspan class="uuid-a011a0a6-646a-40e5-8b29-f135d7093071" x="21.6" y="21.6">content </tspan><tspan class="uuid-eae295c5-f5e6-45ff-99ac-88affd479a8b" x="50.41" y="21.6">= </tspan><tspan class="uuid-c1354ff4-2a46-4bac-9ca3-1023ee96b6d8" x="57.61" y="21.6">await </tspan><tspan class="uuid-06d67558-b93e-4ef5-b12b-7f090c27c747" x="79.21" y="21.6">get</tspan><tspan class="uuid-eae295c5-f5e6-45ff-99ac-88affd479a8b" x="90.01" y="21.6">(...);</tspan><tspan class="uuid-c1354ff4-2a46-4bac-9ca3-1023ee96b6d8" x="0" y="36">const </tspan><tspan class="uuid-561d7ef6-54d8-45f4-8665-26f447f4e57c" x="21.6" y="36">tasteGood </tspan><tspan class="uuid-eae295c5-f5e6-45ff-99ac-88affd479a8b" x="57.61" y="36">=</tspan><tspan class="uuid-eae295c5-f5e6-45ff-99ac-88affd479a8b" x="0" y="43.2" xml:space="preserve">  </tspan><tspan class="uuid-561d7ef6-54d8-45f4-8665-26f447f4e57c" x="7.2" y="43.2">content</tspan><tspan class="uuid-eae295c5-f5e6-45ff-99ac-88affd479a8b" x="32.41" y="43.2">.articles.tasteGood;</tspan><tspan class="uuid-eae295c5-f5e6-45ff-99ac-88affd479a8b"><tspan x="0" y="57.6">---</tspan></tspan><tspan class="uuid-eae295c5-f5e6-45ff-99ac-88affd479a8b" x="0" y="72">{</tspan><tspan class="uuid-561d7ef6-54d8-45f4-8665-26f447f4e57c" x="3.6" y="72">tasteGood</tspan><tspan class="uuid-eae295c5-f5e6-45ff-99ac-88affd479a8b" x="36.01" y="72">.frontmatter.title}</tspan><tspan class="uuid-eae295c5-f5e6-45ff-99ac-88affd479a8b" x="0" y="86.4">&lt;</tspan><tspan class="uuid-561d7ef6-54d8-45f4-8665-26f447f4e57c" x="3.6" y="86.4">tasteGood.body.Content</tspan><tspan class="uuid-eae295c5-f5e6-45ff-99ac-88affd479a8b" x="82.81" y="86.4" xml:space="preserve"> /&gt;</tspan><tspan class="uuid-eae295c5-f5e6-45ff-99ac-88affd479a8b"><tspan x="0" y="93.6" xml:space="preserve">            </tspan></tspan><tspan class="uuid-eae295c5-f5e6-45ff-99ac-88affd479a8b"><tspan x="0" y="100.8" xml:space="preserve">             ...</tspan></tspan></text>
    <text class="uuid-bf2a165d-deb9-4ab9-a5f6-a42daef11da0" transform="translate(53.28 579.18)"><tspan class="uuid-0712f025-8606-445d-baba-e7d355ad9043" x="0" y="0">W</tspan><tspan x="6.48" y="0">ebsite, wiki, docs, PD</tspan><tspan class="uuid-ca5b3fb6-508d-487c-bb4d-62675eabff78" x="73" y="0">F</tspan><tspan x="76.5" y="0">, </tspan><tspan x="0" y="8.4">private knowledge base…</tspan></text>
    <text transform="translate(34.33 240.42)"><tspan><tspan class="uuid-d17760ab-6298-43d4-8f64-359866bb5107" x="0" y="0">title</tspan><tspan class="uuid-95b66cca-44aa-4b71-ae71-7e24f9555981" x="24" y="0">: </tspan><tspan class="uuid-2b59d3f3-7731-4b97-aa16-fd7dc7889ecd" x="33.61" y="0" xml:space="preserve">◊  </tspan><tspan class="uuid-95b66cca-44aa-4b71-ae71-7e24f9555981" x="46.2" y="0">Taste good</tspan></tspan><tspan class="uuid-721c9b8b-89b6-48a4-8af2-f96c3739caf1"><tspan class="uuid-a4312b47-7fdf-4825-a91b-d53138b2b28f" x="0" y="9.6">order</tspan><tspan class="uuid-eae295c5-f5e6-45ff-99ac-88affd479a8b" x="24" y="9.6">: 1</tspan></tspan><tspan class="uuid-721c9b8b-89b6-48a4-8af2-f96c3739caf1"><tspan class="uuid-a4312b47-7fdf-4825-a91b-d53138b2b28f" x="0" y="19.2">category</tspan><tspan class="uuid-eae295c5-f5e6-45ff-99ac-88affd479a8b" x="38.41" y="19.2">: Sport</tspan></tspan><tspan class="uuid-95b66cca-44aa-4b71-ae71-7e24f9555981"><tspan x="0" y="28.8">---</tspan></tspan><tspan/><tspan class="uuid-84cc5aaf-e4ed-46ea-b2cd-7693fd2a49c9"><tspan class="uuid-eae295c5-f5e6-45ff-99ac-88affd479a8b" x="0" y="48">**See recipe on Git</tspan><tspan class="uuid-561d7ef6-54d8-45f4-8665-26f447f4e57c" x="91.21" y="48">h</tspan><tspan class="uuid-eae295c5-f5e6-45ff-99ac-88affd479a8b" x="96.02" y="48">ub**</tspan></tspan></text>
    <text class="uuid-9faf7043-0792-4d5c-ad72-b1b8d5ff4488" transform="translate(75.53 313.67)"><tspan class="uuid-70179d2f-0487-468b-8581-958a62628cbc" x="0" y="0">it’s “Git</tspan><tspan class="uuid-76260e45-6b24-432b-a960-d05e91dc9130" x="43.21" y="0">H</tspan><tspan class="uuid-70179d2f-0487-468b-8581-958a62628cbc" x="48.01" y="0">ub”!</tspan></text>
    <text class="uuid-d5e63a30-8088-4759-913d-af99d8e985a3" transform="translate(134.3 252.13)"><tspan class="uuid-b45e4741-8a75-4fb3-9653-3d9a7240188c"><tspan x="0" y="0">Art?</tspan></tspan><tspan class="uuid-3ff9da84-b413-45ba-b7f6-814cbc3d23ca" x="0" y="9.6">Cuisine</tspan><tspan class="uuid-b45e4741-8a75-4fb3-9653-3d9a7240188c" x="33.61" y="9.6">?</tspan></text>
    <text class="uuid-12f51137-609f-4c0e-8fdc-8faed6ebc733" transform="translate(57.6 322.25)"><tspan x="0" y="0">ÈÏ</tspan></text>
    <text class="uuid-f4c75977-8e3f-40a9-a0d6-7a76994e37d0" transform="translate(310.7 351.97)"><tspan x="0" y="0">È∂</tspan></text>
    <text class="uuid-f4c75977-8e3f-40a9-a0d6-7a76994e37d0" transform="translate(117.66 271.34)"><tspan x="0" y="0">ÏÈ</tspan></text>
    <text class="uuid-79928d5e-d41a-4ebe-b79b-79759662e2e8" transform="translate(56.86 21.97)"><tspan class="uuid-14bbc258-f2fa-4bd4-8671-a9d8550ad390" x="0" y="0">Declare </tspan><tspan class="uuid-755381ca-6d36-44dd-bea0-3a3f9dbf13b5" x="40.96" y="0">model</tspan></text>
    <line class="uuid-5d5e9d67-ae43-427d-a01b-67d8e51e0aa3" x1="33.91" y1="32.27" x2="155.17" y2="32.27"/>
    <line class="uuid-5d5e9d67-ae43-427d-a01b-67d8e51e0aa3" x1="188.08" y1="119.78" x2="309.34" y2="119.78"/>
    <line class="uuid-5d5e9d67-ae43-427d-a01b-67d8e51e0aa3" x1="189.08" y1="219.46" x2="308.34" y2="219.46"/>
    <line class="uuid-5d5e9d67-ae43-427d-a01b-67d8e51e0aa3" x1="188.08" y1="294.95" x2="309.34" y2="294.95"/>
    <line class="uuid-5d5e9d67-ae43-427d-a01b-67d8e51e0aa3" x1="32.91" y1="470.12" x2="154.17" y2="470.12"/>
    <line class="uuid-5d5e9d67-ae43-427d-a01b-67d8e51e0aa3" x1="31.04" y1="566.36" x2="156.03" y2="566.36"/>
    <text/>
    <text class="uuid-824030dd-be68-49f1-9c0f-04aee1c4d166" transform="translate(271.94 361.81)"><tspan class="uuid-c1354ff4-2a46-4bac-9ca3-1023ee96b6d8" x="0" y="0">type </tspan><tspan class="uuid-e4aabad3-0a0e-445e-ac0e-83d0c5d20717" x="15" y="0">Article</tspan></text>
    <line class="uuid-5d5e9d67-ae43-427d-a01b-67d8e51e0aa3" x1="26.87" y1="219.46" x2="161.4" y2="219.46"/>
    <g>
      <rect class="uuid-ab596ec5-872c-4f9e-ab70-c5e816cbc438" x="29.92" y="479.23" width="127.33" height="79.36" rx="7" ry="7"/>
      <text class="uuid-2b59d3f3-7731-4b97-aa16-fd7dc7889ecd" transform="translate(53.76 506.3)"><tspan x="0" y="0">◊ </tspan><tspan class="uuid-0712f025-8606-445d-baba-e7d355ad9043" x="9.26" y="0"> </tspan><tspan class="uuid-ca5b3fb6-508d-487c-bb4d-62675eabff78" x="12.38" y="0">T</tspan><tspan x="18.38" y="0">aste good</tspan></text>
      <text class="uuid-56dac6c7-29c2-4e3e-bbc0-0f587fbd4b89" transform="translate(39.56 519.69)"><tspan class="uuid-df014eb7-4ef2-43b8-b4d2-9d520dc9e8df" x="0" y="0">V</tspan><tspan x="3.78" y="0">erson ces roses pres ce vin,</tspan><tspan x="0" y="7.2">De ce vin verson ces roses,</tspan><tspan x="0" y="14.4">Et boyvon l’un à l’autre, afin</tspan><tspan x="0" y="21.6">Qu’au coeur noz tristesses encloses</tspan><tspan x="0" y="28.8">Prennent en boyvant quelque fin.</tspan></text>
      <text class="uuid-3845da95-5da8-4fc4-b8c7-914f82e70279" transform="translate(60.44 488.78)"><tspan x="0" y="0">localhost:3000/taste-good</tspan></text>
      <circle class="uuid-0e3481d2-3501-43ba-b300-30648da2574c" cx="37.97" cy="486.67" r="2.85"/>
      <circle class="uuid-82188644-e9a5-406e-9d09-cc2baa112bd4" cx="44.86" cy="486.67" r="2.85"/>
      <circle class="uuid-2213bfee-75c4-4f38-bc02-27955989cc99" cx="51.84" cy="486.67" r="2.85"/>
      <rect class="uuid-8c2189e2-f158-4486-9283-142a53b4d857" x="151.38" y="494.55" width="2.65" height="38.73"/>
    </g>
  </g>
  <g id="uuid-29ce62cd-2958-4b6d-9052-983ad4ad27c6" data-name="Layer 3">
    <g>
      <path class="uuid-561d7ef6-54d8-45f4-8665-26f447f4e57c" d="M140.9,293.43c.13-.16-.04-.39-.19-.58l-.13,.62,.32-.04Z"/>
      <path class="uuid-561d7ef6-54d8-45f4-8665-26f447f4e57c" d="M140.19,293.26l-.35,.64,.26-.31c.29,.32-.03,.68-.14,.8,.47-.16,.16-.76,.24-1.13Z"/>
      <path class="uuid-561d7ef6-54d8-45f4-8665-26f447f4e57c" d="M139.49,293.77c-.23-.04-.16,.37-.07,.5,.01-.18,.16-.37,.07-.5Z"/>
      <path class="uuid-561d7ef6-54d8-45f4-8665-26f447f4e57c" d="M125.27,292c.06,.09,.14,.15,.13,.26,.07-.12,.09-.22-.13-.26Z"/>
      <path class="uuid-561d7ef6-54d8-45f4-8665-26f447f4e57c" d="M125.4,292.26s-.03,.05-.05,.07c.01,0,.03-.01,.04-.03,0-.02,0-.03,0-.04Z"/>
      <path class="uuid-561d7ef6-54d8-45f4-8665-26f447f4e57c" d="M130.05,297.3c.26-.31,.4-.12,.64-.25l.14,.52c.26-.17,.11-.44,.3-.71,.24,.33,.75,.02,.86,.04,.08,.24-.1,.33-.13,.48,.31-.18,.28-.67,.67-.68v.14c.92-.74,2.08-.56,3.1-1.03-.07-.03-.05-.14-.08-.24,1.08-.2,2.32-.23,3.16-1.46-.58,.14-1.57-.67-2.16,.25-.22-.37-.56,.17-.65-.35-.85-.22-1.19,.7-2,.73-.12-.09-.06-.35-.1-.59l.64-.25-.39-.2c.17-.23,.58-.07,.63-.53-.56,.56-1.46,.13-1.95,.79,.23,.12,.52-.02,.79,.01,.12,.16,.31,.28,.3,.53-.78,.73-1.43,.38-2.23,.61-.2,.06-.48,.02-.51-.22,.13-.09,.03-.29,.14-.41-.28,.21-.02,.89-.44,.8l.05-.86c-.16,.91-.51-.15-.8,.38-.11-.34,.09-.54,.31-.57-.26-.15-.28,.35-.48,.34l.19-.73c-.21,.7-.39-.13-.52-.37-.01,.18,.11,.73-.17,.69-.12-.09-.06-.28-.09-.38-.01,.18-.11,.51-.29,.53-.03-.24,.12-.37,.13-.62-.14,.02-.25,.06-.35-.14-.24,.2,.02,.35-.13,.62-.37-.17-.04-.85-.18-1.36,.28-.35,.63-.46,.78-.66l-.53,.2c.03-.29-.36-.49-.08-.77-.53-.26-1.17,.06-1.68,.3,.07,.1,.17,.16,.15,.34-.26,.17-.24-.19-.29-.39-.19,.2-.17,.69-.29,1.06-.41-.41-.46-.16-.81-.76l.02,.49c-.25-.4-.28,.35-.54,.06-.02-.11,.08-.23,.16-.35-.23,.16-.22-.42-.44-.22l.18-.55c-.18,.02-.44,.19-.35-.28-.31,.57-.87,.35-1.26,.68l.02-.43c-.2,.52-.75-.02-.92,.6l-.03-.17-.4,.58c-.18-.05-.13-.69-.14-.52-.4,.12-.72,.15-.98-.07-.06,.58-.48,.73-.82,.8-1.62-.34-3.36,.21-4.87,.88-.23,.03-.53,.66-.81,.94,.35,.14,.38-.15,.72-.15,.26,.15,.35,.74,.58,1.1l-.12-.48c.34-.39,.24,.26,.51-.24v.78c.09-.4,.33-.08,.43,.13l.09-.54c.22,.29,.36,.42,.43,.91l-.02-.49c.08,.31,.83-.06,.58,.78,.06-.11,.12-.37,.26-.31l.02,.49c.2-.13,.42-.23,.48,.05-.11,.12-.14,.34-.18,.55,.84,.08,.17-1.62,.91-1.67v.32s.18-.34,.18-.34l.2,.4c.26-1.09,1.05,.09,1.49-.49,.18-.09,.41,.56,.75,.48l-.03-.49c.27,.5,1.29,.81,1.55,1.95,.25-.38-.03-.1-.02-.49,.49-.52,.53,.26,.8,.55,.3-.25-.24-.19-.07-.56,.47,.37,.38-.61,.96-.29,.06,.28-.15,.19-.21,.38,.4-.51,1.17-.21,1.77-.31,.7,.34,1.72,.47,2.54,.91v-.18c.35,.46,.72,.03,1.11,.23l-.19-.26Z"/>
      <path class="uuid-561d7ef6-54d8-45f4-8665-26f447f4e57c" d="M134.85,292.6l-.07-.42-.37,.29c.15,.34,.23,.04,.44,.13Z"/>
      <polygon class="uuid-561d7ef6-54d8-45f4-8665-26f447f4e57c" points="134.78 293.88 134.98 293.68 134.66 293.72 134.78 293.88"/>
      <polygon class="uuid-561d7ef6-54d8-45f4-8665-26f447f4e57c" points="130.06 293.25 130.11 293.32 130.82 292.95 130.06 293.25"/>
      <path class="uuid-561d7ef6-54d8-45f4-8665-26f447f4e57c" d="M125.29,291.57c.08-.22,.2-.13,.28-.28l-.33,.21,.05,.07Z"/>
      <path class="uuid-561d7ef6-54d8-45f4-8665-26f447f4e57c" d="M122.08,289.88c-.12,.76-.25,0-.08,.68,.2-.13,.02-.43,.08-.68Z"/>
      <path class="uuid-561d7ef6-54d8-45f4-8665-26f447f4e57c" d="M121.34,290.99c.11,.02,.18-.09,.24-.2-.15-.34-.16,.05-.24,.2Z"/>
    </g>
    <g>
      <path class="uuid-4bb77daf-1ca6-4e35-bbb3-59e14071d3a1" d="M81.71,267.57c-.13,.16,.04,.39,.18,.58l.13-.62-.31,.03Z"/>
      <path class="uuid-4bb77daf-1ca6-4e35-bbb3-59e14071d3a1" d="M82.41,267.74l.35-.64-.25,.31c-.28-.32,.04-.68,.15-.8-.46,.16-.17,.76-.24,1.12Z"/>
      <path class="uuid-4bb77daf-1ca6-4e35-bbb3-59e14071d3a1" d="M83.11,267.24c.23,.05,.16-.37,.07-.5-.02,.18-.16,.37-.07,.5Z"/>
      <path class="uuid-4bb77daf-1ca6-4e35-bbb3-59e14071d3a1" d="M97.13,269.13c-.06-.09-.14-.15-.13-.26-.07,.12-.09,.22,.13,.26Z"/>
      <path class="uuid-4bb77daf-1ca6-4e35-bbb3-59e14071d3a1" d="M97,268.87s.03-.05,.05-.07c-.01,0-.03,.01-.04,.03,0,.02,0,.03,0,.04Z"/>
      <path class="uuid-4bb77daf-1ca6-4e35-bbb3-59e14071d3a1" d="M92.46,263.79c-.25,.31-.4,.11-.64,.25l-.13-.52c-.26,.17-.12,.44-.31,.71-.24-.33-.74-.03-.85-.05-.08-.24,.1-.33,.14-.48-.31,.17-.28,.67-.66,.67v-.14c-.91,.73-2.06,.54-3.07,1,.07,.03,.05,.14,.08,.24-1.06,.19-2.29,.21-3.13,1.44,.58-.13,1.55,.68,2.14-.23,.22,.37,.55-.17,.64,.36,.84,.23,1.18-.69,1.98-.71,.12,.09,.06,.35,.09,.59l-.64,.25,.39,.21c-.17,.23-.58,.06-.62,.53,.56-.56,1.45-.12,1.93-.77-.23-.12-.51,.02-.78-.02-.12-.16-.3-.29-.29-.54,.77-.72,1.41-.37,2.21-.59,.2-.06,.47-.02,.5,.23-.13,.09-.03,.29-.14,.41,.28-.21,.03-.89,.44-.79l-.05,.86c.16-.9,.5,.16,.79-.37,.1,.34-.09,.54-.31,.57,.25,.15,.28-.35,.48-.34l-.19,.73c.22-.7,.39,.14,.51,.37,.01-.18-.1-.73,.17-.69,.12,.09,.06,.28,.08,.38,.02-.18,.11-.51,.29-.53,.03,.24-.12,.37-.13,.62,.13-.01,.24-.06,.34,.14,.24-.2-.01-.35,.13-.62,.36,.17,.04,.85,.17,1.36-.28,.35-.63,.46-.78,.65l.53-.2c-.03,.29,.36,.49,.08,.77,.52,.26,1.16-.05,1.66-.28-.07-.1-.16-.16-.15-.34,.26-.17,.23,.19,.28,.4,.19-.2,.17-.69,.29-1.06,.4,.42,.45,.16,.79,.77l-.02-.49c.24,.4,.28-.35,.53-.06,.01,.11-.09,.23-.16,.35,.23-.16,.21,.42,.43,.23l-.18,.55c.18-.02,.44-.19,.35,.28,.31-.57,.86-.34,1.25-.67l-.03,.43c.2-.52,.74,.03,.91-.59l.03,.17,.4-.57c.18,.05,.12,.7,.13,.52,.4-.11,.71-.15,.96,.07,.06-.57,.48-.73,.82-.8,1.6,.36,3.32-.18,4.81-.84,.22-.02,.53-.66,.81-.94-.34-.14-.37,.15-.71,.15-.25-.15-.34-.74-.56-1.11l.11,.48c-.34,.39-.23-.26-.5,.23v-.78c-.08,.4-.32,.07-.42-.13l-.09,.54c-.21-.3-.35-.42-.42-.91l.02,.49c-.08-.31-.82,.05-.57-.79-.06,.11-.12,.37-.26,.31l-.02-.49c-.2,.13-.42,.22-.47-.06,.11-.12,.14-.33,.18-.55-.83-.09-.18,1.61-.91,1.66v-.32s-.18,.34-.18,.34l-.2-.4c-.27,1.09-1.03-.1-1.48,.48-.17,.09-.4-.56-.74-.49l.02,.49c-.27-.5-1.26-.82-1.51-1.96-.25,.38,.03,.1,.02,.49-.49,.51-.52-.26-.78-.55-.3,.25,.23,.19,.07,.56-.46-.37-.38,.61-.95,.28-.06-.28,.15-.19,.21-.38-.4,.5-1.15,.2-1.75,.29-.68-.35-1.7-.49-2.5-.94l-.02,.18c-.33-.46-.69-.03-1.08-.24l.19,.26Z"/>
      <path class="uuid-4bb77daf-1ca6-4e35-bbb3-59e14071d3a1" d="M87.67,268.45l.06,.42,.37-.29c-.15-.34-.23-.05-.43-.13Z"/>
      <polygon class="uuid-4bb77daf-1ca6-4e35-bbb3-59e14071d3a1" points="87.75 267.16 87.56 267.36 87.87 267.33 87.75 267.16"/>
      <polygon class="uuid-4bb77daf-1ca6-4e35-bbb3-59e14071d3a1" points="92.4 267.83 92.35 267.77 91.65 268.13 92.4 267.83"/>
      <path class="uuid-4bb77daf-1ca6-4e35-bbb3-59e14071d3a1" d="M97.1,269.56c-.08,.22-.2,.13-.28,.28l.33-.21-.05-.07Z"/>
      <path class="uuid-4bb77daf-1ca6-4e35-bbb3-59e14071d3a1" d="M100.25,271.27c.12-.76,.25,0,.08-.68-.2,.13-.03,.43-.08,.68Z"/>
      <path class="uuid-4bb77daf-1ca6-4e35-bbb3-59e14071d3a1" d="M100.99,270.17c-.11-.02-.17,.09-.24,.2,.15,.34,.15-.05,.24-.2Z"/>
    </g>
    <g>
      <path class="uuid-561d7ef6-54d8-45f4-8665-26f447f4e57c" d="M117.38,318.34c-.03,.08,0,.19,.04,.29l.04-.31-.08,.02Z"/>
      <path class="uuid-561d7ef6-54d8-45f4-8665-26f447f4e57c" d="M117.56,318.44l.1-.32-.07,.15c-.07-.16,.02-.34,.05-.4-.12,.08-.05,.38-.08,.56Z"/>
      <path class="uuid-561d7ef6-54d8-45f4-8665-26f447f4e57c" d="M117.74,318.19c.06,.02,.05-.18,.02-.25,0,.09-.05,.19-.02,.25Z"/>
      <path class="uuid-561d7ef6-54d8-45f4-8665-26f447f4e57c" d="M121.35,319.21s-.03-.08-.03-.13c-.02,.06-.02,.11,.03,.13Z"/>
      <path class="uuid-561d7ef6-54d8-45f4-8665-26f447f4e57c" d="M121.32,319.08s0-.02,.01-.04c0,0,0,0-.01,.01,0,0,0,.01,0,.02Z"/>
      <path class="uuid-561d7ef6-54d8-45f4-8665-26f447f4e57c" d="M120.2,316.51c-.07,.15-.1,.05-.17,.12l-.03-.26c-.07,.08-.04,.22-.09,.35-.06-.17-.19-.02-.22-.03-.02-.12,.03-.16,.04-.24-.08,.09-.08,.33-.18,.33v-.07c-.24,.36-.54,.26-.8,.48,.02,.01,.01,.07,.02,.12-.28,.09-.6,.09-.83,.7,.15-.06,.39,.35,.56-.1,.05,.18,.14-.08,.16,.18,.21,.12,.31-.34,.52-.34,.03,.05,.01,.17,.02,.3l-.17,.12,.1,.11c-.05,.11-.15,.03-.17,.26,.15-.27,.38-.05,.51-.38-.06-.06-.13,0-.2-.02-.03-.08-.07-.14-.07-.27,.21-.36,.37-.17,.58-.28,.05-.03,.12,0,.13,.12-.03,.04-.01,.14-.04,.2,.08-.1,.02-.44,.12-.39l-.02,.43c.05-.45,.13,.08,.21-.18,.02,.17-.03,.27-.09,.28,.06,.08,.08-.17,.13-.17l-.06,.36c.06-.35,.1,.07,.13,.19,0-.09-.02-.37,.05-.34,.03,.05,.01,.14,.02,.19,0-.09,.04-.25,.08-.26,0,.12-.04,.18-.04,.31,.03,0,.06-.03,.09,.07,.06-.1,0-.18,.04-.31,.09,.09,0,.42,.03,.68-.08,.17-.17,.23-.21,.32l.14-.1c-.01,.14,.09,.25,.01,.39,.13,.13,.3-.02,.43-.13-.02-.05-.04-.08-.03-.17,.07-.08,.06,.1,.07,.2,.05-.1,.05-.35,.09-.53,.1,.21,.12,.08,.2,.39v-.25c.06,.2,.08-.17,.14-.03,0,.05-.02,.12-.05,.17,.06-.08,.05,.21,.11,.12l-.05,.27s.12-.09,.09,.14c.09-.28,.23-.17,.33-.33v.21c.05-.26,.18,.02,.23-.29v.09s.12-.29,.12-.29c.05,.03,.02,.35,.03,.26,.1-.05,.19-.07,.25,.04,.02-.29,.13-.36,.22-.39,.41,.19,.86-.07,1.26-.39,.06-.01,.15-.33,.22-.46-.09-.07-.1,.07-.19,.07-.06-.08-.08-.37-.13-.56l.02,.24c-.09,.19-.06-.13-.13,.11v-.39c-.02,.2-.07,.03-.1-.07l-.03,.27c-.05-.15-.09-.21-.1-.46v.25c-.02-.16-.21,.02-.14-.4-.02,.06-.04,.18-.07,.15v-.25c-.05,.06-.11,.11-.12-.03,.03-.06,.04-.17,.05-.27-.21-.05-.06,.81-.26,.82v-.16s-.05,.17-.05,.17l-.05-.2c-.08,.54-.27-.06-.39,.23-.05,.04-.1-.28-.18-.25v.25c-.06-.25-.32-.42-.37-.99-.07,.19,0,.05,0,.25-.13,.25-.13-.13-.2-.28-.08,.12,.06,.1,.01,.28-.12-.19-.1,.3-.25,.13-.01-.14,.04-.1,.06-.19-.11,.25-.3,.09-.46,.14-.17-.18-.43-.25-.64-.48v.09c-.09-.23-.19-.02-.28-.12l.05,.13Z"/>
      <path class="uuid-561d7ef6-54d8-45f4-8665-26f447f4e57c" d="M118.91,318.82v.21s.11-.14,.11-.14c-.03-.17-.06-.02-.11-.07Z"/>
      <polygon class="uuid-561d7ef6-54d8-45f4-8665-26f447f4e57c" points="118.94 318.18 118.89 318.27 118.97 318.26 118.94 318.18"/>
      <polygon class="uuid-561d7ef6-54d8-45f4-8665-26f447f4e57c" points="120.14 318.54 120.13 318.5 119.94 318.68 120.14 318.54"/>
      <path class="uuid-561d7ef6-54d8-45f4-8665-26f447f4e57c" d="M121.34,319.42c-.02,.11-.05,.06-.08,.14l.09-.1v-.03Z"/>
      <path class="uuid-561d7ef6-54d8-45f4-8665-26f447f4e57c" d="M122.13,320.3c.04-.38,.06,0,.03-.34-.05,.06-.01,.21-.03,.34Z"/>
      <path class="uuid-561d7ef6-54d8-45f4-8665-26f447f4e57c" d="M122.34,319.75s-.05,.04-.06,.1c.03,.17,.04-.03,.06-.1Z"/>
    </g>
  </g>
</svg>