<?xml version="1.0" encoding="UTF-8"?><svg id="Layer_1_copy" xmlns="http://www.w3.org/2000/svg" viewBox="0 0 2217.46 570.56"><g><path d="M2049.55,201.56c1.74-5.22-.16-5.48-3.69-3.43-3.55,1.99-8.72,5.99-13.4,9.65l.38,1.89,.32,1.86,.61,3.74c.4,2.51,.78,5.04,1.14,7.59l3.84-5.2c.64-.87,1.29-1.72,1.91-2.61l1.78-2.7,7.12-10.78Z" style="fill:#ff6f1e;"/><path d="M2011.13,244.72l-2.94,7.28c-.48,1.24-1.03,2.41-1.58,3.6l-1.64,3.57-3.34,7.2-1.7,3.63-1.82,3.53c2.12-3.01,4.01-6.25,5.96-9.39,1.93-3.16,3.86-6.27,5.73-9.41,10.21-6.53,11.99-3.97,10.43,1.44-.39,1.35-.98,2.87-1.69,4.46-.36,.79-.74,1.61-1.15,2.42-.43,.79-.88,1.58-1.34,2.36-1.83,3.13-3.78,6.1-5.08,8.09,3.38-3.73,5.92-6.83,7.76-9.43,1.76-2.69,2.86-4.84,3.45-6.58,1.19-3.46,.37-5.26-1.24-6.39-3.24-2.24-9.54-1.93-9.8-6.4Z" style="fill:#ff6f1e;"/><path d="M1974.43,290.17c-.96,.71-1.82,1.38-2.6,2.02-.8,.61-1.51,1.19-2.14,1.73-1.25,1.09-2.17,2.07-2.81,2.93-1.28,1.73-1.42,3-.82,3.85,1.19,1.7,5.37,1.68,9.37,.19-.23-.83,.1-2.09,.59-3.49,.46-1.42,1.09-2.97,1.5-4.3,.82-2.67,.76-4.51-3.08-2.93Z" style="fill:#ff6f1e;"/><path d="M845.77,347.51c4.41,3.15,9.95,5.94,8.51,7.67,3.1-.18,5.06-.61,4.21-1.73-.43-.56-1.57-1.29-3.62-2.24-1.03-.48-2.28-1.01-3.8-1.61-1.5-.62-3.26-1.32-5.29-2.09Z" style="fill:#ff6f1e;"/><path d="M854.27,355.18c-1.19,.05-2.47,.13-3.97,.13,1.18,.18,2.14,.4,3.5,.5,.41-.17,.28-.42,.46-.63Z" style="fill:#ff6f1e;"/><path d="M1216.96,511.28c11.18-2.12,19.77-2.09,28.21-1.84,8.43,.29,16.7,1.01,27.14,.13l11.33,9.7c22.7-2.5,10.2-7.64,26.63-12.11,5.11,1.57,11.66,2.35,18.76,2.74,3.55,.18,7.24,.3,10.95,.25,3.71-.05,7.45-.17,11.11-.33,7.31-.32,14.27-.82,20.02-1.32,5.75-.47,10.27-.82,12.71-.76,6.87,4.17-8.29,6.1-11.56,8.78,6.62-.91,11.44-2.16,15.47-3.51,4.03-1.37,7.26-2.92,10.69-4.34,6.86-2.88,14.49-5.29,30.86-6.18l.67,2.5c9.71-2.06,19.73-4.16,30.01-5.97,5.14-.91,10.34-1.83,15.6-2.77,5.26-.92,10.57-1.74,15.93-2.63,10.72-1.85,21.63-3.42,32.67-5.27,5.52-.88,11.07-1.76,16.64-2.64,5.57-.93,11.16-1.86,16.77-2.79,22.43-3.84,45.1-7.88,67.36-12.95,2.78-.62,5.56-1.24,8.34-1.87,2.77-.64,5.53-1.34,8.28-2.02,5.5-1.37,10.98-2.75,16.41-4.18,10.84-3.06,21.53-6.05,31.91-9.61-5.87,.85-4.85-1.39-7.48-2.7,22.2-5.79,45.14-12.36,67.97-19.81,22.84-7.41,45.5-16.09,67.05-25.85,43.11-19.37,81.57-44.39,106.66-72.24-2.56,1.67-5.27,3.36-8.11,5.05-1.43,.83-2.86,1.73-4.37,2.52-1.51,.79-3.05,1.6-4.61,2.42-3.13,1.62-6.36,3.24-9.68,4.88-.83,.41-1.67,.81-2.51,1.22-.85,.38-1.71,.77-2.57,1.16-1.73,.77-3.47,1.54-5.23,2.32-3.53,1.55-7.1,3.13-10.75,4.68-3.68,1.47-7.4,2.96-11.16,4.46-7.47,3.1-15.22,5.82-22.86,8.81-30.69,11.7-61.45,22.53-82.8,37.7-9.78-.57-20.7,3.54-30.58,6.54-4.93,1.53-9.54,2.98-13.56,3.42-4.02,.47-7.4,.12-9.81-1.7-4.34,.81-8.48,1.73-12.49,2.54-4.01,.82-7.87,1.68-11.59,2.57-3.73,.87-7.3,1.86-10.79,2.72-3.49,.89-6.87,1.8-10.15,2.75-3.29,.94-6.49,1.92-9.62,2.91-3.14,.94-6.21,1.9-9.24,2.87-3.03,.98-6.01,1.97-8.96,2.98-1.48,.51-2.95,1.01-4.42,1.52-1.47,.49-2.94,.97-4.41,1.46-5.88,1.96-11.75,3.91-17.74,5.91-6.03,1.87-12.21,3.72-18.71,5.52-3.25,.92-6.59,1.75-10.03,2.54-3.44,.8-6.98,1.58-10.64,2.33-7.32,1.55-15.14,2.74-23.6,3.83-9.9-.48-5.71-5.6-9.01-9.63,8.8-1.84,17.59-3.61,26.35-5.52l13.12-2.95c4.37-.97,8.74-1.96,13.09-3.04-5.46,.27-10.94,.36-16.41,.51-5.47,.11-10.92,.32-16.39,.36,3.37-1.42,8.02-2.72,13.16-3.86,5.14-1.17,10.78-2.16,16.05-3.41,10.55-2.49,19.76-5.23,20.98-9.72-22.04,8.72-51.98,13.53-81.22,17.44-29.27,3.93-57.84,7.2-77.86,14.2,4.82,.23,9.93,.15,15.22-.1,5.3-.29,10.78-.83,16.37-1.38,2.79-.29,5.62-.57,8.45-.86,2.83-.32,5.68-.64,8.54-.96,5.71-.62,11.44-1.15,17.11-1.51,10.22,1.88,25.91,2.42,25.43,6.96-31.76,10.21-61.69,14.34-91.84,16.65-30.19,2.28-60.65,2.75-94.36,5-4.23,.27-8.83,.48-13.41,.47-4.57-.03-9.11-.19-13.21-.53-4.1-.33-7.75-.83-10.54-1.53-2.79-.73-4.73-1.64-5.41-2.75,11.09-1.32,2.8-5.12,11.88-7.16-5.95,.92-9.1,2.31-11,3.92-1.91,1.61-2.57,3.43-3.57,5.07-1,1.64-2.33,3.09-5.57,3.98-1.62,.45-3.72,.75-6.5,.86-2.78,.13-6.23,.04-10.55-.35l4.87-15.26c-3.53,3.95-7.93,5.66-12.93,6.13-5,.46-10.59-.25-16.49-1.34-5.91-1.06-12.13-2.35-18.43-2.85-6.3-.56-12.69-.38-18.96,1.62-4.21-3.35-2.18-5.67,3.22-7.06,5.4-1.41,14.17-1.79,23.56-1.62-10.57-1.81-16.44-.69-21.83,.89-5.38,1.53-10.27,3.5-18.76,2.71,5.69-3.94,11.34-7.99,16.96-12.04-9.4,5.76-17.48,4.5-24.37,1.28-3.45-1.61-6.6-3.73-9.5-5.75-2.9-2.06-5.54-4.03-7.99-5.31-1.5,3.08,7.16,13.88-15.39,11.14-9.54-2.6-4.25-5.43-6.35-7.51-.78,1.55-3.33,3.59-7.58,5.1-2.12,.75-4.67,1.37-7.61,1.73-2.95,.37-6.31,.46-10.04,.1-1.12-2.34,1.54-3.69,4.65-5.01,3.11-1.34,6.68-2.68,7.4-4.86-5.61-.41-10.71-.74-15.38-1.48-4.66-.75-8.89-1.93-12.72-4.2-20.19,1.13,.51,6.48-12.18,9.66-15.03-3.52-15.25-7.39-13-11.72,2.26-4.33,6.96-9.12,2.04-14.46,23.43-3.15,52.65-1.88,65.09-4.22l-10.91-.21c-3.64-.06-7.28-.13-10.91-.27-7.27-.25-14.56-.44-21.83-.74,1.62-2.4-5.4-5.54-9.87-8.33-4.48-2.79-6.42-5.23,5.21-6.25-21.07-4.98-44.52-8.27-67.94-10.79-23.42-2.48-46.73-4.61-67.38-6.81,2.67,1.51,5.8,2.89,8.04,4.25,2.23,1.37,3.57,2.74,2.64,4.21-10.84-.59-15.3-2.55-17.52-4.73-2.21-2.21-2.16-4.8-3.89-7.09-8.11,.09-12.21,2.29-15.68,5.07-3.47,2.77-6.3,6.09-11.84,8.18-3.8-1.84-7.2-3.42-10.28-4.85-3.08-1.41-5.87-2.6-8.43-3.66-5.14-2.1-9.42-3.66-13.49-5.38-4.08-1.69-7.98-3.44-12.36-5.88-4.39-2.4-9.19-5.68-15.12-10.17l-.82,9.02c-8.53-6.13-14.34-6.32-20.49-6.31-3.07,0-6.21,.06-9.76-.6-3.54-.69-7.47-2.14-12.13-5.03-.52-2.19,7.93-1.79,14.76-1.79-9.39-1.48-12.93-4.64-16.41-7.67-3.5-3.01-6.86-6.06-16.04-7.42,5.65-1.55,11.24-3.07,16.83-4.68-6.87-2.14-15.53-4.29-21.27-6.53-5.68-2.37-8.4-4.82-3.48-7.52-6.71,.2-14.34-.72-22.28-2.69-3.99-.95-8.1-2.09-12.29-3.34-4.14-1.33-8.36-2.79-12.61-4.3-2.12-.76-4.26-1.53-6.4-2.29-2.11-.82-4.23-1.64-6.35-2.45-4.25-1.61-8.49-3.23-12.66-4.81-8.44-3.3-16.72-6.16-24.56-8.38l5.24-6.03c-4.72,.3-10.48-1.17-16.77-3.63-6.3-2.48-13.07-5.77-19.87-9.12-13.55-6.61-27.08-13.02-36.15-11.27l-.84-3.92c-11.58-1.93-23.26-3.79-34.89-5.62-13.47-7.44-3.79-15.67-6.29-13.3-31.53-12.75-56.48-22.69-76.02-34.29-4.42,3.75-15.46,3.27-28.76,.93-3.37-.51-6.87-1.14-10.46-1.85-1.79-.37-3.6-.75-5.43-1.13-.91-.2-1.83-.4-2.74-.6-.93-.18-1.86-.36-2.79-.54-3.73-.73-7.47-1.5-11.16-2.3-1.84-.4-3.67-.81-5.48-1.2-1.82-.37-3.64-.68-5.42-1.03-16.68-5.03-34.12-8.79-51.75-11.3-17.65-2.51-35.59-3.74-53.55-3.72-35.94-.03-71.9,5.28-106.14,14.73-17.13,4.74-33.83,10.53-49.95,17.24-16.12,6.72-31.62,14.44-46.42,22.85-14.8,8.42-28.88,17.59-42.17,27.31-13.24,9.79-25.67,20.15-37.25,30.86-3.64,2.97-7.28,6.68-10.64,11.13-1.7,2.19-3.39,4.51-5.06,6.9-1.64,2.43-3.22,4.99-4.81,7.56-.79,1.29-1.58,2.59-2.38,3.89l-1.18,1.96-1.13,2.02c-1.51,2.67-3.03,5.35-4.54,8.03-1.55,2.62-2.99,5.33-4.47,7.94-1.49,2.61-2.99,5.15-4.54,7.59,2.67-2.23,4.98-4.26,7-6.15,2.03-1.89,3.77-3.65,5.41-5.24,3.24-3.21,5.68-6.12,8.13-9.02,2.5-2.85,4.94-5.76,8.04-9.09,1.55-1.67,3.36-3.34,5.38-5.21,2.04-1.84,4.29-3.89,6.99-6.01,4.5-2.62,8.61-4.36,12.57-5.51,4.01-1.08,7.81-1.62,11.57-1.99,3.73-.41,7.58-.44,11.49-.75,1.96-.14,3.96-.33,6.02-.61,2.05-.28,4.23-.55,6.46-1l-6.02-1.34c-2.01-.43-4.01-.8-6.03-1.19,2.3-2.67,4.39-4.67,6.24-6.28,1.84-1.61,3.44-2.81,4.86-3.73,2.82-1.87,5-2.46,6.94-3.09,3.94-1.2,6.94-2.33,14.32-11.35l5.96,12.78c.38-1.24,1.01-2.38,1.84-3.44,.83-1.06,1.87-2.02,3.08-2.85,2.41-1.68,5.41-3.02,8.56-4.05,1.56-.54,3.2-.92,4.82-1.24,1.62-.32,3.21-.58,4.74-.77,3.06-.37,5.81-.59,7.93-.48,.76-3.87,1.56-7.75,2.41-11.66,2.22-.22,4.29-.52,6.32-.68,2.01-.17,3.93-.32,5.76-.47,3.65-.26,6.88-.49,9.87-.29,5.95,.34,10.58,1.52,14.39,4.91l-4.44-7.9c1.95,.81,6.7-.07,12.5-1.56,2.9-.71,6.1-1.49,9.34-2.28,1.62-.4,3.24-.81,4.86-1.18,1.63-.33,3.24-.65,4.8-.94,3.13-.57,6.07-1.06,8.62-1.21,2.55-.12,4.69,0,6.19,.47,3,.95,3.39,3.36-.41,8.13,2.05-1.51,3.87-3.63,6.48-5.54,2.62-1.88,6.08-3.42,11.27-3.95l3.15,8.42c3.51-1.18,7.15-2.31,10.71-3.33,1.78-.53,3.55-.91,5.27-1.27,1.72-.36,3.4-.66,5-.9,1.6-.23,3.13-.43,4.56-.49,1.43-.04,2.76,0,3.96,.13,2.4,.26,4.29,.9,5.45,2.04-3.83,1.46-6.28,3.23-8.03,5.14-1.75,1.91-2.79,4.07-3.8,6.16,3.74-.47,7.06-.74,10-1.21,2.94-.43,5.5-1.01,7.76-1.47,4.5-1,7.73-2.32,10.09-3.81,4.74-2.84,6.01-6.6,7.08-10.42,1.07-3.8,1.92-7.77,6.09-10.79,2.09-1.49,5.01-2.77,9.21-3.71,2.1-.51,4.52-.77,7.31-.97,2.79-.17,5.95-.34,9.52-.19l-.92,5.72,7.33-2.63c2.46-.86,4.95-1.8,7.44-2.55l7.22,4.32c1.19,.73,2.38,1.41,3.55,2.17l3.5,2.28c2.8-2.11,6.17-3.56,9.98-4.36,3.79-.72,8.03-.87,12.58-.61,4.52,.44,9.34,1.2,14.34,2.39,5,1.3,10.18,2.85,15.43,4.49,5.23,1.8,10.53,3.82,15.82,5.68l1.98,.7,1.97,.77c1.32,.5,2.63,1.01,3.94,1.51,2.62,.99,5.23,1.93,7.82,2.81,1.3,.43,2.59,.86,3.87,1.28,1.28,.45,2.55,.89,3.82,1.3,2.53,.83,5.04,1.57,7.52,2.2,2.48,.65,4.93,1.13,7.33,1.6,2.4,.48,4.76,.82,7.07,1.02,3.42,.9,6.81,2.63,10.34,4.94,3.51,2.37,7.17,5.26,11.16,8.3,4,2.98,8.31,6.38,13.2,9.47,2.44,1.57,5.03,3.04,7.78,4.52,2.76,1.48,5.68,2.87,8.81,4.14l2.11-8.8c8.1,8.58,29.83,23.12,50.91,39.37,10.55,8.11,20.95,16.6,29.43,24.8,4.2,4.1,7.97,8.12,10.99,11.99,3.01,3.87,5.27,7.59,6.54,11.08,22.61,3.28-1.29-2.67,2.3-8.78,5.21,1.28,9.81,2.58,13.77,3.95,3.99,1.36,7.32,2.8,10.33,4.24,5.97,2.89,10.12,5.98,13.52,9.22,3.44,3.23,6.27,6.58,9.33,10.04,1.54,1.73,3.16,3.47,5,5.24,.92,.88,1.89,1.76,2.93,2.65,1.05,.86,2.16,1.72,3.37,2.58,13.37,3.19,8.89,.4,3.13-3.23-1.44-.91-2.96-1.87-4.31-2.81-1.35-.95-2.51-1.9-3.24-2.72-1.47-1.65-1.22-2.84,2.76-2.91,8.8,5.61,15.46,8.49,21.09,10.19,5.66,1.59,10.34,1.91,15.28,2.33,2.47,.21,5.01,.43,7.78,.84,2.78,.36,5.79,.89,9.19,1.76,3.4,.87,7.19,2.08,11.55,3.79,4.37,1.65,9.31,3.73,14.99,6.49,3.1,6.33-13.39-.91-19.4,.39,18.26,1.71,42.39,9.04,68.55,16.82,26.14,7.79,54.31,16.13,79.82,21.18,28.21,9.89,63.86,19.5,101,28.19,2.32,.55,4.65,1.1,6.98,1.65,2.33,.52,4.67,1.05,7.01,1.57,4.68,1.06,9.37,2.11,14.06,3.17,9.39,2.05,18.77,4.09,28.05,6.11,9.3,1.91,18.49,3.95,27.5,5.87,4.51,.97,8.97,1.93,13.37,2.87,4.4,.97,8.75,1.93,13.02,2.88l1.62-3.07c6.97,2.77,14.21,4.64,21.68,5.82,7.46,1.15,15.14,1.77,22.97,2.22,7.84,.37,15.84,.6,23.97,1.13,8.14,.45,16.4,1.15,24.79,2.6l-16.2-5.73Z" style="fill:#ff6f1e;"/><path d="M1616.93,408.07l-6.47-6.53-7.22,2.57-3.61,1.28-3.63,1.22-14.56,4.89c6.53,2.07,11.19,1.55,16.32,.38,5.13-1.16,10.69-3.15,19.17-3.82Z" style="fill:#ff6f1e;"/><path d="M1614.43,431.97c5.1-2.12,10.2-4.13,15.25-6.33-8.5,1.79-17.05,3.39-25.57,5.1l10.32,1.23Z" style="fill:#ff6f1e;"/><path d="M1225.55,438.84l3.89,1.42c19.57-.94,39.11-2.33,58.57-3.86-20.77,1.08-41.6,2.04-62.46,2.44Z" style="fill:#ff6f1e;"/><path d="M850.11,340.83c3.68-.87,7.64-.3,11.57,.48,3.93,.77,7.85,1.7,11.45,1.38l-13.16-2.03-6.59-1.03-6.56-1.13,3.28,2.34Z" style="fill:#ff6f1e;"/><path d="M626.52,208.83c-15.63,7.67-19.29-9.37-11.73,8.01,16.27,5.22,5.36-5.97,11.73-8.01Z" style="fill:#ff6f1e;"/><path d="M559.49,200.4c2.26,1.05,4.33,1.86,6.24,2.47,1.91,.62,3.63,1.1,5.28,1.43,3.29,.67,6.2,.83,9.1,1-4.76-5.41-7.98-6.57-10.94-6.41-2.99,.17-5.77,1.68-9.68,1.51Z" style="fill:#ff6f1e;"/></g><path d="M2193.14,98.28c1.69,2.94-2.92,8.51-13.82,16.69l-8.71,11.57-3.92,11.02c-1.31,3.67-2.7,5.93-4.16,6.77-2.57,1.47-10.67,.52-24.3-2.87-13.63-3.39-28.47-2.92-44.51,1.4,9.35,11.21,27.21,20.7,53.6,28.47,4.04,1.1,6.59,2.56,7.63,4.39,.63,1.1-.04,7.58-2.02,19.43l5.61,18.71c3.47,7.76,3.74,12.47,.81,14.15-3.67,2.1-9.25,.44-16.76-5.01-5.93-4.39-9.96-6.95-12.08-7.69-2.13-.72-6.65-1.18-13.57-1.36-6.92-.16-11.12-1.54-12.59-4.11-.48-1.67-.58-3.56-.32-5.66-.29-18.35-4.64-34.85-13.05-49.53-1.26-2.2-2.61-4.1-4.02-5.73-6.17,11.34-9.51,25.92-10,43.74,1.54,13.74,.66,21.55-2.64,23.44-.74,.42-4.15,1.04-10.26,1.86-6.1,.83-10.45,1.97-13.01,3.44-2.2,1.26-5.05,3.51-8.56,6.74-3.51,3.24-6.18,5.37-8.01,6.42-4.77,2.73-7.99,2.64-9.67-.3-.27-1.31-.16-2.83,.31-4.56,2.81-10.38,4.12-17.46,3.9-21.24-.22-3.77-1.07-10.35-2.54-19.74-.69-5.45,.98-9.33,5.02-11.65-.37,.21,1.86-.58,6.68-2.37l27.5-15.77c5.13-2.94,10.24-8.06,15.31-15.36-15.79-3.12-32.43-1.87-49.93,3.78-11.17,4.94-18,5.21-20.53,.81l-2.84-4.95c-1.05-1.83-2.42-4.21-4.1-7.15-2.52-4.4-9.56-9.87-21.1-16.41-2.52-.99-4.3-2.4-5.35-4.24-1.26-2.2-.79-3.93,1.41-5.19,3.66-2.1,10.32-3.23,19.97-3.41,6.82,0,11.32-.65,13.52-1.91,2.93-1.68,5.58-3.44,7.94-5.28,.89-.99,2.44-2.13,4.63-3.39,5.5-3.15,11.24-.35,17.23,8.39,8.04,11.47,21.58,21.5,40.62,30.06-1.59-11.26-5.32-22.04-11.21-32.31-1.68-2.93-4.47-6.94-8.35-12.02-3.89-5.08-6.46-8.72-7.72-10.92-1.47-2.56,.3-7.96,5.32-16.21,6.8-10.23,10.59-16.78,11.38-19.68,2.66-9.8,4.72-15.13,6.19-15.97,2.93-1.68,5.66-.32,8.18,4.08,.84,1.47,1.79,3.98,2.84,7.51,1.05,3.54,2.11,6.23,3.16,8.06,3.79,6.6,8.71,11.81,14.81,15.63,3.15,2.1,5.15,3.88,5.98,5.34,1.47,2.57-1.36,9.55-8.46,20.93-10.82,22.77-15.15,38.17-12.99,46.18,2.77-1.1,5.63-2.5,8.57-4.18,12.1-6.94,22.54-18.04,31.33-33.31,2.4-4.3,4.71-7.08,6.91-8.35,2.56-1.47,8.05,.02,16.44,4.46,2.15,1.21,7.63,2.69,16.44,4.46l15.8-1.75c3.19-.37,5.22,.18,6.06,1.64Z" style="fill:#ff5d01;"/></svg>